<svg width="337" height="281" viewBox="0 0 337 281" fill="none" xmlns="http://www.w3.org/2000/svg">
<g filter="url(#filter0_bddiii_0_1260)">
<rect x="18.4929" y="71.3677" width="292.878" height="189.822" rx="37.0178" fill="url(#paint0_linear_0_1260)" fill-opacity="0.5" shape-rendering="crispEdges"/>
<rect x="19.7255" y="72.6003" width="290.413" height="187.357" rx="35.7852" stroke="url(#paint1_linear_0_1260)" stroke-width="2.46523" shape-rendering="crispEdges"/>
</g>
<g style="mix-blend-mode:overlay" opacity="0.3">
<rect x="18.7672" y="71.3677" width="292.878" height="189.822" rx="37.0178" fill="white"/>
</g>
<g filter="url(#filter1_d_0_1260)">
<path d="M122.382 223.368C122.382 216.751 122.816 210.948 123.684 205.958C124.551 200.86 125.907 196.359 127.751 192.454C129.704 188.44 132.198 184.915 135.236 181.878C138.273 178.841 142.015 175.966 146.462 173.255C150.259 171.085 154.164 168.97 158.177 166.909C162.299 164.848 166.095 162.679 169.566 160.401C173.146 158.123 176.02 155.52 178.19 152.591C180.468 149.662 181.607 146.083 181.607 141.852C181.607 138.598 180.901 135.832 179.491 133.555C178.19 131.168 176.237 129.324 173.634 128.023C171.139 126.721 168.102 126.07 164.522 126.07C160.401 126.07 156.55 126.829 152.97 128.348C149.499 129.758 146.354 131.548 143.534 133.717C140.822 135.778 138.49 137.839 136.537 139.9L122.87 125.582C124.389 123.846 126.45 121.894 129.053 119.725C131.765 117.555 134.964 115.44 138.652 113.379C142.449 111.318 146.733 109.637 151.506 108.335C156.279 107.034 161.54 106.383 167.288 106.383C175.749 106.383 182.854 107.901 188.603 110.939C194.352 113.867 198.691 117.935 201.619 123.141C204.656 128.239 206.175 134.151 206.175 140.876C206.175 145.757 205.361 150.096 203.734 153.893C202.216 157.581 200.101 160.835 197.389 163.655C194.677 166.475 191.64 169.024 188.277 171.302C184.915 173.471 181.444 175.587 177.864 177.648C172.224 180.685 167.668 183.342 164.197 185.62C160.726 187.898 157.96 190.013 155.899 191.966C153.947 193.918 152.428 195.871 151.343 197.823C150.367 199.667 149.499 201.619 148.74 203.68H206.338V223.368H122.382Z" fill="url(#paint2_linear_0_1260)"/>
<path d="M122.382 223.368H118.382V227.368H122.382V223.368ZM123.684 205.958L127.624 206.644L127.626 206.637L127.627 206.629L123.684 205.958ZM127.751 192.454L124.154 190.704L124.144 190.725L124.134 190.746L127.751 192.454ZM135.236 181.878L132.407 179.049H132.407L135.236 181.878ZM146.462 173.255L144.478 169.782L144.428 169.81L144.38 169.839L146.462 173.255ZM158.177 166.909L156.388 163.331L156.369 163.341L156.35 163.351L158.177 166.909ZM169.566 160.401L167.419 157.026L167.395 157.041L167.372 157.057L169.566 160.401ZM178.19 152.591L175.032 150.135L175.003 150.172L174.975 150.21L178.19 152.591ZM179.491 133.555L175.98 135.47L176.032 135.566L176.09 135.66L179.491 133.555ZM173.634 128.023L171.784 131.569L171.814 131.585L171.845 131.6L173.634 128.023ZM152.97 128.348L154.476 132.054L154.504 132.042L154.533 132.03L152.97 128.348ZM143.534 133.717L145.954 136.902L145.963 136.895L145.972 136.888L143.534 133.717ZM136.537 139.9L133.644 142.662L136.548 145.705L139.441 142.651L136.537 139.9ZM122.87 125.582L119.86 122.948L117.452 125.699L119.977 128.344L122.87 125.582ZM129.053 119.725L126.554 116.601L126.523 116.626L126.492 116.652L129.053 119.725ZM138.652 113.379L136.744 109.864L136.722 109.875L136.701 109.887L138.652 113.379ZM151.506 108.335L152.559 112.194L152.559 112.194L151.506 108.335ZM188.603 110.939L186.734 114.475L186.761 114.489L186.787 114.503L188.603 110.939ZM201.619 123.141L198.133 125.102L198.157 125.146L198.183 125.189L201.619 123.141ZM203.734 153.893L200.058 152.317L200.047 152.343L200.036 152.37L203.734 153.893ZM197.389 163.655L200.272 166.427H200.272L197.389 163.655ZM188.277 171.302L190.446 174.663L190.484 174.639L190.521 174.614L188.277 171.302ZM177.864 177.648L179.761 181.169L179.811 181.142L179.86 181.114L177.864 177.648ZM164.197 185.62L166.392 188.964L164.197 185.62ZM155.899 191.966L153.148 189.062L153.109 189.099L153.071 189.137L155.899 191.966ZM151.343 197.823L147.847 195.88L147.827 195.916L147.808 195.951L151.343 197.823ZM148.74 203.68L144.987 202.298L143.004 207.68H148.74V203.68ZM206.338 203.68H210.338V199.68H206.338V203.68ZM206.338 223.368V227.368H210.338V223.368H206.338ZM126.382 223.368C126.382 216.915 126.806 211.35 127.624 206.644L119.743 205.273C118.826 210.545 118.382 216.587 118.382 223.368H126.382ZM127.627 206.629C128.445 201.822 129.707 197.68 131.368 194.162L124.134 190.746C122.108 195.037 120.657 199.898 119.74 205.287L127.627 206.629ZM131.348 194.204C133.114 190.574 135.353 187.417 138.064 184.706L132.407 179.049C129.043 182.413 126.293 186.307 124.154 190.704L131.348 194.204ZM138.064 184.706C140.835 181.935 144.313 179.25 148.545 176.67L144.38 169.839C139.717 172.683 135.71 175.746 132.407 179.049L138.064 184.706ZM148.447 176.728C152.19 174.589 156.042 172.502 160.004 170.467L156.35 163.351C152.285 165.438 148.328 167.582 144.478 169.782L148.447 176.728ZM159.966 170.487C164.212 168.363 168.146 166.117 171.761 163.745L167.372 157.057C164.045 159.24 160.385 161.333 156.388 163.331L159.966 170.487ZM171.714 163.775C175.64 161.277 178.899 158.353 181.404 154.972L174.975 150.21C173.141 152.686 170.652 154.969 167.419 157.026L171.714 163.775ZM181.347 155.047C184.246 151.319 185.607 146.841 185.607 141.852H177.607C177.607 145.324 176.689 148.005 175.032 150.135L181.347 155.047ZM185.607 141.852C185.607 138.015 184.771 134.483 182.892 131.449L176.09 135.66C177.032 137.182 177.607 139.182 177.607 141.852H185.607ZM183.003 131.639C181.282 128.484 178.702 126.084 175.423 124.445L171.845 131.6C173.772 132.564 175.097 133.852 175.98 135.47L183.003 131.639ZM175.484 124.476C172.284 122.806 168.575 122.07 164.522 122.07V130.07C167.628 130.07 169.994 130.635 171.784 131.569L175.484 124.476ZM164.522 122.07C159.897 122.07 155.511 122.925 151.408 124.666L154.533 132.03C157.589 130.734 160.905 130.07 164.522 130.07V122.07ZM151.465 124.642C147.678 126.181 144.215 128.146 141.095 130.547L145.972 136.888C148.492 134.949 151.321 133.336 154.476 132.054L151.465 124.642ZM141.113 130.533C138.262 132.7 135.761 134.903 133.633 137.149L139.441 142.651C141.218 140.775 143.382 138.857 145.954 136.902L141.113 130.533ZM139.431 137.138L125.763 122.82L119.977 128.344L133.644 142.662L139.431 137.138ZM125.88 128.216C127.213 126.693 129.104 124.889 131.614 122.797L126.492 116.652C123.795 118.899 121.564 121 119.86 122.948L125.88 128.216ZM131.552 122.848C134.059 120.842 137.068 118.846 140.604 116.871L136.701 109.887C132.86 112.034 129.47 114.268 126.554 116.601L131.552 122.848ZM140.561 116.895C144.05 115 148.041 113.426 152.559 112.194L150.454 104.476C145.425 105.848 140.847 107.636 136.744 109.864L140.561 116.895ZM152.559 112.194C156.938 111 161.839 110.383 167.288 110.383V102.383C161.24 102.383 155.619 103.067 150.454 104.476L152.559 112.194ZM167.288 110.383C175.288 110.383 181.709 111.82 186.734 114.475L190.471 107.402C183.999 103.983 176.21 102.383 167.288 102.383V110.383ZM186.787 114.503C191.892 117.103 195.622 120.639 198.133 125.102L205.106 121.18C201.759 115.231 196.811 110.631 190.419 107.374L186.787 114.503ZM198.183 125.189C200.804 129.588 202.175 134.774 202.175 140.876H210.175C210.175 133.528 208.509 126.891 205.056 121.094L198.183 125.189ZM202.175 140.876C202.175 145.313 201.436 149.1 200.058 152.317L207.411 155.468C209.287 151.092 210.175 146.202 210.175 140.876H202.175ZM200.036 152.37C198.704 155.603 196.863 158.431 194.506 160.883L200.272 166.427C203.339 163.238 205.727 159.558 207.433 155.416L200.036 152.37ZM194.506 160.883C191.995 163.494 189.174 165.863 186.034 167.99L190.521 174.614C194.106 172.185 197.359 169.457 200.272 166.427L194.506 160.883ZM186.109 167.941C182.805 170.073 179.391 172.153 175.868 174.181L179.86 181.114C183.496 179.021 187.025 176.87 190.446 174.663L186.109 167.941ZM175.968 174.126C170.274 177.192 165.607 179.91 162.002 182.276L166.392 188.964C169.729 186.774 174.174 184.178 179.761 181.169L175.968 174.126ZM162.002 182.276C158.415 184.63 155.44 186.891 153.148 189.062L158.65 194.869C160.48 193.136 163.037 191.166 166.392 188.964L162.002 182.276ZM153.071 189.137C150.915 191.293 149.149 193.537 147.847 195.88L154.84 199.766C155.708 198.204 156.979 196.543 158.728 194.794L153.071 189.137ZM147.808 195.951C146.744 197.961 145.805 200.078 144.987 202.298L152.493 205.063C153.194 203.161 153.99 201.373 154.879 199.695L147.808 195.951ZM148.74 207.68H206.338V199.68H148.74V207.68ZM202.338 203.68V223.368H210.338V203.68H202.338ZM206.338 219.368H122.382V227.368H206.338V219.368Z" fill="url(#paint3_linear_0_1260)"/>
</g>
<g style="mix-blend-mode:overlay" filter="url(#filter2_f_0_1260)">
<ellipse cx="168.426" cy="138.373" rx="92.6041" ry="63.022" fill="white"/>
</g>
<defs>
<filter id="filter0_bddiii_0_1260" x="-11.0898" y="41.785" width="352.043" height="248.988" filterUnits="userSpaceOnUse" color-interpolation-filters="sRGB">
<feFlood flood-opacity="0" result="BackgroundImageFix"/>
<feGaussianBlur in="BackgroundImage" stdDeviation="14.7914"/>
<feComposite in2="SourceAlpha" operator="in" result="effect1_backgroundBlur_0_1260"/>
<feColorMatrix in="SourceAlpha" type="matrix" values="0 0 0 0 0 0 0 0 0 0 0 0 0 0 0 0 0 0 127 0" result="hardAlpha"/>
<feOffset dy="9.86091"/>
<feGaussianBlur stdDeviation="4.93045"/>
<feComposite in2="hardAlpha" operator="out"/>
<feColorMatrix type="matrix" values="0 0 0 0 0 0 0 0 0 0 0 0 0 0 0 0 0 0 0.25 0"/>
<feBlend mode="normal" in2="effect1_backgroundBlur_0_1260" result="effect2_dropShadow_0_1260"/>
<feColorMatrix in="SourceAlpha" type="matrix" values="0 0 0 0 0 0 0 0 0 0 0 0 0 0 0 0 0 0 127 0" result="hardAlpha"/>
<feOffset dx="7.39568" dy="-7.39568"/>
<feGaussianBlur stdDeviation="8.62829"/>
<feComposite in2="hardAlpha" operator="out"/>
<feColorMatrix type="matrix" values="0 0 0 0 0.76275 0 0 0 0 0.0875 0 0 0 0 1 0 0 0 0.35 0"/>
<feBlend mode="normal" in2="effect2_dropShadow_0_1260" result="effect3_dropShadow_0_1260"/>
<feBlend mode="normal" in="SourceGraphic" in2="effect3_dropShadow_0_1260" result="shape"/>
<feColorMatrix in="SourceAlpha" type="matrix" values="0 0 0 0 0 0 0 0 0 0 0 0 0 0 0 0 0 0 127 0" result="hardAlpha"/>
<feOffset/>
<feGaussianBlur stdDeviation="73.9568"/>
<feComposite in2="hardAlpha" operator="arithmetic" k2="-1" k3="1"/>
<feColorMatrix type="matrix" values="0 0 0 0 0.0929635 0 0 0 0 0.0304687 0 0 0 0 0.270833 0 0 0 0.16 0"/>
<feBlend mode="normal" in2="shape" result="effect4_innerShadow_0_1260"/>
<feColorMatrix in="SourceAlpha" type="matrix" values="0 0 0 0 0 0 0 0 0 0 0 0 0 0 0 0 0 0 127 0" result="hardAlpha"/>
<feOffset/>
<feGaussianBlur stdDeviation="17.2566"/>
<feComposite in2="hardAlpha" operator="arithmetic" k2="-1" k3="1"/>
<feColorMatrix type="matrix" values="0 0 0 0 0.758819 0 0 0 0 0.542014 0 0 0 0 0.929167 0 0 0 0.54 0"/>
<feBlend mode="normal" in2="effect4_innerShadow_0_1260" result="effect5_innerShadow_0_1260"/>
<feColorMatrix in="SourceAlpha" type="matrix" values="0 0 0 0 0 0 0 0 0 0 0 0 0 0 0 0 0 0 127 0" result="hardAlpha"/>
<feOffset/>
<feGaussianBlur stdDeviation="4.93045"/>
<feComposite in2="hardAlpha" operator="arithmetic" k2="-1" k3="1"/>
<feColorMatrix type="matrix" values="0 0 0 0 1 0 0 0 0 1 0 0 0 0 1 0 0 0 0.5 0"/>
<feBlend mode="normal" in2="effect5_innerShadow_0_1260" result="effect6_innerShadow_0_1260"/>
</filter>
<filter id="filter1_d_0_1260" x="103.687" y="106.383" width="121.346" height="154.375" filterUnits="userSpaceOnUse" color-interpolation-filters="sRGB">
<feFlood flood-opacity="0" result="BackgroundImageFix"/>
<feColorMatrix in="SourceAlpha" type="matrix" values="0 0 0 0 0 0 0 0 0 0 0 0 0 0 0 0 0 0 127 0" result="hardAlpha"/>
<feOffset dy="18.695"/>
<feGaussianBlur stdDeviation="9.34749"/>
<feComposite in2="hardAlpha" operator="out"/>
<feColorMatrix type="matrix" values="0 0 0 0 0.165 0 0 0 0 0.1125 0 0 0 0 0.375 0 0 0 0.67 0"/>
<feBlend mode="normal" in2="BackgroundImageFix" result="effect1_dropShadow_0_1260"/>
<feBlend mode="normal" in="SourceGraphic" in2="effect1_dropShadow_0_1260" result="shape"/>
</filter>
<filter id="filter2_f_0_1260" x="0.821533" y="0.351074" width="335.208" height="276.044" filterUnits="userSpaceOnUse" color-interpolation-filters="sRGB">
<feFlood flood-opacity="0" result="BackgroundImageFix"/>
<feBlend mode="normal" in="SourceGraphic" in2="BackgroundImageFix" result="shape"/>
<feGaussianBlur stdDeviation="37.5" result="effect1_foregroundBlur_0_1260"/>
</filter>
<linearGradient id="paint0_linear_0_1260" x1="311.371" y1="71.3677" x2="9.01956" y2="244.662" gradientUnits="userSpaceOnUse">
<stop stop-color="#F024C3" stop-opacity="0.85"/>
<stop offset="0.371353" stop-color="#8B23C2" stop-opacity="0.523215"/>
<stop offset="0.675546" stop-color="#492BBC" stop-opacity="0.754053"/>
<stop offset="1" stop-color="#2065CC"/>
</linearGradient>
<linearGradient id="paint1_linear_0_1260" x1="305.468" y1="71.3677" x2="-0.602157" y2="136.82" gradientUnits="userSpaceOnUse">
<stop stop-color="#BB5ACB"/>
<stop offset="0.432292" stop-color="#925BD8"/>
<stop offset="1" stop-color="#4755D6"/>
</linearGradient>
<linearGradient id="paint2_linear_0_1260" x1="165.206" y1="71.3677" x2="165.206" y2="261.19" gradientUnits="userSpaceOnUse">
<stop stop-color="#E3D8FA"/>
<stop offset="0.364583" stop-color="#BAA1ED"/>
<stop offset="1" stop-color="#7655BC"/>
</linearGradient>
<linearGradient id="paint3_linear_0_1260" x1="190.468" y1="220.902" x2="190.468" y2="106.534" gradientUnits="userSpaceOnUse">
<stop stop-color="#261D5C"/>
<stop offset="0.269033" stop-color="#3D2F8D"/>
<stop offset="0.600542" stop-color="#362C63"/>
<stop offset="1" stop-color="#5E45C0"/>
</linearGradient>
</defs>
</svg>
