<svg width="339" height="285" viewBox="0 0 339 285" fill="none" xmlns="http://www.w3.org/2000/svg">
<g filter="url(#filter0_bddiii_0_1270)">
<rect x="16.6454" y="75.3677" width="296.802" height="189.822" rx="37.0178" fill="url(#paint0_linear_0_1270)" fill-opacity="0.5" shape-rendering="crispEdges"/>
<rect x="17.8781" y="76.6003" width="294.337" height="187.357" rx="35.7852" stroke="url(#paint1_linear_0_1270)" stroke-width="2.46523" shape-rendering="crispEdges"/>
</g>
<g style="mix-blend-mode:overlay" opacity="0.3">
<rect x="16.9238" y="75.3677" width="296.802" height="189.822" rx="37.0178" fill="white"/>
</g>
<g filter="url(#filter1_d_0_1270)">
<path d="M161.992 228.507C155.809 228.507 150.169 227.747 145.071 226.229C140.081 224.602 135.688 222.324 131.891 219.395C128.203 216.358 125.275 212.778 123.105 208.657L134.82 193.85C135.905 196.237 137.64 198.569 140.027 200.847C142.413 203.125 145.396 204.969 148.975 206.379C152.555 207.789 156.623 208.494 161.178 208.494C165.626 208.494 169.476 207.843 172.73 206.541C175.984 205.24 178.479 203.45 180.215 201.172C182.059 198.786 182.981 195.911 182.981 192.549C182.981 188.969 181.842 185.932 179.564 183.437C177.395 180.943 174.14 179.044 169.802 177.743C165.463 176.441 160.148 175.79 153.857 175.79H148.487V159.52H154.182C161.992 159.52 168.229 158.164 172.893 155.452C177.666 152.74 180.052 148.89 180.052 143.9C180.052 140.863 179.239 138.26 177.612 136.09C175.984 133.812 173.815 132.131 171.103 131.046C168.392 129.853 165.409 129.257 162.155 129.257C156.731 129.257 151.904 130.558 147.674 133.161C143.552 135.656 140.406 138.91 138.237 142.924L124.082 127.141C126.468 123.67 129.722 120.742 133.844 118.355C137.966 115.861 142.576 113.908 147.674 112.498C152.88 111.088 158.25 110.383 163.782 110.383C171.483 110.383 178.317 111.739 184.282 114.45C190.248 117.054 194.912 120.633 198.275 125.189C201.638 129.745 203.319 134.951 203.319 140.809C203.319 145.147 202.397 149.107 200.553 152.686C198.817 156.266 196.323 159.249 193.068 161.635C189.814 164.021 185.964 165.757 181.516 166.841C186.289 167.601 190.465 169.39 194.045 172.211C197.733 174.922 200.553 178.393 202.505 182.624C204.566 186.746 205.597 191.247 205.597 196.128C205.597 202.962 203.644 208.765 199.739 213.538C195.943 218.31 190.736 221.998 184.12 224.602C177.612 227.205 170.236 228.507 161.992 228.507Z" fill="url(#paint2_linear_0_1270)"/>
<path d="M145.071 226.229L143.83 230.032L143.879 230.048L143.929 230.062L145.071 226.229ZM131.891 219.395L129.349 222.483L129.398 222.523L129.448 222.562L131.891 219.395ZM123.105 208.657L119.968 206.175L118.353 208.216L119.566 210.52L123.105 208.657ZM134.82 193.85L138.462 192.195L135.75 186.229L131.683 191.369L134.82 193.85ZM140.027 200.847L137.265 203.74L140.027 200.847ZM148.975 206.379L150.442 202.657L148.975 206.379ZM172.73 206.541L171.245 202.828H171.245L172.73 206.541ZM180.215 201.172L177.05 198.726L177.041 198.737L177.033 198.748L180.215 201.172ZM179.564 183.437L176.546 186.062L176.577 186.099L176.61 186.134L179.564 183.437ZM169.802 177.743L170.951 173.911L169.802 177.743ZM148.487 175.79H144.487V179.79H148.487V175.79ZM148.487 159.52V155.52H144.487V159.52H148.487ZM172.893 155.452L170.917 151.974L170.9 151.984L170.883 151.994L172.893 155.452ZM177.612 136.09L174.357 138.415L174.384 138.453L174.412 138.49L177.612 136.09ZM171.103 131.046L169.492 134.708L169.555 134.735L169.618 134.76L171.103 131.046ZM147.674 133.161L149.745 136.583L149.758 136.576L149.77 136.568L147.674 133.161ZM138.237 142.924L135.259 145.595L139.053 149.825L141.756 144.826L138.237 142.924ZM124.082 127.141L120.785 124.875L119.002 127.469L121.104 129.812L124.082 127.141ZM133.844 118.355L135.848 121.817L135.882 121.798L135.915 121.777L133.844 118.355ZM147.674 112.498L146.628 108.637L146.618 108.64L146.607 108.643L147.674 112.498ZM184.282 114.45L182.627 118.092L182.655 118.104L182.683 118.117L184.282 114.45ZM198.275 125.189L201.493 122.814V122.814L198.275 125.189ZM200.553 152.686L196.997 150.854L196.975 150.897L196.954 150.941L200.553 152.686ZM193.068 161.635L195.434 164.86H195.434L193.068 161.635ZM181.516 166.841L180.569 162.955L180.888 170.792L181.516 166.841ZM194.045 172.211L191.569 175.353L191.622 175.394L191.675 175.433L194.045 172.211ZM202.505 182.624L198.874 184.3L198.9 184.357L198.928 184.413L202.505 182.624ZM199.739 213.538L196.644 211.005L196.626 211.026L196.609 211.048L199.739 213.538ZM184.12 224.602L182.655 220.879L182.645 220.884L182.634 220.888L184.12 224.602ZM161.992 224.507C156.135 224.507 150.886 223.787 146.212 222.395L143.929 230.062C149.452 231.707 155.484 232.507 161.992 232.507V224.507ZM146.311 222.426C141.714 220.927 137.737 218.852 134.335 216.228L129.448 222.562C133.639 225.795 138.447 228.276 143.83 230.032L146.311 222.426ZM134.434 216.307C131.146 213.599 128.56 210.433 126.645 206.794L119.566 210.52C121.989 215.124 125.261 219.117 129.349 222.483L134.434 216.307ZM126.242 211.139L137.957 196.332L131.683 191.369L119.968 206.175L126.242 211.139ZM131.179 195.506C132.522 198.46 134.601 201.197 137.265 203.74L142.789 197.953C140.68 195.94 139.288 194.013 138.462 192.195L131.179 195.506ZM137.265 203.74C140.082 206.43 143.527 208.532 147.509 210.1L150.442 202.657C147.265 201.406 144.744 199.82 142.789 197.953L137.265 203.74ZM147.509 210.1C151.633 211.725 156.211 212.494 161.178 212.494V204.494C157.034 204.494 153.477 203.853 150.442 202.657L147.509 210.1ZM161.178 212.494C166.003 212.494 170.381 211.789 174.216 210.255L171.245 202.828C168.571 203.897 165.248 204.494 161.178 204.494V212.494ZM174.216 210.255C177.992 208.745 181.134 206.566 183.397 203.596L177.033 198.748C175.824 200.334 173.977 201.735 171.245 202.828L174.216 210.255ZM183.38 203.618C185.827 200.451 186.981 196.689 186.981 192.549H178.981C178.981 195.134 178.29 197.121 177.05 198.726L183.38 203.618ZM186.981 192.549C186.981 188.036 185.511 184.019 182.518 180.74L176.61 186.134C178.172 187.845 178.981 189.902 178.981 192.549H186.981ZM182.582 180.813C179.765 177.573 175.755 175.353 170.951 173.911L168.652 181.574C172.525 182.736 175.024 184.313 176.546 186.062L182.582 180.813ZM170.951 173.911C166.126 172.464 160.398 171.79 153.857 171.79V179.79C159.898 179.79 164.8 180.418 168.652 181.574L170.951 173.911ZM153.857 171.79H148.487V179.79H153.857V171.79ZM152.487 175.79V159.52H144.487V175.79H152.487ZM148.487 163.52H154.182V155.52H148.487V163.52ZM154.182 163.52C162.401 163.52 169.415 162.101 174.904 158.91L170.883 151.994C167.043 154.227 161.582 155.52 154.182 155.52V163.52ZM174.869 158.93C180.741 155.594 184.052 150.496 184.052 143.9H176.052C176.052 147.284 174.591 149.887 170.917 151.974L174.869 158.93ZM184.052 143.9C184.052 140.106 183.02 136.634 180.812 133.69L174.412 138.49C175.457 139.885 176.052 141.619 176.052 143.9H184.052ZM180.866 133.765C178.775 130.837 175.979 128.688 172.589 127.332L169.618 134.76C171.651 135.574 173.194 136.788 174.357 138.415L180.866 133.765ZM172.714 127.385C169.447 125.947 165.908 125.257 162.155 125.257V133.257C164.909 133.257 167.336 133.759 169.492 134.708L172.714 127.385ZM162.155 125.257C156.061 125.257 150.496 126.728 145.577 129.755L149.77 136.568C153.313 134.388 157.401 133.257 162.155 133.257V125.257ZM145.603 129.739C140.907 132.582 137.245 136.346 134.718 141.022L141.756 144.826C143.567 141.475 146.197 138.731 149.745 136.583L145.603 129.739ZM141.215 140.253L127.059 124.471L121.104 129.812L135.259 145.595L141.215 140.253ZM127.378 129.408C129.386 126.486 132.173 123.945 135.848 121.817L131.84 114.894C127.271 117.539 123.55 120.854 120.785 124.875L127.378 129.408ZM135.915 121.777C139.694 119.49 143.961 117.675 148.74 116.353L146.607 108.643C141.19 110.141 136.237 112.231 131.773 114.933L135.915 121.777ZM148.719 116.359C153.576 115.043 158.594 114.383 163.782 114.383V106.383C157.906 106.383 152.184 107.132 146.628 108.637L148.719 116.359ZM163.782 114.383C171.011 114.383 177.264 115.654 182.627 118.092L185.938 110.809C179.369 107.823 171.955 106.383 163.782 106.383V114.383ZM182.683 118.117C188.103 120.482 192.17 123.653 195.057 127.564L201.493 122.814C197.655 117.613 192.394 113.626 185.882 110.784L182.683 118.117ZM195.057 127.564C197.893 131.407 199.319 135.775 199.319 140.809H207.319C207.319 134.128 205.382 128.082 201.493 122.814L195.057 127.564ZM199.319 140.809C199.319 144.561 198.527 147.885 196.997 150.854L204.109 154.518C206.267 150.329 207.319 145.734 207.319 140.809H199.319ZM196.954 150.941C195.507 153.925 193.439 156.403 190.703 158.409L195.434 164.86C199.206 162.094 202.128 158.606 204.152 154.431L196.954 150.941ZM190.703 158.409C187.927 160.445 184.573 161.979 180.569 162.955L182.464 170.728C187.355 169.535 191.702 167.597 195.434 164.86L190.703 158.409ZM180.888 170.792C185.028 171.45 188.559 172.981 191.569 175.353L196.52 169.069C192.372 165.8 187.55 163.751 182.145 162.891L180.888 170.792ZM191.675 175.433C194.808 177.737 197.199 180.672 198.874 184.3L206.137 180.948C203.907 176.115 200.657 172.108 196.414 168.988L191.675 175.433ZM198.928 184.413C200.694 187.946 201.597 191.83 201.597 196.128H209.597C209.597 190.664 208.438 185.545 206.083 180.835L198.928 184.413ZM201.597 196.128C201.597 202.145 199.9 207.025 196.644 211.005L202.835 216.071C207.389 210.505 209.597 203.779 209.597 196.128H201.597ZM196.609 211.048C193.318 215.185 188.728 218.49 182.655 220.879L185.584 228.324C192.745 225.507 198.568 221.436 202.87 216.028L196.609 211.048ZM182.634 220.888C176.674 223.272 169.815 224.507 161.992 224.507V232.507C170.656 232.507 178.549 231.138 185.605 228.316L182.634 220.888Z" fill="url(#paint3_linear_0_1270)"/>
</g>
<g style="mix-blend-mode:overlay" filter="url(#filter2_f_0_1270)">
<ellipse cx="165.046" cy="138.39" rx="90.0455" ry="63.022" fill="white"/>
</g>
<defs>
<filter id="filter0_bddiii_0_1270" x="-12.9373" y="45.785" width="355.967" height="248.988" filterUnits="userSpaceOnUse" color-interpolation-filters="sRGB">
<feFlood flood-opacity="0" result="BackgroundImageFix"/>
<feGaussianBlur in="BackgroundImage" stdDeviation="14.7914"/>
<feComposite in2="SourceAlpha" operator="in" result="effect1_backgroundBlur_0_1270"/>
<feColorMatrix in="SourceAlpha" type="matrix" values="0 0 0 0 0 0 0 0 0 0 0 0 0 0 0 0 0 0 127 0" result="hardAlpha"/>
<feOffset dy="9.86091"/>
<feGaussianBlur stdDeviation="4.93045"/>
<feComposite in2="hardAlpha" operator="out"/>
<feColorMatrix type="matrix" values="0 0 0 0 0 0 0 0 0 0 0 0 0 0 0 0 0 0 0.25 0"/>
<feBlend mode="normal" in2="effect1_backgroundBlur_0_1270" result="effect2_dropShadow_0_1270"/>
<feColorMatrix in="SourceAlpha" type="matrix" values="0 0 0 0 0 0 0 0 0 0 0 0 0 0 0 0 0 0 127 0" result="hardAlpha"/>
<feOffset dx="7.39568" dy="-7.39568"/>
<feGaussianBlur stdDeviation="8.62829"/>
<feComposite in2="hardAlpha" operator="out"/>
<feColorMatrix type="matrix" values="0 0 0 0 0.76275 0 0 0 0 0.0875 0 0 0 0 1 0 0 0 0.35 0"/>
<feBlend mode="normal" in2="effect2_dropShadow_0_1270" result="effect3_dropShadow_0_1270"/>
<feBlend mode="normal" in="SourceGraphic" in2="effect3_dropShadow_0_1270" result="shape"/>
<feColorMatrix in="SourceAlpha" type="matrix" values="0 0 0 0 0 0 0 0 0 0 0 0 0 0 0 0 0 0 127 0" result="hardAlpha"/>
<feOffset/>
<feGaussianBlur stdDeviation="73.9568"/>
<feComposite in2="hardAlpha" operator="arithmetic" k2="-1" k3="1"/>
<feColorMatrix type="matrix" values="0 0 0 0 0.0929635 0 0 0 0 0.0304687 0 0 0 0 0.270833 0 0 0 0.16 0"/>
<feBlend mode="normal" in2="shape" result="effect4_innerShadow_0_1270"/>
<feColorMatrix in="SourceAlpha" type="matrix" values="0 0 0 0 0 0 0 0 0 0 0 0 0 0 0 0 0 0 127 0" result="hardAlpha"/>
<feOffset/>
<feGaussianBlur stdDeviation="17.2566"/>
<feComposite in2="hardAlpha" operator="arithmetic" k2="-1" k3="1"/>
<feColorMatrix type="matrix" values="0 0 0 0 0.758819 0 0 0 0 0.542014 0 0 0 0 0.929167 0 0 0 0.54 0"/>
<feBlend mode="normal" in2="effect4_innerShadow_0_1270" result="effect5_innerShadow_0_1270"/>
<feColorMatrix in="SourceAlpha" type="matrix" values="0 0 0 0 0 0 0 0 0 0 0 0 0 0 0 0 0 0 127 0" result="hardAlpha"/>
<feOffset/>
<feGaussianBlur stdDeviation="4.93045"/>
<feComposite in2="hardAlpha" operator="arithmetic" k2="-1" k3="1"/>
<feColorMatrix type="matrix" values="0 0 0 0 1 0 0 0 0 1 0 0 0 0 1 0 0 0 0.5 0"/>
<feBlend mode="normal" in2="effect5_innerShadow_0_1270" result="effect6_innerShadow_0_1270"/>
</filter>
<filter id="filter1_d_0_1270" x="104.41" y="110.383" width="119.881" height="155.514" filterUnits="userSpaceOnUse" color-interpolation-filters="sRGB">
<feFlood flood-opacity="0" result="BackgroundImageFix"/>
<feColorMatrix in="SourceAlpha" type="matrix" values="0 0 0 0 0 0 0 0 0 0 0 0 0 0 0 0 0 0 127 0" result="hardAlpha"/>
<feOffset dy="18.695"/>
<feGaussianBlur stdDeviation="9.34749"/>
<feComposite in2="hardAlpha" operator="out"/>
<feColorMatrix type="matrix" values="0 0 0 0 0.165 0 0 0 0 0.1125 0 0 0 0 0.375 0 0 0 0.67 0"/>
<feBlend mode="normal" in2="BackgroundImageFix" result="effect1_dropShadow_0_1270"/>
<feBlend mode="normal" in="SourceGraphic" in2="effect1_dropShadow_0_1270" result="shape"/>
</filter>
<filter id="filter2_f_0_1270" x="0.000915527" y="0.367676" width="330.091" height="276.044" filterUnits="userSpaceOnUse" color-interpolation-filters="sRGB">
<feFlood flood-opacity="0" result="BackgroundImageFix"/>
<feBlend mode="normal" in="SourceGraphic" in2="BackgroundImageFix" result="shape"/>
<feGaussianBlur stdDeviation="37.5" result="effect1_foregroundBlur_0_1270"/>
</filter>
<linearGradient id="paint0_linear_0_1270" x1="313.447" y1="75.3677" x2="9.07546" y2="252.157" gradientUnits="userSpaceOnUse">
<stop stop-color="#F024C3" stop-opacity="0.85"/>
<stop offset="0.371353" stop-color="#8B23C2" stop-opacity="0.523215"/>
<stop offset="0.675546" stop-color="#492BBC" stop-opacity="0.754053"/>
<stop offset="1" stop-color="#2065CC"/>
</linearGradient>
<linearGradient id="paint1_linear_0_1270" x1="307.465" y1="75.3677" x2="-2.34" y2="142.506" gradientUnits="userSpaceOnUse">
<stop stop-color="#BB5ACB"/>
<stop offset="0.432292" stop-color="#925BD8"/>
<stop offset="1" stop-color="#4755D6"/>
</linearGradient>
<linearGradient id="paint2_linear_0_1270" x1="165.324" y1="75.3677" x2="165.324" y2="265.19" gradientUnits="userSpaceOnUse">
<stop stop-color="#E3D8FA"/>
<stop offset="0.364583" stop-color="#BAA1ED"/>
<stop offset="1" stop-color="#7655BC"/>
</linearGradient>
<linearGradient id="paint3_linear_0_1270" x1="190.925" y1="224.902" x2="190.925" y2="110.534" gradientUnits="userSpaceOnUse">
<stop stop-color="#261D5C"/>
<stop offset="0.269033" stop-color="#3D2F8D"/>
<stop offset="0.600542" stop-color="#362C63"/>
<stop offset="1" stop-color="#5E45C0"/>
</linearGradient>
</defs>
</svg>
