<svg width="300" height="190" viewBox="0 0 300 190" fill="none" xmlns="http://www.w3.org/2000/svg">
<g clip-path="url(#clip0_37_5063)">
<g filter="url(#filter0_biii_37_5063)">
<rect width="299.719" height="189.822" rx="37.0178" fill="url(#paint0_linear_37_5063)" fill-opacity="0.5"/>
<rect x="1.23261" y="1.23261" width="297.254" height="187.357" rx="35.7852" stroke="url(#paint1_linear_37_5063)" stroke-width="2.46523"/>
</g>
<g filter="url(#filter1_d_37_5063)">
<path d="M186.404 132.313V152H120.996V132.313H143.45V57.143C142.582 58.4446 141.117 59.909 139.056 61.536C137.104 63.0546 134.826 64.5732 132.223 66.0918C129.728 67.5019 127.125 68.695 124.413 69.6713C121.81 70.6475 119.423 71.1356 117.254 71.1356V50.9602C120.183 50.9602 123.166 50.2009 126.203 48.6823C129.24 47.1637 132.06 45.4282 134.663 43.4758C137.267 41.5233 139.328 39.7335 140.846 38.1065C142.473 36.371 143.341 35.449 143.45 35.3405H165.74V132.313H186.404Z" fill="url(#paint2_linear_37_5063)"/>
</g>
<g filter="url(#filter2_d_37_5063)">
<path fill-rule="evenodd" clip-rule="evenodd" d="M190.404 128.313V156H116.996V128.313H139.45V66.219C137.856 67.3421 136.117 68.4509 134.238 69.5469L134.215 69.5606L134.191 69.574C131.507 71.0914 128.706 72.3755 125.793 73.4259C122.869 74.5195 120.009 75.1356 117.254 75.1356H113.254V46.9602H117.254C119.47 46.9602 121.844 46.3898 124.414 45.1046C127.246 43.6887 129.86 42.0781 132.263 40.2758C134.756 38.4062 136.619 36.7734 137.922 35.3772L137.928 35.3707C139.51 33.6832 140.452 32.6809 140.621 32.5121L141.793 31.3405H169.74V128.313H190.404ZM124.413 69.6713C127.125 68.695 129.728 67.5019 132.223 66.0918C134.826 64.5732 137.104 63.0546 139.056 61.536C139.19 61.4306 139.321 61.3259 139.45 61.2218C141.305 59.7199 142.638 58.3603 143.45 57.143V132.313H120.996V152H186.404V132.313H165.74V35.3405H143.45C143.341 35.449 142.473 36.371 140.846 38.1065C139.328 39.7335 137.267 41.5233 134.663 43.4758C132.06 45.4282 129.24 47.1637 126.203 48.6823C123.166 50.2009 120.183 50.9602 117.254 50.9602V71.1356C118.514 71.1356 119.847 70.9709 121.254 70.6415C122.269 70.4039 123.322 70.0804 124.413 69.6713Z" fill="url(#paint3_linear_37_5063)"/>
</g>
<g style="mix-blend-mode:overlay" filter="url(#filter3_f_37_5063)">
<ellipse rx="92.5576" ry="63.022" transform="matrix(1 0 0 -1 148.859 67.0063)" fill="white"/>
</g>
</g>
<defs>
<filter id="filter0_biii_37_5063" x="-29.5827" y="-29.5827" width="358.884" height="248.988" filterUnits="userSpaceOnUse" color-interpolation-filters="sRGB">
<feFlood flood-opacity="0" result="BackgroundImageFix"/>
<feGaussianBlur in="BackgroundImage" stdDeviation="14.7914"/>
<feComposite in2="SourceAlpha" operator="in" result="effect1_backgroundBlur_37_5063"/>
<feBlend mode="normal" in="SourceGraphic" in2="effect1_backgroundBlur_37_5063" result="shape"/>
<feColorMatrix in="SourceAlpha" type="matrix" values="0 0 0 0 0 0 0 0 0 0 0 0 0 0 0 0 0 0 127 0" result="hardAlpha"/>
<feOffset/>
<feGaussianBlur stdDeviation="73.9568"/>
<feComposite in2="hardAlpha" operator="arithmetic" k2="-1" k3="1"/>
<feColorMatrix type="matrix" values="0 0 0 0 0.0929635 0 0 0 0 0.0304687 0 0 0 0 0.270833 0 0 0 0.16 0"/>
<feBlend mode="normal" in2="shape" result="effect2_innerShadow_37_5063"/>
<feColorMatrix in="SourceAlpha" type="matrix" values="0 0 0 0 0 0 0 0 0 0 0 0 0 0 0 0 0 0 127 0" result="hardAlpha"/>
<feOffset/>
<feGaussianBlur stdDeviation="17.2566"/>
<feComposite in2="hardAlpha" operator="arithmetic" k2="-1" k3="1"/>
<feColorMatrix type="matrix" values="0 0 0 0 0.758819 0 0 0 0 0.542014 0 0 0 0 0.929167 0 0 0 0.54 0"/>
<feBlend mode="normal" in2="effect2_innerShadow_37_5063" result="effect3_innerShadow_37_5063"/>
<feColorMatrix in="SourceAlpha" type="matrix" values="0 0 0 0 0 0 0 0 0 0 0 0 0 0 0 0 0 0 127 0" result="hardAlpha"/>
<feOffset/>
<feGaussianBlur stdDeviation="4.93045"/>
<feComposite in2="hardAlpha" operator="arithmetic" k2="-1" k3="1"/>
<feColorMatrix type="matrix" values="0 0 0 0 1 0 0 0 0 1 0 0 0 0 1 0 0 0 0.5 0"/>
<feBlend mode="normal" in2="effect3_innerShadow_37_5063" result="effect4_innerShadow_37_5063"/>
</filter>
<filter id="filter1_d_37_5063" x="98.5591" y="35.3405" width="106.54" height="154.049" filterUnits="userSpaceOnUse" color-interpolation-filters="sRGB">
<feFlood flood-opacity="0" result="BackgroundImageFix"/>
<feColorMatrix in="SourceAlpha" type="matrix" values="0 0 0 0 0 0 0 0 0 0 0 0 0 0 0 0 0 0 127 0" result="hardAlpha"/>
<feOffset dy="18.695"/>
<feGaussianBlur stdDeviation="9.34749"/>
<feComposite in2="hardAlpha" operator="out"/>
<feColorMatrix type="matrix" values="0 0 0 0 0.165 0 0 0 0 0.1125 0 0 0 0 0.375 0 0 0 0.67 0"/>
<feBlend mode="normal" in2="BackgroundImageFix" result="effect1_dropShadow_37_5063"/>
<feBlend mode="normal" in="SourceGraphic" in2="effect1_dropShadow_37_5063" result="shape"/>
</filter>
<filter id="filter2_d_37_5063" x="94.5591" y="31.3405" width="114.54" height="162.049" filterUnits="userSpaceOnUse" color-interpolation-filters="sRGB">
<feFlood flood-opacity="0" result="BackgroundImageFix"/>
<feColorMatrix in="SourceAlpha" type="matrix" values="0 0 0 0 0 0 0 0 0 0 0 0 0 0 0 0 0 0 127 0" result="hardAlpha"/>
<feOffset dy="18.695"/>
<feGaussianBlur stdDeviation="9.34749"/>
<feComposite in2="hardAlpha" operator="out"/>
<feColorMatrix type="matrix" values="0 0 0 0 0.165 0 0 0 0 0.1125 0 0 0 0 0.375 0 0 0 0.67 0"/>
<feBlend mode="normal" in2="BackgroundImageFix" result="effect1_dropShadow_37_5063"/>
<feBlend mode="normal" in="SourceGraphic" in2="effect1_dropShadow_37_5063" result="shape"/>
</filter>
<filter id="filter3_f_37_5063" x="-18.6982" y="-71.0156" width="335.115" height="276.044" filterUnits="userSpaceOnUse" color-interpolation-filters="sRGB">
<feFlood flood-opacity="0" result="BackgroundImageFix"/>
<feBlend mode="normal" in="SourceGraphic" in2="BackgroundImageFix" result="shape"/>
<feGaussianBlur stdDeviation="37.5" result="effect1_foregroundBlur_37_5063"/>
</filter>
<linearGradient id="paint0_linear_37_5063" x1="299.719" y1="2.76389e-05" x2="-6.12031" y2="179.388" gradientUnits="userSpaceOnUse">
<stop stop-color="#F024C3" stop-opacity="0.85"/>
<stop offset="0.371353" stop-color="#8B23C2" stop-opacity="0.523215"/>
<stop offset="0.675546" stop-color="#492BBC" stop-opacity="0.754053"/>
<stop offset="1" stop-color="#2065CC"/>
</linearGradient>
<linearGradient id="paint1_linear_37_5063" x1="293.678" y1="5.11539e-05" x2="-18.8951" y2="68.404" gradientUnits="userSpaceOnUse">
<stop stop-color="#BB5ACB"/>
<stop offset="0.432292" stop-color="#925BD8"/>
<stop offset="1" stop-color="#4755D6"/>
</linearGradient>
<linearGradient id="paint2_linear_37_5063" x1="150.139" y1="2.42871e-07" x2="150.139" y2="189.822" gradientUnits="userSpaceOnUse">
<stop stop-color="#E3D8FA"/>
<stop offset="0.364583" stop-color="#BAA1ED"/>
<stop offset="0.859375" stop-color="#8566C7"/>
<stop offset="1" stop-color="#603EA9"/>
</linearGradient>
<linearGradient id="paint3_linear_37_5063" x1="175.992" y1="149.534" x2="175.992" y2="35.1662" gradientUnits="userSpaceOnUse">
<stop stop-color="#261D5C"/>
<stop offset="0.269033" stop-color="#3D2F8D"/>
<stop offset="0.600542" stop-color="#362C63"/>
<stop offset="1" stop-color="#5E45C0"/>
</linearGradient>
<clipPath id="clip0_37_5063">
<rect width="299.719" height="189.822" fill="white"/>
</clipPath>
</defs>
</svg>
