<svg width="95" height="24" viewBox="0 0 95 24" fill="none" xmlns="http://www.w3.org/2000/svg">
<path fill-rule="evenodd" clip-rule="evenodd" d="M73.8563 18.8053C72.4849 16.4462 70.3889 14.9625 68.1229 13.2653C70.3121 15.1102 70.9204 17.2585 71.8054 19.5881C73.0548 22.8737 75.1249 21.5216 73.9604 19.0282L73.8563 18.8053Z" fill="#AAC1FB"/>
<path fill-rule="evenodd" clip-rule="evenodd" d="M73.8563 5.44773C72.4849 7.80685 70.3889 9.29053 68.1229 10.9877C70.3121 9.14284 70.9204 6.99452 71.8054 4.66628C73.0548 1.3807 75.1249 2.73145 73.9604 5.22618L73.8563 5.44773Z" fill="#AAC1FB"/>
<path fill-rule="evenodd" clip-rule="evenodd" d="M93.638 14.2356C92.9886 13.4394 92.0625 12.7895 90.8611 12.1598C92.0639 11.53 92.9886 10.8802 93.638 10.084C94.3888 9.1642 94.7641 8.06722 94.7641 6.61442C94.7641 5.00587 94.097 3.54904 93.0202 2.49368C91.942 1.43697 90.4542 0.784424 88.8143 0.784424C85.7538 0.784424 82.7125 2.3527 79.6807 4.65945C78.7614 5.359 77.9395 6.00886 77.1819 6.60636C74.7392 8.53448 72.9706 9.92954 69.2744 11.9114L68.7675 12.1839L69.2935 12.4189C72.6911 13.9429 74.631 15.5474 76.9065 17.4312C77.7107 18.0972 78.5601 18.7994 79.5273 19.5433C81.0603 20.7235 82.5987 21.7184 84.1386 22.4207C85.6935 23.1283 87.2526 23.5378 88.8143 23.5378C90.4542 23.5378 91.942 22.8852 93.0188 21.8299C94.097 20.7732 94.7641 19.315 94.7641 17.7078C94.7641 16.2537 94.3888 15.1567 93.638 14.2383V14.2356ZM88.8856 12.4202C89.972 12.8862 90.7844 13.3481 91.3145 13.9174C91.8242 14.4652 92.0804 15.1271 92.0804 16.0147C92.0804 16.9935 91.6146 17.8823 90.8638 18.5268C90.1021 19.1807 89.0459 19.5862 87.8773 19.5862C84.2455 19.5862 81.2891 16.9425 77.8408 13.861C77.2243 13.3105 76.5914 12.7452 75.916 12.1598C76.5914 11.5757 77.2243 11.0091 77.8408 10.4586C81.2891 7.37573 84.2468 4.7333 87.8773 4.7333C89.0459 4.7333 90.1021 5.13879 90.8638 5.79135C91.6146 6.43584 92.0804 7.32471 92.0804 8.30353C92.0804 9.19106 91.8242 9.85301 91.3145 10.4008C90.7844 10.9701 89.972 11.432 88.8856 11.8979L88.2787 12.1584L88.8856 12.4202Z" fill="#AAC1FB"/>
<path d="M86.5902 12.1495C87.7835 12.7927 88.2301 14.3368 87.1423 15.3894C86.8382 15.6848 86.4354 15.8634 85.9929 15.8634C84.2708 15.8634 83.6598 13.6654 80.9761 12.1495C83.5393 10.5504 84.2708 8.43561 85.9929 8.43561C86.3779 8.43561 86.7341 8.57256 87.0204 8.8035C88.1931 9.74608 87.8629 11.4647 86.5902 12.1495Z" fill="#AAC1FB"/>
<path d="M0.842041 12.1505C0.842041 12.1505 63.6716 10.9889 65.0371 10.9889C66.4025 10.9889 66.4783 13.312 65.0371 13.312C63.5958 13.312 0.842041 12.1505 0.842041 12.1505Z" fill="#AAC1FB"/>
</svg>
