<svg width="95" height="24" viewBox="0 0 95 24" fill="none" xmlns="http://www.w3.org/2000/svg">
<path fill-rule="evenodd" clip-rule="evenodd" d="M21.7499 5.51698C23.1213 7.8761 25.2173 9.35978 27.4833 11.057C25.2941 9.21209 24.6858 7.06377 23.8008 4.73419C22.5514 1.44861 20.4813 2.8007 21.6458 5.29409L21.7499 5.51698Z" fill="#AAC1FB"/>
<path fill-rule="evenodd" clip-rule="evenodd" d="M21.7499 18.8745C23.1213 16.5154 25.2173 15.0317 27.4833 13.3346C25.2941 15.1794 24.6858 17.3277 23.8008 19.656C22.5514 22.9416 20.4813 21.5908 21.6458 19.0961L21.7499 18.8745Z" fill="#AAC1FB"/>
<path fill-rule="evenodd" clip-rule="evenodd" d="M1.96818 10.0867C2.61755 10.8829 3.54365 11.5328 4.74512 12.1625C3.54228 12.7922 2.61755 13.4421 1.96818 14.2383C1.21744 15.1581 0.842061 16.255 0.842061 17.7078C0.842061 19.3164 1.50924 20.7732 2.58604 21.8286C3.66421 22.8853 5.15201 23.5378 6.79187 23.5378C9.8524 23.5378 12.8937 21.9696 15.9255 19.6628C16.8448 18.9633 17.6667 18.3134 18.4243 17.7159C20.867 15.7878 22.6356 14.3927 26.3318 12.4109L26.8387 12.1383L26.3127 11.9034C22.9151 10.3794 20.9752 8.77487 18.6997 6.89106C17.8955 6.22508 17.0461 5.52285 16.0789 4.779C14.5459 3.59876 13.0075 2.60382 11.4676 1.90159C9.91268 1.19399 8.35364 0.784468 6.79187 0.784468C5.15201 0.784468 3.66421 1.43702 2.5874 2.49238C1.50923 3.54908 0.842062 5.00725 0.842062 6.61446C0.842062 8.06861 1.21744 9.16559 1.96818 10.084L1.96818 10.0867ZM6.72063 11.902C5.63424 11.4361 4.82184 10.9742 4.29166 10.4049C3.78203 9.85708 3.52584 9.19513 3.52584 8.30761C3.52584 7.32878 3.99163 6.43991 4.74238 5.79542C5.50409 5.14152 6.56034 4.73603 7.72893 4.73603C11.3607 4.73603 14.3171 7.3798 17.7654 10.4613C18.3819 11.0118 19.0148 11.5771 19.6902 12.1625C19.0148 12.7466 18.3819 13.3132 17.7654 13.8637C14.3171 16.9465 11.3594 19.589 7.72893 19.589C6.56034 19.589 5.50409 19.1835 4.74238 18.5309C3.99163 17.8864 3.52584 16.9976 3.52584 16.0187C3.52584 15.1312 3.78203 14.4693 4.29166 13.9214C4.82184 13.3521 5.63424 12.8902 6.72063 12.4243L7.32752 12.1638L6.72063 11.902Z" fill="#AAC1FB"/>
<path d="M9.01599 12.1727C7.82274 11.5296 7.37613 9.98549 8.46389 8.93282C8.76803 8.63742 9.1708 8.45884 9.6133 8.45884C11.3354 8.45884 11.9464 10.6568 14.6302 12.1727C12.0669 13.7719 11.3354 15.8867 9.6133 15.8867C9.22834 15.8867 8.87215 15.7497 8.58582 15.5188C7.41312 14.5762 7.74329 12.8575 9.01599 12.1727Z" fill="#AAC1FB"/>
<path d="M94.7642 12.1718C94.7642 12.1718 31.9346 13.3334 30.5691 13.3334C29.2037 13.3334 29.1279 11.0102 30.5691 11.0102C32.0104 11.0102 94.7642 12.1718 94.7642 12.1718Z" fill="#AAC1FB"/>
</svg>
