<svg width="188" height="50" viewBox="0 0 188 50" fill="none" xmlns="http://www.w3.org/2000/svg">
<rect width="188" height="50" rx="25" fill="url(#paint0_linear_65_6180)"/>
<g clip-path="url(#clip0_65_6180)">
<g filter="url(#filter0_f_65_6180)">
<ellipse cx="94" cy="25.628" rx="57.8866" ry="11.5932" fill="#160C89" fill-opacity="0.44"/>
</g>
<g style="mix-blend-mode:overlay">
<path fill-rule="evenodd" clip-rule="evenodd" d="M23.1565 5.60068L23.1069 5.5874L13.531 8.15326L6.52093 15.1633L3.95508 24.7392L6.52093 34.3151L13.531 41.3252L23.1069 43.891L23.1565 43.8777V43.891H163.894H163.912V43.8863L173.47 41.3252L180.48 34.3151L183.046 24.7392L180.48 15.1633L173.47 8.15326L163.912 5.59216V5.58741H163.894H23.1565V5.60068Z" fill="white" fill-opacity="0.37"/>
</g>
<g style="mix-blend-mode:overlay" filter="url(#filter1_d_65_6180)">
<path fill-rule="evenodd" clip-rule="evenodd" d="M23.1565 5.60068L23.1069 5.5874L13.531 8.15326L6.52093 15.1633L3.95508 24.7392L6.52093 34.3151L13.531 41.3252L23.1069 43.891L23.1565 43.8777V43.891H163.894H163.912V43.8863L173.47 41.3252L180.48 34.3151L183.046 24.7392L180.48 15.1633L173.47 8.15326L163.912 5.59216V5.58741H163.894H23.1565V5.60068Z" fill="white" fill-opacity="0.01" shape-rendering="crispEdges"/>
</g>
<g style="mix-blend-mode:overlay">
<path fill-rule="evenodd" clip-rule="evenodd" d="M21.756 49.8417L23.0215 43.85H164.436L165.702 49.8417H21.756Z" fill="url(#paint1_linear_65_6180)" fill-opacity="0.26"/>
</g>
<g style="mix-blend-mode:overlay">
<path fill-rule="evenodd" clip-rule="evenodd" d="M21.3618 -0.183278L22.6274 5.80835H164.042L165.307 -0.183278H21.3618Z" fill="url(#paint2_linear_65_6180)" fill-opacity="0.92"/>
</g>
<g style="mix-blend-mode:overlay">
<path d="M177.143 0.722483L173.474 8.15638L180.471 15.1502L189.945 10.0394L177.143 0.722483Z" fill="black" fill-opacity="0.31"/>
</g>
<g style="mix-blend-mode:overlay">
<path d="M187.673 11.239L180.475 15.1458L183.011 24.716L196.915 24.714L187.673 11.239Z" fill="black" fill-opacity="0.19"/>
</g>
<g style="mix-blend-mode:overlay">
<path d="M165.611 51.5597L163.91 43.8577L173.422 41.2815L176.923 48.6816L165.611 51.5597Z" fill="white" fill-opacity="0.13"/>
</g>
<g style="mix-blend-mode:overlay">
<path d="M177.094 48.712L173.425 41.2781L180.422 34.2843L189.897 39.3951L177.094 48.712Z" fill="white" fill-opacity="0.32"/>
</g>
<g style="mix-blend-mode:overlay">
<path d="M187.624 38.1956L180.426 34.2888L182.962 24.7185L196.866 24.7206L187.624 38.1956Z" fill="white" fill-opacity="0.08"/>
</g>
<g style="mix-blend-mode:overlay">
<path d="M165.66 -2.12518L163.959 5.57679L173.471 8.15296L176.972 0.752906L165.66 -2.12518Z" fill="white" fill-opacity="0.19"/>
</g>
<g style="mix-blend-mode:overlay">
<path d="M21.3056 -2.12524L23.0064 5.57673L13.4945 8.1529L9.99365 0.752845L21.3056 -2.12524Z" fill="white" fill-opacity="0.4"/>
</g>
<g style="mix-blend-mode:overlay">
<path d="M9.82265 0.722483L13.4917 8.15638L6.4945 15.1502L-2.98002 10.0394L9.82265 0.722483Z" fill="white" fill-opacity="0.87"/>
</g>
<g style="mix-blend-mode:overlay">
<path d="M9.77382 48.712L13.4429 41.2781L6.44568 34.2843L-3.02885 39.3951L9.77382 48.712Z" fill="black" fill-opacity="0.58"/>
</g>
<g style="mix-blend-mode:overlay">
<path d="M-0.707462 11.2389L6.49012 15.1457L3.95439 24.716L-9.94937 24.7139L-0.707462 11.2389Z" fill="white" fill-opacity="0.08"/>
</g>
<g style="mix-blend-mode:overlay">
<path d="M-0.756291 38.1955L6.44129 34.2887L3.90556 24.7185L-9.9982 24.7205L-0.756291 38.1955Z" fill="black" fill-opacity="0.19"/>
</g>
<g style="mix-blend-mode:overlay">
<path d="M21.2568 51.5597L22.9576 43.8577L13.4457 41.2815L9.94482 48.6816L21.2568 51.5597Z" fill="black" fill-opacity="0.38"/>
</g>
<g style="mix-blend-mode:lighten" filter="url(#filter2_f_65_6180)">
<ellipse rx="3.77656" ry="3.3799" transform="matrix(-0.748178 0.663498 0.663498 0.748178 10.5779 11.1939)" fill="white"/>
</g>
<g style="mix-blend-mode:lighten" filter="url(#filter3_f_65_6180)">
<ellipse rx="3.77656" ry="3.3799" transform="matrix(-0.748178 0.663498 0.663499 0.748177 174.622 41.3852)" fill="white"/>
</g>
<g filter="url(#filter4_d_65_6180)">
<path d="M23.0904 5.53509L21.8284 -0.041658M23.0904 5.53509L13.4632 8.14357M23.0904 5.53509H112.139M13.4632 8.14357L10.8316 2.58633M13.4632 8.14357L6.82511 14.9212M6.82511 14.9212L2.19203 12.033M6.82511 14.9212L4.35745 24.1272M4.35745 24.1272H0.446411M4.35745 24.1272L6.22177 33.8146" stroke="url(#paint3_radial_65_6180)" stroke-width="1.18314" stroke-linecap="round" stroke-linejoin="round" shape-rendering="crispEdges"/>
</g>
<path d="M164.438 43.6989L165.702 49.2345M164.438 43.6989L173.644 41.2323M164.438 43.6989H110.668M173.644 41.2323L176.352 46.6476M173.644 41.2323L180.503 34.3128M180.503 34.3128L185.136 37.201M180.503 34.3128L182.971 25.1068M182.971 25.1068H186.882M182.971 25.1068L181.106 15.4195" stroke="url(#paint4_radial_65_6180)" stroke-width="1.18314" stroke-linecap="round" stroke-linejoin="round"/>
<g style="mix-blend-mode:overlay" filter="url(#filter5_f_65_6180)">
<ellipse cx="94.0242" cy="51.8863" rx="37.6246" ry="7.64633" fill="black" fill-opacity="0.13"/>
</g>
<g style="mix-blend-mode:overlay" opacity="0.5" filter="url(#filter6_f_65_6180)">
<ellipse rx="8.15694" ry="5.68022" transform="matrix(-0.748178 0.663498 0.663498 0.748178 14.5654 15.0668)" fill="white" fill-opacity="0.88"/>
</g>
<g style="mix-blend-mode:overlay" opacity="0.4" filter="url(#filter7_f_65_6180)">
<ellipse rx="8.15694" ry="5.68022" transform="matrix(-0.748178 0.663498 0.663498 0.748178 174.589 34.5774)" fill="white" fill-opacity="0.88"/>
</g>
<path d="M160.34 5.58857L41.6881 5.58856" stroke="url(#paint5_linear_65_6180)" stroke-opacity="0.58" stroke-width="1.18314" stroke-linecap="round" stroke-linejoin="round"/>
<mask id="mask0_65_6180" style="mask-type:alpha" maskUnits="userSpaceOnUse" x="0" y="-11" width="230" height="45">
<path opacity="0.37" d="M229.847 -10.9255V22.5732C210.33 30.4641 195.991 34.2142 181.276 33.0328C159.302 31.2687 140.147 22.0141 117.829 20.3948C95.2381 18.7557 74.9566 24.3 53.0169 27.4701C35.4221 30.0125 21.2975 28.1428 0.924561 22.5732V-10.9255H229.847Z" fill="white"/>
</mask>
<g mask="url(#mask0_65_6180)">
<g style="mix-blend-mode:overlay">
<path fill-rule="evenodd" clip-rule="evenodd" d="M23.1566 5.77787L23.107 5.76459L13.5311 8.33044L6.52106 15.3405L3.9552 24.9164L6.52106 34.4923L13.5311 41.5023L23.107 44.0682L23.1566 44.0549V44.0682H163.894H163.912V44.0635L173.47 41.5024L180.48 34.4923L183.046 24.9164L180.48 15.3405L173.47 8.33047L163.912 5.76937V5.76462H163.894H23.1566V5.77787Z" fill="white" fill-opacity="0.37"/>
</g>
</g>
<mask id="mask1_65_6180" style="mask-type:alpha" maskUnits="userSpaceOnUse" x="3" y="5" width="181" height="40">
<g style="mix-blend-mode:overlay">
<path fill-rule="evenodd" clip-rule="evenodd" d="M23.1565 5.77775L23.1069 5.76447L13.531 8.33032L6.52093 15.3404L3.95508 24.9163L6.52093 34.4922L13.531 41.5022L23.1069 44.0681L23.1565 44.0548V44.0681H163.894H163.912V44.0633L173.47 41.5022L180.48 34.4922L183.046 24.9163L180.48 15.3404L173.47 8.33034L163.912 5.76924V5.76448H163.894H23.1565V5.77775Z" fill="white" fill-opacity="0.37"/>
</g>
</mask>
<g mask="url(#mask1_65_6180)">
<path d="M-60.9025 -14.656L10.7646 -8.15501L30.1009 0.379874C13.7181 46.0152 0.143063 64.222 -30.6897 85.403L-60.9025 -14.656Z" fill="url(#paint6_linear_65_6180)"/>
<path d="M-3.80652 110.133C23.5738 80.2643 37.2521 34.2146 52.4917 -11.8608L85.4132 -7.36898C83.7077 33.8248 77.4043 55.3917 65.5071 91.7027L-3.80652 110.133Z" fill="url(#paint7_linear_65_6180)" fill-opacity="0.3"/>
<path d="M225.449 13.5844L154.594 -2.56824L134.351 -0.324537C153.481 15.8436 169.334 51.2075 170.57 90.532L225.449 13.5844Z" fill="url(#paint8_linear_65_6180)" fill-opacity="0.5"/>
<path d="M78.9788 116.767C90.3293 72.7061 97.1755 26.6959 97.1755 -11.3794L103.215 -17.6979C118.107 5.72504 127.535 40.0678 131.224 106.354L78.9788 116.767Z" fill="url(#paint9_linear_65_6180)" fill-opacity="0.3"/>
</g>
</g>
<defs>
<filter id="filter0_f_65_6180" x="12.0644" y="-10.0143" width="163.871" height="71.2845" filterUnits="userSpaceOnUse" color-interpolation-filters="sRGB">
<feFlood flood-opacity="0" result="BackgroundImageFix"/>
<feBlend mode="normal" in="SourceGraphic" in2="BackgroundImageFix" result="shape"/>
<feGaussianBlur stdDeviation="12.0245" result="effect1_foregroundBlur_65_6180"/>
</filter>
<filter id="filter1_d_65_6180" x="0.405654" y="2.03798" width="186.19" height="45.4025" filterUnits="userSpaceOnUse" color-interpolation-filters="sRGB">
<feFlood flood-opacity="0" result="BackgroundImageFix"/>
<feColorMatrix in="SourceAlpha" type="matrix" values="0 0 0 0 0 0 0 0 0 0 0 0 0 0 0 0 0 0 127 0" result="hardAlpha"/>
<feOffset/>
<feGaussianBlur stdDeviation="1.77471"/>
<feComposite in2="hardAlpha" operator="out"/>
<feColorMatrix type="matrix" values="0 0 0 0 1 0 0 0 0 1 0 0 0 0 1 0 0 0 0.34 0"/>
<feBlend mode="normal" in2="BackgroundImageFix" result="effect1_dropShadow_65_6180"/>
<feBlend mode="normal" in="SourceGraphic" in2="effect1_dropShadow_65_6180" result="shape"/>
</filter>
<filter id="filter2_f_65_6180" x="-0.128388" y="0.535125" width="21.4127" height="21.3176" filterUnits="userSpaceOnUse" color-interpolation-filters="sRGB">
<feFlood flood-opacity="0" result="BackgroundImageFix"/>
<feBlend mode="normal" in="SourceGraphic" in2="BackgroundImageFix" result="shape"/>
<feGaussianBlur stdDeviation="3.54942" result="effect1_foregroundBlur_65_6180"/>
</filter>
<filter id="filter3_f_65_6180" x="163.915" y="30.7264" width="21.4127" height="21.3176" filterUnits="userSpaceOnUse" color-interpolation-filters="sRGB">
<feFlood flood-opacity="0" result="BackgroundImageFix"/>
<feBlend mode="normal" in="SourceGraphic" in2="BackgroundImageFix" result="shape"/>
<feGaussianBlur stdDeviation="3.54942" result="effect1_foregroundBlur_65_6180"/>
</filter>
<filter id="filter4_d_65_6180" x="-4.87771" y="-0.633362" width="122.341" height="44.5047" filterUnits="userSpaceOnUse" color-interpolation-filters="sRGB">
<feFlood flood-opacity="0" result="BackgroundImageFix"/>
<feColorMatrix in="SourceAlpha" type="matrix" values="0 0 0 0 0 0 0 0 0 0 0 0 0 0 0 0 0 0 127 0" result="hardAlpha"/>
<feOffset dy="4.73256"/>
<feGaussianBlur stdDeviation="2.36628"/>
<feComposite in2="hardAlpha" operator="out"/>
<feColorMatrix type="matrix" values="0 0 0 0 0 0 0 0 0 0 0 0 0 0 0 0 0 0 0.25 0"/>
<feBlend mode="normal" in2="BackgroundImageFix" result="effect1_dropShadow_65_6180"/>
<feBlend mode="normal" in="SourceGraphic" in2="effect1_dropShadow_65_6180" result="shape"/>
</filter>
<filter id="filter5_f_65_6180" x="44.5681" y="32.4086" width="98.9121" height="38.9555" filterUnits="userSpaceOnUse" color-interpolation-filters="sRGB">
<feFlood flood-opacity="0" result="BackgroundImageFix"/>
<feBlend mode="normal" in="SourceGraphic" in2="BackgroundImageFix" result="shape"/>
<feGaussianBlur stdDeviation="5.91571" result="effect1_foregroundBlur_65_6180"/>
</filter>
<filter id="filter6_f_65_6180" x="1.4759" y="2.26954" width="26.1789" height="25.5946" filterUnits="userSpaceOnUse" color-interpolation-filters="sRGB">
<feFlood flood-opacity="0" result="BackgroundImageFix"/>
<feBlend mode="normal" in="SourceGraphic" in2="BackgroundImageFix" result="shape"/>
<feGaussianBlur stdDeviation="2.95785" result="effect1_foregroundBlur_65_6180"/>
</filter>
<filter id="filter7_f_65_6180" x="161.499" y="21.7801" width="26.1789" height="25.5946" filterUnits="userSpaceOnUse" color-interpolation-filters="sRGB">
<feFlood flood-opacity="0" result="BackgroundImageFix"/>
<feBlend mode="normal" in="SourceGraphic" in2="BackgroundImageFix" result="shape"/>
<feGaussianBlur stdDeviation="2.95785" result="effect1_foregroundBlur_65_6180"/>
</filter>
<linearGradient id="paint0_linear_65_6180" x1="-1.79681e-05" y1="0.574663" x2="113.915" y2="120.782" gradientUnits="userSpaceOnUse">
<stop stop-color="#EB3FDA"/>
<stop offset="0.114583" stop-color="#CB18B9"/>
<stop offset="0.645833" stop-color="#564AB5"/>
<stop offset="0.875" stop-color="#3473D2"/>
<stop offset="1" stop-color="#177FDE"/>
</linearGradient>
<linearGradient id="paint1_linear_65_6180" x1="87.2128" y1="51.513" x2="164.401" y2="51.513" gradientUnits="userSpaceOnUse">
<stop/>
<stop offset="1" stop-opacity="0.24"/>
</linearGradient>
<linearGradient id="paint2_linear_65_6180" x1="161.686" y1="5.80833" x2="127.972" y2="5.80833" gradientUnits="userSpaceOnUse">
<stop stop-color="white" stop-opacity="0.33"/>
<stop offset="1" stop-color="white" stop-opacity="0"/>
</linearGradient>
<radialGradient id="paint3_radial_65_6180" cx="0" cy="0" r="1" gradientUnits="userSpaceOnUse" gradientTransform="translate(20.1107 15.6574) rotate(-110.624) scale(14.4465 46.8157)">
<stop stop-color="white" stop-opacity="0.72"/>
<stop offset="0.935188" stop-color="white" stop-opacity="0"/>
</radialGradient>
<radialGradient id="paint4_radial_65_6180" cx="0" cy="0" r="1" gradientUnits="userSpaceOnUse" gradientTransform="translate(176.495 39.2545) rotate(-106.449) scale(14.9876 41.2746)">
<stop stop-color="white" stop-opacity="0.32"/>
<stop offset="1" stop-color="white" stop-opacity="0"/>
</radialGradient>
<linearGradient id="paint5_linear_65_6180" x1="41.4653" y1="4.73645" x2="165.783" y2="4.75035" gradientUnits="userSpaceOnUse">
<stop stop-color="white" stop-opacity="0"/>
<stop offset="0.124518" stop-color="white" stop-opacity="0.37"/>
<stop offset="1" stop-color="white" stop-opacity="0"/>
</linearGradient>
<linearGradient id="paint6_linear_65_6180" x1="28.8531" y1="23.8976" x2="3.73663" y2="35.9914" gradientUnits="userSpaceOnUse">
<stop stop-color="white" stop-opacity="0.52"/>
<stop offset="1" stop-color="white" stop-opacity="0"/>
</linearGradient>
<linearGradient id="paint7_linear_65_6180" x1="71.9461" y1="0.270356" x2="57.6464" y2="58.6289" gradientUnits="userSpaceOnUse">
<stop stop-color="white"/>
<stop offset="1" stop-color="white" stop-opacity="0"/>
</linearGradient>
<linearGradient id="paint8_linear_65_6180" x1="166.05" y1="14.723" x2="145.944" y2="38.2599" gradientUnits="userSpaceOnUse">
<stop stop-color="white"/>
<stop offset="0.449557" stop-color="white" stop-opacity="0.38"/>
<stop offset="1" stop-color="white" stop-opacity="0"/>
</linearGradient>
<linearGradient id="paint9_linear_65_6180" x1="101.112" y1="8.36976" x2="104.323" y2="70.2883" gradientUnits="userSpaceOnUse">
<stop stop-color="white"/>
<stop offset="1" stop-color="white" stop-opacity="0"/>
</linearGradient>
<clipPath id="clip0_65_6180">
<rect width="188" height="50.0006" rx="25.0003" fill="white"/>
</clipPath>
</defs>
</svg>
