<svg width="190" height="51" viewBox="0 0 190 51" fill="none" xmlns="http://www.w3.org/2000/svg">
<g clip-path="url(#clip0_11_5633)">
<g filter="url(#filter0_f_11_5633)">
<ellipse cx="95.0001" cy="26.0245" rx="56.0258" ry="9.73816" fill="#160C89" fill-opacity="0.44"/>
</g>
<g style="mix-blend-mode:overlay">
<path fill-rule="evenodd" clip-rule="evenodd" d="M23.4729 9.20182L23.4313 9.19067L15.3876 11.346L9.49928 17.2343L7.34399 25.278L9.49928 33.3216L15.3876 39.21L23.4313 41.3653L23.4729 41.3541V41.3653H165.691H165.706V41.3613L173.735 39.21L179.623 33.3216L181.778 25.278L179.623 17.2343L173.735 11.346L165.706 9.19466V9.19067H165.691H23.4729V9.20182Z" fill="white" fill-opacity="0.37"/>
</g>
<g style="mix-blend-mode:overlay" filter="url(#filter1_d_11_5633)">
<path fill-rule="evenodd" clip-rule="evenodd" d="M23.4729 9.20182L23.4313 9.19067L15.3876 11.346L9.49928 17.2343L7.34399 25.278L9.49928 33.3216L15.3876 39.21L23.4313 41.3653L23.4729 41.3541V41.3653H165.691H165.706V41.3613L173.735 39.21L179.623 33.3216L181.778 25.278L179.623 17.2343L173.735 11.346L165.706 9.19466V9.19067H165.691H23.4729V9.20182Z" fill="white" fill-opacity="0.01" shape-rendering="crispEdges"/>
</g>
<g style="mix-blend-mode:overlay">
<path fill-rule="evenodd" clip-rule="evenodd" d="M22.2964 46.3637L23.3594 41.3308H166.146L167.209 46.3637H22.2964Z" fill="url(#paint0_linear_11_5633)" fill-opacity="0.26"/>
</g>
<g style="mix-blend-mode:overlay">
<path fill-rule="evenodd" clip-rule="evenodd" d="M21.9653 4.34332L23.0284 9.37622H165.815L166.878 4.34332H21.9653Z" fill="url(#paint1_linear_11_5633)" fill-opacity="0.92"/>
</g>
<g style="mix-blend-mode:overlay">
<path d="M176.82 5.10418L173.738 11.3486L179.615 17.2233L187.574 12.9303L176.82 5.10418Z" fill="black" fill-opacity="0.31"/>
</g>
<g style="mix-blend-mode:overlay">
<path d="M185.665 13.9379L179.619 17.2196L181.749 25.2585L193.428 25.2567L185.665 13.9379Z" fill="black" fill-opacity="0.19"/>
</g>
<g style="mix-blend-mode:overlay">
<path d="M167.133 47.8069L165.704 41.3373L173.694 39.1734L176.635 45.3893L167.133 47.8069Z" fill="white" fill-opacity="0.13"/>
</g>
<g style="mix-blend-mode:overlay">
<path d="M176.779 45.4149L173.697 39.1705L179.574 33.2957L187.533 37.5887L176.779 45.4149Z" fill="white" fill-opacity="0.32"/>
</g>
<g style="mix-blend-mode:overlay">
<path d="M185.624 36.5811L179.578 33.2995L181.708 25.2606L193.387 25.2623L185.624 36.5811Z" fill="white" fill-opacity="0.08"/>
</g>
<g style="mix-blend-mode:overlay">
<path d="M167.174 2.71216L165.745 9.18173L173.735 11.3457L176.676 5.12972L167.174 2.71216Z" fill="white" fill-opacity="0.19"/>
</g>
<g style="mix-blend-mode:overlay">
<path d="M21.9183 2.71216L23.3469 9.18173L15.3571 11.3457L12.4164 5.12972L21.9183 2.71216Z" fill="white" fill-opacity="0.4"/>
</g>
<g style="mix-blend-mode:overlay">
<path d="M12.2728 5.10418L15.3547 11.3486L9.47716 17.2233L1.51867 12.9303L12.2728 5.10418Z" fill="white" fill-opacity="0.87"/>
</g>
<g style="mix-blend-mode:overlay">
<path d="M12.2318 45.4149L15.3137 39.1705L9.43615 33.2957L1.47765 37.5887L12.2318 45.4149Z" fill="black" fill-opacity="0.58"/>
</g>
<g style="mix-blend-mode:overlay">
<path d="M3.42758 13.9379L9.47347 17.2196L7.34349 25.2585L-4.33552 25.2567L3.42758 13.9379Z" fill="white" fill-opacity="0.08"/>
</g>
<g style="mix-blend-mode:overlay">
<path d="M3.38657 36.5811L9.43246 33.2995L7.30247 25.2606L-4.37653 25.2623L3.38657 36.5811Z" fill="black" fill-opacity="0.19"/>
</g>
<g style="mix-blend-mode:overlay">
<path d="M21.8773 47.8069L23.3059 41.3373L15.3161 39.1734L12.3754 45.3893L21.8773 47.8069Z" fill="black" fill-opacity="0.38"/>
</g>
<g style="mix-blend-mode:lighten" filter="url(#filter2_f_11_5633)">
<ellipse rx="3.17227" ry="2.83908" transform="matrix(-0.748178 0.663498 0.663498 0.748178 12.907 13.9001)" fill="white"/>
</g>
<g style="mix-blend-mode:lighten" filter="url(#filter3_f_11_5633)">
<ellipse rx="3.17227" ry="2.83908" transform="matrix(-0.748178 0.663498 0.663499 0.748177 174.702 39.2604)" fill="white"/>
</g>
<g filter="url(#filter4_d_11_5633)">
<path d="M23.4174 9.14674L22.3573 4.46234M23.4174 9.14674L15.3307 11.3378M23.4174 9.14674H98.2172M15.3307 11.3378L13.1202 6.66982M15.3307 11.3378L9.75477 17.031M9.75477 17.031L5.86303 14.605M9.75477 17.031L7.68196 24.7639M7.68196 24.7639H4.39673M7.68196 24.7639L9.24797 32.9012" stroke="url(#paint2_radial_11_5633)" stroke-width="0.993826" stroke-linecap="round" stroke-linejoin="round" shape-rendering="crispEdges"/>
</g>
<path d="M166.148 41.2039L167.21 45.8538M166.148 41.2039L173.881 39.132M166.148 41.2039H120.982M173.881 39.132L176.155 43.6808M173.881 39.132L179.642 33.3197M179.642 33.3197L183.534 35.7457M179.642 33.3197L181.715 25.5868M181.715 25.5868H185M181.715 25.5868L180.149 17.4495" stroke="url(#paint3_radial_11_5633)" stroke-width="0.993826" stroke-linecap="round" stroke-linejoin="round"/>
<g style="mix-blend-mode:overlay" filter="url(#filter5_f_11_5633)">
<ellipse cx="95.001" cy="48.0813" rx="31.6043" ry="6.42283" fill="black" fill-opacity="0.13"/>
</g>
<g style="mix-blend-mode:overlay" opacity="0.5" filter="url(#filter6_f_11_5633)">
<ellipse rx="6.85174" ry="4.77132" transform="matrix(-0.748178 0.663498 0.663498 0.748178 16.2565 17.1533)" fill="white" fill-opacity="0.88"/>
</g>
<g style="mix-blend-mode:overlay" opacity="0.4" filter="url(#filter7_f_11_5633)">
<ellipse rx="6.85174" ry="4.77132" transform="matrix(-0.748178 0.663498 0.663498 0.748178 174.674 33.5419)" fill="white" fill-opacity="0.88"/>
</g>
<path d="M162.705 9.19166L39.0393 9.19165" stroke="url(#paint4_linear_11_5633)" stroke-opacity="0.58" stroke-width="0.993826" stroke-linecap="round" stroke-linejoin="round"/>
<mask id="mask0_11_5633" style="mask-type:alpha" maskUnits="userSpaceOnUse" x="4" y="-5" width="224" height="38">
<path opacity="0.37" d="M227.363 -4.68011V23.4584C208.353 30.0867 194.387 33.2367 180.054 32.2444C158.652 30.7625 139.995 22.9888 118.257 21.6285C96.2536 20.2517 76.4993 24.9089 55.1301 27.5718C37.9928 29.7073 24.2354 28.1368 4.39221 23.4584V-4.68011H227.363Z" fill="white"/>
</mask>
<g mask="url(#mask0_11_5633)">
<g style="mix-blend-mode:overlay">
<path fill-rule="evenodd" clip-rule="evenodd" d="M23.4729 9.3505L23.4313 9.33936L15.3876 11.4946L9.49928 17.383L7.34399 25.4267L9.49928 33.4703L15.3876 39.3587L23.4313 41.514L23.4729 41.5028V41.514H165.691H165.706V41.51L173.735 39.3587L179.623 33.4703L181.778 25.4267L179.623 17.383L173.735 11.4946L165.706 9.34334V9.33936H165.691H23.4729V9.3505Z" fill="white" fill-opacity="0.37"/>
</g>
</g>
<mask id="mask1_11_5633" style="mask-type:alpha" maskUnits="userSpaceOnUse" x="7" y="9" width="175" height="33">
<g style="mix-blend-mode:overlay">
<path fill-rule="evenodd" clip-rule="evenodd" d="M23.4729 9.3505L23.4313 9.33936L15.3876 11.4946L9.49928 17.383L7.34399 25.4267L9.49928 33.4703L15.3876 39.3587L23.4313 41.514L23.4729 41.5028V41.514H165.691H165.706V41.51L173.735 39.3587L179.623 33.4703L181.778 25.4267L179.623 17.383L173.735 11.4946L165.706 9.34334V9.33936H165.691H23.4729V9.3505Z" fill="white" fill-opacity="0.37"/>
</g>
</mask>
<g mask="url(#mask1_11_5633)">
<path d="M-55.8272 -7.81373L13.9764 -2.35299L32.81 4.81622C16.8532 43.1494 3.63111 58.4429 -26.4 76.2347L-55.8272 -7.81373Z" fill="url(#paint5_linear_11_5633)"/>
<path d="M-0.21582 97.0079C26.4526 71.9182 39.7752 33.237 54.6186 -5.46582L86.6841 -1.69275C85.023 32.9096 78.8834 51.0255 67.2956 81.5263L-0.21582 97.0079Z" fill="url(#paint6_linear_11_5633)" fill-opacity="0.3"/>
<path d="M223.079 15.9079L154.066 2.33984L134.349 4.22453C152.982 17.8056 168.423 47.5108 169.626 80.5431L223.079 15.9079Z" fill="url(#paint7_linear_11_5633)" fill-opacity="0.5"/>
<path d="M80.4172 102.58C91.4725 65.5695 98.1407 26.9214 98.1407 -5.06142L104.023 -10.3689C118.528 9.30611 127.711 38.1536 131.304 93.8331L80.4172 102.58Z" fill="url(#paint8_linear_11_5633)" fill-opacity="0.3"/>
</g>
</g>
<rect x="1.98765" y="2.35533" width="185.629" height="46.0867" rx="23.0434" stroke="#212F6A" stroke-width="3.9753"/>
<g filter="url(#filter8_ii_11_5633)">
<path fill-rule="evenodd" clip-rule="evenodd" d="M164.952 0.367676H25.0482H22.9428V0.454932C10.1097 1.52325 0.027832 12.2691 0.027832 25.3677C0.027832 38.4663 10.1097 49.2121 22.9428 50.2804V50.3677H25.0482H164.952H164.97C178.78 50.3579 189.972 39.1688 189.972 25.3677C189.972 11.5666 178.78 0.37741 164.97 0.367676H164.952ZM25.2018 48.3987C25.8149 48.3987 26.4224 48.3747 27.0235 48.3276H163.142C163.743 48.3747 164.351 48.3987 164.964 48.3987C177.667 48.3987 187.964 38.1013 187.964 25.3987C187.964 12.6962 177.667 2.39871 164.964 2.39871C164.744 2.39871 164.526 2.40179 164.307 2.4079H25.8593C25.6408 2.40177 25.4217 2.39868 25.2018 2.39868C12.4992 2.39868 2.20178 12.6961 2.20178 25.3987C2.20178 38.1012 12.4992 48.3987 25.2018 48.3987Z" fill="url(#paint9_linear_11_5633)"/>
</g>
<defs>
<filter id="filter0_f_11_5633" x="18.7734" y="-3.91456" width="152.453" height="59.8782" filterUnits="userSpaceOnUse" color-interpolation-filters="sRGB">
<feFlood flood-opacity="0" result="BackgroundImageFix"/>
<feBlend mode="normal" in="SourceGraphic" in2="BackgroundImageFix" result="shape"/>
<feGaussianBlur stdDeviation="10.1005" result="effect1_foregroundBlur_11_5633"/>
</filter>
<filter id="filter1_d_11_5633" x="4.36252" y="6.2092" width="180.397" height="38.1375" filterUnits="userSpaceOnUse" color-interpolation-filters="sRGB">
<feFlood flood-opacity="0" result="BackgroundImageFix"/>
<feColorMatrix in="SourceAlpha" type="matrix" values="0 0 0 0 0 0 0 0 0 0 0 0 0 0 0 0 0 0 127 0" result="hardAlpha"/>
<feOffset/>
<feGaussianBlur stdDeviation="1.49074"/>
<feComposite in2="hardAlpha" operator="out"/>
<feColorMatrix type="matrix" values="0 0 0 0 1 0 0 0 0 1 0 0 0 0 1 0 0 0 0.34 0"/>
<feBlend mode="normal" in2="BackgroundImageFix" result="effect1_dropShadow_11_5633"/>
<feBlend mode="normal" in="SourceGraphic" in2="effect1_dropShadow_11_5633" result="shape"/>
</filter>
<filter id="filter2_f_11_5633" x="3.91388" y="4.94671" width="17.9863" height="17.9066" filterUnits="userSpaceOnUse" color-interpolation-filters="sRGB">
<feFlood flood-opacity="0" result="BackgroundImageFix"/>
<feBlend mode="normal" in="SourceGraphic" in2="BackgroundImageFix" result="shape"/>
<feGaussianBlur stdDeviation="2.98148" result="effect1_foregroundBlur_11_5633"/>
</filter>
<filter id="filter3_f_11_5633" x="165.709" y="30.3071" width="17.9865" height="17.9066" filterUnits="userSpaceOnUse" color-interpolation-filters="sRGB">
<feFlood flood-opacity="0" result="BackgroundImageFix"/>
<feBlend mode="normal" in="SourceGraphic" in2="BackgroundImageFix" result="shape"/>
<feGaussianBlur stdDeviation="2.98148" result="effect1_foregroundBlur_11_5633"/>
</filter>
<filter id="filter4_d_11_5633" x="-0.0755224" y="3.96533" width="102.765" height="37.3835" filterUnits="userSpaceOnUse" color-interpolation-filters="sRGB">
<feFlood flood-opacity="0" result="BackgroundImageFix"/>
<feColorMatrix in="SourceAlpha" type="matrix" values="0 0 0 0 0 0 0 0 0 0 0 0 0 0 0 0 0 0 127 0" result="hardAlpha"/>
<feOffset dy="3.9753"/>
<feGaussianBlur stdDeviation="1.98765"/>
<feComposite in2="hardAlpha" operator="out"/>
<feColorMatrix type="matrix" values="0 0 0 0 0 0 0 0 0 0 0 0 0 0 0 0 0 0 0.25 0"/>
<feBlend mode="normal" in2="BackgroundImageFix" result="effect1_dropShadow_11_5633"/>
<feBlend mode="normal" in="SourceGraphic" in2="effect1_dropShadow_11_5633" result="shape"/>
</filter>
<filter id="filter5_f_11_5633" x="53.4585" y="31.7202" width="83.085" height="32.7222" filterUnits="userSpaceOnUse" color-interpolation-filters="sRGB">
<feFlood flood-opacity="0" result="BackgroundImageFix"/>
<feBlend mode="normal" in="SourceGraphic" in2="BackgroundImageFix" result="shape"/>
<feGaussianBlur stdDeviation="4.96913" result="effect1_foregroundBlur_11_5633"/>
</filter>
<filter id="filter6_f_11_5633" x="5.26146" y="6.40367" width="21.9901" height="21.499" filterUnits="userSpaceOnUse" color-interpolation-filters="sRGB">
<feFlood flood-opacity="0" result="BackgroundImageFix"/>
<feBlend mode="normal" in="SourceGraphic" in2="BackgroundImageFix" result="shape"/>
<feGaussianBlur stdDeviation="2.48456" result="effect1_foregroundBlur_11_5633"/>
</filter>
<filter id="filter7_f_11_5633" x="163.68" y="22.7923" width="21.99" height="21.499" filterUnits="userSpaceOnUse" color-interpolation-filters="sRGB">
<feFlood flood-opacity="0" result="BackgroundImageFix"/>
<feBlend mode="normal" in="SourceGraphic" in2="BackgroundImageFix" result="shape"/>
<feGaussianBlur stdDeviation="2.48456" result="effect1_foregroundBlur_11_5633"/>
</filter>
<filter id="filter8_ii_11_5633" x="-0.270316" y="0.367676" width="190.242" height="50.2981" filterUnits="userSpaceOnUse" color-interpolation-filters="sRGB">
<feFlood flood-opacity="0" result="BackgroundImageFix"/>
<feBlend mode="normal" in="SourceGraphic" in2="BackgroundImageFix" result="shape"/>
<feColorMatrix in="SourceAlpha" type="matrix" values="0 0 0 0 0 0 0 0 0 0 0 0 0 0 0 0 0 0 127 0" result="hardAlpha"/>
<feOffset/>
<feGaussianBlur stdDeviation="0.745369"/>
<feComposite in2="hardAlpha" operator="arithmetic" k2="-1" k3="1"/>
<feColorMatrix type="matrix" values="0 0 0 0 0 0 0 0 0 0 0 0 0 0 0 0 0 0 1 0"/>
<feBlend mode="overlay" in2="shape" result="effect1_innerShadow_11_5633"/>
<feColorMatrix in="SourceAlpha" type="matrix" values="0 0 0 0 0 0 0 0 0 0 0 0 0 0 0 0 0 0 127 0" result="hardAlpha"/>
<feOffset dx="-0.496913" dy="0.496913"/>
<feGaussianBlur stdDeviation="0.149074"/>
<feComposite in2="hardAlpha" operator="arithmetic" k2="-1" k3="1"/>
<feColorMatrix type="matrix" values="0 0 0 0 1 0 0 0 0 1 0 0 0 0 1 0 0 0 0.44 0"/>
<feBlend mode="normal" in2="effect1_innerShadow_11_5633" result="effect2_innerShadow_11_5633"/>
</filter>
<linearGradient id="paint0_linear_11_5633" x1="88.1929" y1="47.7676" x2="165.9" y2="47.7676" gradientUnits="userSpaceOnUse">
<stop/>
<stop offset="1" stop-opacity="0.24"/>
</linearGradient>
<linearGradient id="paint1_linear_11_5633" x1="163.232" y1="9.3762" x2="129.292" y2="9.3762" gradientUnits="userSpaceOnUse">
<stop stop-color="white" stop-opacity="0.33"/>
<stop offset="1" stop-color="white" stop-opacity="0"/>
</linearGradient>
<radialGradient id="paint2_radial_11_5633" cx="0" cy="0" r="1" gradientUnits="userSpaceOnUse" gradientTransform="translate(20.9145 17.6494) rotate(-110.624) scale(12.1349 39.3247)">
<stop stop-color="white" stop-opacity="0.72"/>
<stop offset="0.935188" stop-color="white" stop-opacity="0"/>
</radialGradient>
<radialGradient id="paint3_radial_11_5633" cx="0" cy="0" r="1" gradientUnits="userSpaceOnUse" gradientTransform="translate(176.275 37.4707) rotate(-106.449) scale(12.5894 34.6702)">
<stop stop-color="white" stop-opacity="0.32"/>
<stop offset="1" stop-color="white" stop-opacity="0"/>
</radialGradient>
<linearGradient id="paint4_linear_11_5633" x1="38.807" y1="8.33954" x2="168.378" y2="8.35464" gradientUnits="userSpaceOnUse">
<stop stop-color="white" stop-opacity="0"/>
<stop offset="0.124518" stop-color="white" stop-opacity="0.37"/>
<stop offset="1" stop-color="white" stop-opacity="0"/>
</linearGradient>
<linearGradient id="paint5_linear_11_5633" x1="31.5947" y1="24.5709" x2="8.62095" y2="37.3977" gradientUnits="userSpaceOnUse">
<stop stop-color="white" stop-opacity="0.52"/>
<stop offset="1" stop-color="white" stop-opacity="0"/>
</linearGradient>
<linearGradient id="paint6_linear_11_5633" x1="73.5671" y1="4.7242" x2="63.0557" y2="54.4666" gradientUnits="userSpaceOnUse">
<stop stop-color="white"/>
<stop offset="1" stop-color="white" stop-opacity="0"/>
</linearGradient>
<linearGradient id="paint7_linear_11_5633" x1="165.224" y1="16.8643" x2="148.894" y2="39.0313" gradientUnits="userSpaceOnUse">
<stop stop-color="white"/>
<stop offset="0.449557" stop-color="white" stop-opacity="0.38"/>
<stop offset="1" stop-color="white" stop-opacity="0"/>
</linearGradient>
<linearGradient id="paint8_linear_11_5633" x1="101.975" y1="11.5276" x2="104.303" y2="63.5743" gradientUnits="userSpaceOnUse">
<stop stop-color="white"/>
<stop offset="1" stop-color="white" stop-opacity="0"/>
</linearGradient>
<linearGradient id="paint9_linear_11_5633" x1="149.513" y1="2.19256" x2="149.513" y2="48.2711" gradientUnits="userSpaceOnUse">
<stop stop-color="#8191E2"/>
<stop offset="0.247493" stop-color="#9A9DE5"/>
<stop offset="0.386421" stop-color="#D3D2FF"/>
<stop offset="0.499501" stop-color="#D1D2ED"/>
<stop offset="0.664275" stop-color="#BFC2FA"/>
<stop offset="0.793509" stop-color="#ABB1F5"/>
<stop offset="1" stop-color="#8C9AED"/>
</linearGradient>
<clipPath id="clip0_11_5633">
<rect x="4.02173" y="4.49731" width="181.957" height="41.7407" rx="20.8703" fill="white"/>
</clipPath>
</defs>
</svg>
