<svg width="476" height="23" viewBox="0 0 476 23" fill="none" xmlns="http://www.w3.org/2000/svg">
<path fill-rule="evenodd" clip-rule="evenodd" d="M190.788 11.4649C190.788 12.1962 190.18 12.7932 189.418 12.7932C188.667 12.7932 188.072 12.1962 188.072 11.4649C188.072 10.728 188.667 10.131 189.418 10.131C190.18 10.131 190.788 10.728 190.788 11.4649Z" fill="#6E64AC"/>
<path fill-rule="evenodd" clip-rule="evenodd" d="M196.529 11.4604C196.529 12.4958 195.673 13.3489 194.606 13.3489C193.558 13.3489 192.684 12.4958 192.684 11.4604C192.684 10.4193 193.558 9.57183 194.606 9.57183C195.673 9.57183 196.529 10.4183 196.529 11.4604Z" fill="#6E64AC"/>
<path fill-rule="evenodd" clip-rule="evenodd" d="M202.19 6.78552C201.228 8.44542 199.756 9.48935 198.166 10.6835C199.702 9.38543 200.129 7.87386 200.751 6.23475C201.628 3.92299 203.081 4.87433 202.263 6.6287L202.19 6.78552Z" fill="#6E64AC"/>
<path fill-rule="evenodd" clip-rule="evenodd" d="M202.19 16.183C201.228 14.5231 199.756 13.4791 198.166 12.285C199.702 13.5831 200.129 15.0946 200.751 16.7328C201.628 19.0446 203.081 18.0942 202.263 16.3388L202.19 16.183Z" fill="#6E64AC"/>
<path fill-rule="evenodd" clip-rule="evenodd" d="M216.074 10.0012C215.618 10.5614 214.968 11.0186 214.125 11.4617C214.969 11.9048 215.618 12.362 216.074 12.9223C216.601 13.5694 216.865 14.3413 216.865 15.3635C216.865 16.4952 216.396 17.5203 215.64 18.2628C214.884 19.0063 213.839 19.4655 212.688 19.4655C210.54 19.4655 208.405 18.362 206.276 16.739C205.631 16.2468 205.054 15.7895 204.522 15.3691C202.808 14.0125 201.566 13.0309 198.971 11.6365L198.616 11.4447L198.985 11.2794C201.37 10.2071 202.732 9.07815 204.329 7.75269C204.893 7.2841 205.49 6.79001 206.169 6.26663C207.245 5.43621 208.325 4.73616 209.406 4.24206C210.497 3.74419 211.592 3.45605 212.688 3.45605C213.839 3.45605 214.884 3.91519 215.639 4.65775C216.396 5.40125 216.865 6.42723 216.865 7.55808C216.865 8.58122 216.601 9.35307 216.074 9.99926V10.0012ZM212.738 11.2784C213.501 10.9506 214.071 10.6256 214.443 10.2251C214.801 9.83961 214.981 9.37385 214.981 8.74938C214.981 8.06067 214.654 7.43526 214.127 6.98179C213.592 6.5217 212.85 6.2364 212.03 6.2364C209.481 6.2364 207.405 8.09657 204.985 10.2647C204.552 10.6521 204.108 11.0498 203.634 11.4617C204.108 11.8727 204.552 12.2713 204.985 12.6587C207.405 14.8278 209.482 16.687 212.03 16.687C212.85 16.687 213.592 16.4017 214.127 15.9426C214.654 15.4891 214.981 14.8637 214.981 14.175C214.981 13.5505 214.801 13.0848 214.443 12.6993C214.071 12.2987 213.501 11.9738 212.738 11.6459L212.312 11.4627L212.738 11.2784Z" fill="#6E64AC"/>
<path d="M223.994 11.4645C225.311 10.7532 225.804 9.04508 224.604 7.88117C224.268 7.55524 223.823 7.35684 223.336 7.35684C221.435 7.35684 220.248 9.94447 217.128 11.4645C220.168 12.7635 221.435 15.5722 223.336 15.5722C223.761 15.5722 224.154 15.4211 224.471 15.166C225.764 14.124 225.398 12.2222 223.994 11.4645Z" fill="#6E64AC"/>
<path fill-rule="evenodd" clip-rule="evenodd" d="M284.198 11.4649C284.198 12.1962 284.805 12.7932 285.568 12.7932C286.318 12.7932 286.913 12.1962 286.913 11.4649C286.913 10.728 286.318 10.131 285.568 10.131C284.805 10.131 284.198 10.728 284.198 11.4649Z" fill="#6E64AC"/>
<path fill-rule="evenodd" clip-rule="evenodd" d="M272.798 6.78552C273.761 8.44542 275.232 9.48935 276.823 10.6835C275.286 9.38543 274.859 7.87386 274.238 6.23475C273.361 3.92299 271.908 4.87433 272.725 6.6287L272.798 6.78552Z" fill="#6E64AC"/>
<path fill-rule="evenodd" clip-rule="evenodd" d="M272.798 16.183C273.761 14.5231 275.232 13.4791 276.823 12.285C275.286 13.5831 274.859 15.0946 274.238 16.7328C273.361 19.0446 271.908 18.0942 272.725 16.3388L272.798 16.183Z" fill="#6E64AC"/>
<path fill-rule="evenodd" clip-rule="evenodd" d="M258.911 10.0012C259.367 10.5614 260.017 11.0186 260.861 11.4617C260.016 11.9048 259.367 12.362 258.911 12.9223C258.384 13.5694 258.121 14.3413 258.121 15.3635C258.121 16.4952 258.589 17.5203 259.345 18.2628C260.102 19.0063 261.146 19.4655 262.297 19.4655C264.446 19.4655 266.581 18.362 268.709 16.739C269.354 16.2468 269.931 15.7895 270.463 15.3691C272.178 14.0125 273.419 13.0309 276.014 11.6365L276.37 11.4447L276 11.2794C273.615 10.2071 272.254 9.07815 270.656 7.75269C270.092 7.2841 269.496 6.79001 268.817 6.26663C267.741 5.43621 266.661 4.73616 265.58 4.24206C264.488 3.74419 263.394 3.45605 262.297 3.45605C261.146 3.45605 260.102 3.91519 259.346 4.65775C258.589 5.40125 258.121 6.42723 258.121 7.55808C258.121 8.58122 258.384 9.35307 258.911 9.99926V10.0012ZM262.247 11.2784C261.485 10.9506 260.914 10.6256 260.542 10.2251C260.184 9.83961 260.005 9.37385 260.005 8.74938C260.005 8.06067 260.332 7.43526 260.859 6.98179C261.393 6.5217 262.135 6.2364 262.955 6.2364C265.505 6.2364 267.58 8.09657 270 10.2647C270.433 10.6521 270.878 11.0498 271.352 11.4617C270.878 11.8727 270.433 12.2713 270 12.6587C267.58 14.8278 265.504 16.687 262.955 16.687C262.135 16.687 261.393 16.4017 260.859 15.9426C260.332 15.4891 260.005 14.8637 260.005 14.175C260.005 13.5505 260.184 13.0848 260.542 12.6993C260.914 12.2987 261.485 11.9738 262.247 11.6459L262.673 11.4627L262.247 11.2784Z" fill="#6E64AC"/>
<path d="M250.987 11.4645C249.671 10.7532 249.177 9.04508 250.378 7.88117C250.714 7.55524 251.158 7.35684 251.646 7.35684C253.546 7.35684 254.734 9.94447 257.854 11.4645C254.814 12.7635 253.546 15.5722 251.646 15.5722C251.221 15.5722 250.828 15.4211 250.511 15.166C249.218 14.124 249.584 12.2222 250.987 11.4645Z" fill="#6E64AC"/>
<path d="M263.859 11.4682C263.021 11.0157 262.708 9.92921 263.471 9.18854C263.685 8.9807 263.967 8.85505 264.278 8.85505C265.487 8.85505 265.916 10.4016 267.8 11.4682C266 12.5934 265.487 14.0813 264.278 14.0813C264.008 14.0813 263.758 13.9849 263.557 13.8225C262.734 13.1593 262.965 11.95 263.859 11.4682Z" fill="#6E64AC"/>
<path d="M211.314 11.4682C212.152 11.0157 212.465 9.92921 211.702 9.18854C211.488 8.9807 211.206 8.85505 210.895 8.85505C209.686 8.85505 209.257 10.4016 207.373 11.4682C209.172 12.5934 209.686 14.0813 210.895 14.0813C211.165 14.0813 211.415 13.9849 211.617 13.8225C212.44 13.1593 212.207 11.95 211.314 11.4682Z" fill="#6E64AC"/>
<path d="M240.901 8.08047L248.751 11.4645L240.901 14.8485L237.456 22.5604L234.012 14.8485L226.16 11.4645L234.012 8.08047L237.456 0.367676L240.901 8.08047ZM237.456 6.5141L235.92 9.95482L232.418 11.4645L235.92 12.9742L237.456 16.4149L238.993 12.9742L242.496 11.4645L238.993 9.95482L237.456 6.5141Z" fill="#6E64AC"/>
<path fill-rule="evenodd" clip-rule="evenodd" d="M242.087 2.01197L244.565 3.48197L247.043 2.01197L245.482 4.34451L247.043 6.67706L244.565 5.208L242.087 6.67706L243.648 4.34451L242.087 2.01197Z" fill="#6E64AC"/>
<path fill-rule="evenodd" clip-rule="evenodd" d="M242.138 16.3387L244.617 17.8078L247.094 16.3387L245.533 18.6713L247.094 21.0038L244.617 19.5338L242.138 21.0038L243.7 18.6713L242.138 16.3387Z" fill="#6E64AC"/>
<path fill-rule="evenodd" clip-rule="evenodd" d="M227.815 2.01144L230.293 3.48145L232.771 2.01144L231.21 4.34399L232.771 6.67653L230.293 5.20747L227.815 6.67653L229.377 4.34399L227.815 2.01144Z" fill="#6E64AC"/>
<path fill-rule="evenodd" clip-rule="evenodd" d="M227.815 16.1953L230.293 17.6643L232.771 16.1953L231.21 18.5278L232.771 20.8603L230.293 19.3903L227.815 20.8603L229.377 18.5278L227.815 16.1953Z" fill="#6E64AC"/>
<path fill-rule="evenodd" clip-rule="evenodd" d="M282.175 11.4604C282.175 12.4958 281.319 13.3489 280.252 13.3489C279.204 13.3489 278.33 12.4958 278.33 11.4604C278.33 10.4193 279.204 9.57183 280.252 9.57183C281.319 9.57183 282.175 10.4183 282.175 11.4604Z" fill="#6E64AC"/>
<path fill-rule="evenodd" clip-rule="evenodd" d="M179.059 10.8642L1.00159 10.859C0.72907 10.859 0.508153 11.0799 0.508155 11.3524C0.508157 11.6249 0.729078 11.8458 1.0016 11.8459L179.058 11.8511L179.059 10.8642ZM298.648 11.8546L475.392 11.8597C475.664 11.8597 475.885 11.6388 475.885 11.3663C475.885 11.0938 475.664 10.8729 475.392 10.8729L298.648 10.8677L298.648 11.8546Z" fill="#6E64AC"/>
</svg>
