<svg width="182" height="59" viewBox="0 0 182 59" fill="none" xmlns="http://www.w3.org/2000/svg">
<rect x="0.467946" y="0.467946" width="181.064" height="58.0641" rx="6.0833" fill="#152361"/>
<path d="M109.509 29.2524V31.3966H108.165V32.8027H109.509V37.5804C109.509 39.2118 110.247 39.8644 112.104 39.8644C112.43 39.8644 112.741 39.8256 113.013 39.779V38.3884C112.78 38.4117 112.632 38.4272 112.376 38.4272C111.544 38.4272 111.179 38.0388 111.179 37.1532V32.8027H113.013V31.3966H111.179V29.2524H109.509Z" fill="#EBDCFF"/>
<path d="M117.742 39.9809C120.213 39.9809 121.728 38.3262 121.728 35.5839C121.728 32.8571 120.205 31.1946 117.742 31.1946C115.272 31.1946 113.749 32.8571 113.749 35.5839C113.749 38.3262 115.264 39.9809 117.742 39.9809ZM117.742 38.4971C116.29 38.4971 115.474 37.4328 115.474 35.5839C115.474 33.7505 116.29 32.6784 117.742 32.6784C119.187 32.6784 120.011 33.7505 120.011 35.5839C120.011 37.4251 119.187 38.4971 117.742 38.4971Z" fill="#EBDCFF"/>
<path d="M123.024 39.8178H124.694V34.8226C124.694 33.634 125.588 32.8338 126.854 32.8338C127.149 32.8338 127.646 32.8882 127.786 32.9348V31.2878C127.607 31.2412 127.289 31.2179 127.04 31.2179C125.937 31.2179 124.997 31.8239 124.756 32.6551H124.632V31.3578H123.024V39.8178Z" fill="#EBDCFF"/>
<path d="M131.933 32.6163C133.168 32.6163 133.976 33.4786 134.015 34.807H129.742C129.836 33.4864 130.698 32.6163 131.933 32.6163ZM134.007 37.5338C133.697 38.1942 133.005 38.5593 131.995 38.5593C130.659 38.5593 129.797 37.6193 129.742 36.1355V36.0422H135.717V35.4596C135.717 32.8027 134.295 31.1946 131.941 31.1946C129.556 31.1946 128.041 32.9115 128.041 35.615C128.041 38.3185 129.525 39.9809 131.949 39.9809C133.883 39.9809 135.235 39.0487 135.616 37.5338H134.007Z" fill="#EBDCFF"/>
<path d="M98.5556 36.6936C98.6844 38.771 100.416 40.0996 102.992 40.0996C105.746 40.0996 107.469 38.7066 107.469 36.4843C107.469 34.737 106.487 33.7708 104.103 33.2152L102.823 32.9012C101.309 32.5469 100.697 32.0718 100.697 31.2425C100.697 30.1957 101.648 29.5113 103.073 29.5113C104.425 29.5113 105.36 30.1796 105.529 31.2505H107.284C107.179 29.2939 105.456 27.917 103.097 27.917C100.561 27.917 98.8696 29.2939 98.8696 31.3632C98.8696 33.0703 99.8278 34.0848 101.929 34.576L103.427 34.9383C104.965 35.3006 105.641 35.8321 105.641 36.7178C105.641 37.7484 104.578 38.4973 103.129 38.4973C101.575 38.4973 100.496 37.7968 100.343 36.6936H98.5556Z" fill="#EBDCFF"/>
<path d="M81.2534 31.2179C80.1037 31.2179 79.1093 31.7928 78.5966 32.7561H78.4723V31.3578H76.8642V42.6301H78.5344V38.536H78.6665C79.1093 39.4294 80.0648 39.9576 81.269 39.9576C83.4054 39.9576 84.7649 38.2718 84.7649 35.5839C84.7649 32.8959 83.4054 31.2179 81.2534 31.2179ZM80.7796 38.4583C79.3812 38.4583 78.5033 37.3551 78.5033 35.5917C78.5033 33.8204 79.3812 32.7173 80.7873 32.7173C82.2012 32.7173 83.048 33.7971 83.048 35.5839C83.048 37.3784 82.2012 38.4583 80.7796 38.4583Z" fill="#EBDCFF"/>
<path d="M90.6094 31.2179C89.4596 31.2179 88.4652 31.7928 87.9525 32.7561H87.8282V31.3578H86.2201V42.6301H87.8904V38.536H88.0224C88.4652 39.4294 89.4208 39.9576 90.6249 39.9576C92.7613 39.9576 94.1208 38.2718 94.1208 35.5839C94.1208 32.8959 92.7613 31.2179 90.6094 31.2179ZM90.1355 38.4583C88.7371 38.4583 87.8593 37.3551 87.8593 35.5917C87.8593 33.8204 88.7371 32.7173 90.1433 32.7173C91.5571 32.7173 92.4039 33.7971 92.4039 35.5839C92.4039 37.3784 91.5571 38.4583 90.1355 38.4583Z" fill="#EBDCFF"/>
<path d="M73.8674 39.8178H75.7838L71.5887 28.1988H69.6482L65.4531 39.8178H67.3051L68.376 36.7339H72.8046L73.8674 39.8178ZM70.5259 30.3084H70.6627L72.3456 35.2201H68.835L70.5259 30.3084Z" fill="#EBDCFF"/>
<path d="M66.5754 19.4345V25.0396H68.5992C70.2694 25.0396 71.2366 24.0102 71.2366 22.2195C71.2366 20.4561 70.2617 19.4345 68.5992 19.4345H66.5754ZM67.4455 20.2269H68.5021C69.6635 20.2269 70.351 20.9649 70.351 22.2312C70.351 23.5169 69.6751 24.2472 68.5021 24.2472H67.4455V20.2269Z" fill="#EBDCFF"/>
<path d="M74.1988 25.1211C75.434 25.1211 76.1915 24.2938 76.1915 22.9226C76.1915 21.5592 75.4301 20.728 74.1988 20.728C72.9636 20.728 72.2023 21.5592 72.2023 22.9226C72.2023 24.2938 72.9597 25.1211 74.1988 25.1211ZM74.1988 24.3792C73.4724 24.3792 73.0646 23.8471 73.0646 22.9226C73.0646 22.0059 73.4724 21.4699 74.1988 21.4699C74.9213 21.4699 75.333 22.0059 75.333 22.9226C75.333 23.8432 74.9213 24.3792 74.1988 24.3792Z" fill="#EBDCFF"/>
<path d="M82.6418 20.8095H81.8066L81.0531 24.0374H80.987L80.117 20.8095H79.3168L78.4467 24.0374H78.3846L77.6271 20.8095H76.7803L77.9456 25.0396H78.8041L79.6741 21.9243H79.7402L80.6142 25.0396H81.4804L82.6418 20.8095Z" fill="#EBDCFF"/>
<path d="M83.6035 25.0396H84.4387V22.5652C84.4387 21.9049 84.831 21.4932 85.4486 21.4932C86.0662 21.4932 86.3614 21.8311 86.3614 22.5109V25.0396H87.1965V22.3011C87.1965 21.2951 86.676 20.728 85.7321 20.728C85.0951 20.728 84.6756 21.0115 84.4697 21.4815H84.4076V20.8095H83.6035V25.0396Z" fill="#EBDCFF"/>
<path d="M88.5118 25.0396H89.3469V19.1587H88.5118V25.0396Z" fill="#EBDCFF"/>
<path d="M92.4877 25.1211C93.723 25.1211 94.4804 24.2938 94.4804 22.9226C94.4804 21.5592 93.7191 20.728 92.4877 20.728C91.2525 20.728 90.4912 21.5592 90.4912 22.9226C90.4912 24.2938 91.2486 25.1211 92.4877 25.1211ZM92.4877 24.3792C91.7614 24.3792 91.3535 23.8471 91.3535 22.9226C91.3535 22.0059 91.7614 21.4699 92.4877 21.4699C93.2102 21.4699 93.622 22.0059 93.622 22.9226C93.622 23.8432 93.2102 24.3792 92.4877 24.3792Z" fill="#EBDCFF"/>
<path d="M96.9687 24.4064C96.5142 24.4064 96.1841 24.185 96.1841 23.8043C96.1841 23.4314 96.4482 23.2333 97.0308 23.1945L98.0641 23.1285V23.4819C98.0641 24.0063 97.598 24.4064 96.9687 24.4064ZM96.7551 25.1095C97.3105 25.1095 97.7727 24.8686 98.0252 24.4453H98.0913V25.0396H98.8953V22.1496C98.8953 21.2562 98.2971 20.728 97.2367 20.728C96.2773 20.728 95.5936 21.1941 95.5082 21.9204H96.3161C96.4094 21.6214 96.7317 21.4504 97.1979 21.4504C97.7689 21.4504 98.0641 21.7029 98.0641 22.1496V22.5147L96.9182 22.5808C95.9122 22.6429 95.345 23.0819 95.345 23.8432C95.345 24.6162 95.9393 25.1095 96.7551 25.1095Z" fill="#EBDCFF"/>
<path d="M101.729 25.1095C102.312 25.1095 102.805 24.8337 103.058 24.3714H103.124V25.0396H103.924V19.1587H103.089V21.4815H103.027C102.798 21.0154 102.308 20.7396 101.729 20.7396C100.661 20.7396 99.9736 21.5864 99.9736 22.9226C99.9736 24.2627 100.653 25.1095 101.729 25.1095ZM101.966 21.4893C102.665 21.4893 103.104 22.0447 103.104 22.9265C103.104 23.8121 102.669 24.3598 101.966 24.3598C101.259 24.3598 100.836 23.8199 100.836 22.9226C100.836 22.0331 101.263 21.4893 101.966 21.4893Z" fill="#EBDCFF"/>
<path d="M109.339 25.1211C110.575 25.1211 111.332 24.2938 111.332 22.9226C111.332 21.5592 110.571 20.728 109.339 20.728C108.104 20.728 107.343 21.5592 107.343 22.9226C107.343 24.2938 108.1 25.1211 109.339 25.1211ZM109.339 24.3792C108.613 24.3792 108.205 23.8471 108.205 22.9226C108.205 22.0059 108.613 21.4699 109.339 21.4699C110.062 21.4699 110.474 22.0059 110.474 22.9226C110.474 23.8432 110.062 24.3792 109.339 24.3792Z" fill="#EBDCFF"/>
<path d="M112.438 25.0396H113.273V22.5652C113.273 21.9049 113.665 21.4932 114.283 21.4932C114.9 21.4932 115.195 21.8311 115.195 22.5109V25.0396H116.031V22.3011C116.031 21.2951 115.51 20.728 114.566 20.728C113.929 20.728 113.51 21.0115 113.304 21.4815H113.242V20.8095H112.438V25.0396Z" fill="#EBDCFF"/>
<path d="M119.877 19.7569V20.8289H119.205V21.532H119.877V23.9209C119.877 24.7366 120.246 25.0629 121.174 25.0629C121.337 25.0629 121.493 25.0434 121.629 25.0201V24.3248C121.512 24.3365 121.438 24.3443 121.31 24.3443C120.895 24.3443 120.712 24.15 120.712 23.7072V21.532H121.629V20.8289H120.712V19.7569H119.877Z" fill="#EBDCFF"/>
<path d="M122.75 25.0396H123.585V22.5691C123.585 21.9282 123.965 21.4971 124.649 21.4971C125.24 21.4971 125.554 21.8389 125.554 22.5147V25.0396H126.389V22.3089C126.389 21.3028 125.834 20.7318 124.933 20.7318C124.296 20.7318 123.849 21.0154 123.643 21.4893H123.577V19.1587H122.75V25.0396Z" fill="#EBDCFF"/>
<path d="M129.402 21.4388C130.02 21.4388 130.424 21.8699 130.443 22.5342H128.307C128.353 21.8738 128.784 21.4388 129.402 21.4388ZM130.439 23.8976C130.284 24.2277 129.938 24.4103 129.433 24.4103C128.765 24.4103 128.334 23.9403 128.307 23.1984V23.1518H131.294V22.8604C131.294 21.532 130.583 20.728 129.406 20.728C128.213 20.728 127.456 21.5864 127.456 22.9381C127.456 24.2899 128.198 25.1211 129.41 25.1211C130.377 25.1211 131.053 24.655 131.243 23.8976H130.439Z" fill="#EBDCFF"/>
<path d="M56.3907 30.2818C56.411 28.7086 57.2559 27.22 58.5962 26.3959C57.7506 25.1883 56.3344 24.4227 54.8609 24.3766C53.2893 24.2116 51.7657 25.317 50.9649 25.317C50.1485 25.317 48.9155 24.393 47.5877 24.4203C45.857 24.4762 44.2435 25.4602 43.4015 26.9733C41.5915 30.107 42.9416 34.7126 44.6754 37.2457C45.5429 38.4861 46.5568 39.8716 47.8833 39.8225C49.1815 39.7687 49.6663 38.9947 51.2333 38.9947C52.7857 38.9947 53.2406 39.8225 54.5941 39.7913C55.987 39.7686 56.8647 38.5454 57.7017 37.2932C58.325 36.4094 58.8046 35.4326 59.1228 34.399C57.4858 33.7066 56.3926 32.0592 56.3907 30.2818Z" fill="#EBDCFF"/>
<path d="M53.8341 22.7107C54.5936 21.7989 54.9678 20.627 54.8772 19.4438C53.7169 19.5657 52.645 20.1203 51.8753 20.9971C51.1225 21.8537 50.7308 23.005 50.8049 24.143C51.9656 24.1549 53.1068 23.6154 53.8341 22.7107Z" fill="#EBDCFF"/>
<rect x="0.467946" y="0.467946" width="181.064" height="58.0641" rx="6.0833" stroke="#EBDCFF" stroke-width="0.935893"/>
</svg>
