<svg width="182" height="59" viewBox="0 0 182 59" fill="none" xmlns="http://www.w3.org/2000/svg">
<rect x="0.467946" y="0.467946" width="181.064" height="58.0641" rx="4.21152" fill="#152361"/>
<path d="M90.865 31.6385C88.6638 31.6385 86.8697 33.3128 86.8697 35.6189C86.8697 37.9109 88.6638 39.5992 90.865 39.5992C93.0672 39.5992 94.8613 37.9109 94.8613 35.6189C94.8603 33.3128 93.0662 31.6385 90.865 31.6385ZM90.865 38.0325C89.6586 38.0325 88.6189 37.0377 88.6189 35.6198C88.6189 34.187 89.6596 33.2071 90.865 33.2071C92.0714 33.2071 93.1112 34.187 93.1112 35.6198C93.1112 37.0368 92.0714 38.0325 90.865 38.0325ZM82.1481 31.6385C79.9469 31.6385 78.1528 33.3128 78.1528 35.6189C78.1528 37.9109 79.9469 39.5992 82.1481 39.5992C84.3503 39.5992 86.1444 37.9109 86.1444 35.6189C86.1444 33.3128 84.3503 31.6385 82.1481 31.6385ZM82.1481 38.0325C80.9417 38.0325 79.902 37.0377 79.902 35.6198C79.902 34.187 80.9427 33.2071 82.1481 33.2071C83.3545 33.2071 84.3943 34.187 84.3943 35.6198C84.3952 37.0368 83.3545 38.0325 82.1481 38.0325ZM71.7803 32.8608V34.5492H75.8215C75.7007 35.4991 75.3844 36.1926 74.9015 36.6746C74.3137 37.2623 73.3938 37.9109 71.7803 37.9109C69.2927 37.9109 67.3479 35.9053 67.3479 33.4177C67.3479 30.9301 69.2927 28.9244 71.7803 28.9244C73.1224 28.9244 74.1022 29.4523 74.8257 30.1308L76.0171 28.9394C75.0063 27.9745 73.6652 27.2361 71.7803 27.2361C68.3727 27.2361 65.5079 30.0101 65.5079 33.4177C65.5079 36.8252 68.3727 39.5992 71.7803 39.5992C73.6193 39.5992 75.0072 38.9956 76.0919 37.865C77.2075 36.7494 77.5547 35.1809 77.5547 33.9146C77.5547 33.5234 77.5248 33.1612 77.464 32.8599H71.7803V32.8608ZM114.184 34.172C113.852 33.2829 112.842 31.6385 110.776 31.6385C108.726 31.6385 107.021 33.252 107.021 35.6189C107.021 37.85 108.711 39.5992 110.972 39.5992C112.796 39.5992 113.851 38.4836 114.289 37.8351L112.932 36.9301C112.48 37.5936 111.862 38.0307 110.972 38.0307C110.083 38.0307 109.449 37.6236 109.042 36.8243L114.364 34.6231L114.184 34.172ZM108.756 35.4991C108.711 33.9605 109.947 33.1771 110.837 33.1771C111.53 33.1771 112.118 33.5243 112.315 34.0213L108.756 35.4991ZM104.429 39.3587H106.177V27.6591H104.429V39.3587ZM101.563 32.5286H101.503C101.111 32.0606 100.357 31.6385 99.4078 31.6385C97.4172 31.6385 95.5931 33.3877 95.5931 35.6348C95.5931 37.866 97.4172 39.6002 99.4078 39.6002C100.358 39.6002 101.111 39.1781 101.503 38.6961H101.563V39.2689C101.563 40.7916 100.749 41.6058 99.4378 41.6058C98.3671 41.6058 97.7036 40.8374 97.4322 40.1888L95.9095 40.8224C96.3465 41.8772 97.507 43.1743 99.4378 43.1743C101.488 43.1743 103.223 41.968 103.223 39.0274V31.8809H101.564V32.5286H101.563ZM99.5585 38.0325C98.3522 38.0325 97.3423 37.0218 97.3423 35.6348C97.3423 34.2319 98.3522 33.2071 99.5585 33.2071C100.749 33.2071 101.684 34.2319 101.684 35.6348C101.684 37.0218 100.749 38.0325 99.5585 38.0325ZM122.377 27.6591H118.192V39.3587H119.938V34.9263H122.376C124.311 34.9263 126.215 33.5253 126.215 31.2932C126.215 29.0611 124.312 27.6591 122.377 27.6591ZM122.421 33.2979H119.938V29.2876H122.421C123.727 29.2876 124.468 30.3685 124.468 31.2932C124.468 32.1991 123.727 33.2979 122.421 33.2979ZM133.214 31.6179C131.95 31.6179 130.64 32.1748 130.099 33.4092L131.648 34.0559C131.98 33.4092 132.597 33.1977 133.244 33.1977C134.147 33.1977 135.065 33.7396 135.08 34.7026V34.8234C134.764 34.6427 134.086 34.3723 133.259 34.3723C131.589 34.3723 129.887 35.2904 129.887 37.0059C129.887 38.5716 131.257 39.5796 132.792 39.5796C133.966 39.5796 134.613 39.0527 135.02 38.435H135.079V39.3381H136.766V34.8524C136.767 32.7766 135.215 31.6179 133.214 31.6179ZM133.003 38.0297C132.432 38.0297 131.633 37.7434 131.633 37.0358C131.633 36.1327 132.627 35.7864 133.486 35.7864C134.252 35.7864 134.614 35.9521 135.08 36.1776C134.945 37.2623 134.012 38.0297 133.003 38.0297ZM142.907 31.8734L140.905 36.946H140.845L138.768 31.8734H136.887L140.002 38.9628L138.226 42.9067H140.047L144.849 31.8734H142.907ZM127.179 39.3587H128.924V27.6591H127.179V39.3587Z" fill="#EBDCFF"/>
<path d="M71.4757 20.8687C71.4757 21.653 71.2436 22.2772 70.7785 22.7433C70.2506 23.2973 69.5618 23.5743 68.7158 23.5743C67.9053 23.5743 67.2155 23.2936 66.6493 22.732C66.0822 22.1696 65.7986 21.4733 65.7986 20.6422C65.7986 19.8102 66.0822 19.1139 66.6493 18.5523C67.2155 17.9899 67.9053 17.7091 68.7158 17.7091C69.1182 17.7091 69.5028 17.7877 69.8678 17.944C70.2338 18.1012 70.5267 18.3099 70.7457 18.5711L70.2525 19.0652C69.8809 18.6207 69.369 18.3989 68.7148 18.3989C68.1233 18.3989 67.6123 18.6066 67.1809 19.0222C66.7494 19.4377 66.5342 19.9777 66.5342 20.6413C66.5342 21.3048 66.7494 21.8448 67.1809 22.2603C67.6123 22.6759 68.1233 22.8837 68.7148 22.8837C69.3419 22.8837 69.865 22.675 70.2834 22.2566C70.5548 21.9843 70.712 21.6052 70.7541 21.1195H68.7148V20.4447H71.4355C71.4635 20.5917 71.4757 20.733 71.4757 20.8687Z" fill="#EBDCFF"/>
<path d="M75.7903 18.5234H73.2334V20.3035H75.5394V20.9782H73.2334V22.7583H75.7903V23.449H72.5118V17.8336H75.7903V18.5234Z" fill="#EBDCFF"/>
<path d="M78.8327 23.449H78.1112V18.5234H76.5426V17.8336H80.4013V18.5234H78.8327V23.449Z" fill="#EBDCFF"/>
<path d="M83.193 23.449V17.8336H83.9146V23.449H83.193Z" fill="#EBDCFF"/>
<path d="M87.1146 23.449H86.393V18.5234H84.8244V17.8336H88.6831V18.5234H87.1146V23.449Z" fill="#EBDCFF"/>
<path d="M95.9876 22.7237C95.4354 23.2908 94.7494 23.5744 93.9286 23.5744C93.1078 23.5744 92.4218 23.2908 91.8706 22.7237C91.3184 22.1565 91.0432 21.4621 91.0432 20.6413C91.0432 19.8205 91.3184 19.1261 91.8706 18.5589C92.4218 17.9918 93.1078 17.7073 93.9286 17.7073C94.7447 17.7073 95.4298 17.9927 95.9838 18.5627C96.5379 19.1326 96.8149 19.8252 96.8149 20.6413C96.8149 21.4621 96.5388 22.1565 95.9876 22.7237ZM92.4031 22.2529C92.8186 22.6741 93.3268 22.8837 93.9286 22.8837C94.5304 22.8837 95.0395 22.6731 95.4541 22.2529C95.8696 21.8318 96.0783 21.2946 96.0783 20.6413C96.0783 19.988 95.8696 19.4508 95.4541 19.0297C95.0395 18.6085 94.5304 18.3989 93.9286 18.3989C93.3268 18.3989 92.8186 18.6095 92.4031 19.0297C91.9885 19.4508 91.7798 19.988 91.7798 20.6413C91.7798 21.2946 91.9885 21.8318 92.4031 22.2529Z" fill="#EBDCFF"/>
<path d="M97.8275 23.449V17.8336H98.7054L101.434 22.2014H101.465L101.434 21.1195V17.8336H102.156V23.449H101.403L98.5473 18.8687H98.5164L98.5473 19.9506V23.449H97.8275Z" fill="#EBDCFF"/>
<path d="M71.4757 20.8687C71.4757 21.653 71.2436 22.2772 70.7785 22.7433C70.2506 23.2973 69.5618 23.5743 68.7158 23.5743C67.9053 23.5743 67.2155 23.2936 66.6493 22.732C66.0822 22.1696 65.7986 21.4733 65.7986 20.6422C65.7986 19.8102 66.0822 19.1139 66.6493 18.5523C67.2155 17.9899 67.9053 17.7091 68.7158 17.7091C69.1182 17.7091 69.5028 17.7877 69.8678 17.944C70.2338 18.1012 70.5267 18.3099 70.7457 18.5711L70.2525 19.0652C69.8809 18.6207 69.369 18.3989 68.7148 18.3989C68.1233 18.3989 67.6123 18.6066 67.1809 19.0222C66.7494 19.4377 66.5342 19.9777 66.5342 20.6413C66.5342 21.3048 66.7494 21.8448 67.1809 22.2603C67.6123 22.6759 68.1233 22.8837 68.7148 22.8837C69.3419 22.8837 69.865 22.675 70.2834 22.2566C70.5548 21.9843 70.712 21.6052 70.7541 21.1195H68.7148V20.4447H71.4355C71.4635 20.5917 71.4757 20.733 71.4757 20.8687Z" stroke="#EBDCFF" stroke-width="0.187179" stroke-miterlimit="10"/>
<path d="M75.7903 18.5234H73.2334V20.3035H75.5394V20.9782H73.2334V22.7583H75.7903V23.449H72.5118V17.8336H75.7903V18.5234Z" stroke="#EBDCFF" stroke-width="0.187179" stroke-miterlimit="10"/>
<path d="M78.8327 23.449H78.1112V18.5234H76.5426V17.8336H80.4013V18.5234H78.8327V23.449Z" stroke="#EBDCFF" stroke-width="0.187179" stroke-miterlimit="10"/>
<path d="M83.193 23.449V17.8336H83.9146V23.449H83.193Z" stroke="#EBDCFF" stroke-width="0.187179" stroke-miterlimit="10"/>
<path d="M87.1146 23.449H86.393V18.5234H84.8244V17.8336H88.6831V18.5234H87.1146V23.449Z" stroke="#EBDCFF" stroke-width="0.187179" stroke-miterlimit="10"/>
<path d="M95.9876 22.7237C95.4354 23.2908 94.7494 23.5744 93.9286 23.5744C93.1078 23.5744 92.4218 23.2908 91.8706 22.7237C91.3184 22.1565 91.0432 21.4621 91.0432 20.6413C91.0432 19.8205 91.3184 19.1261 91.8706 18.5589C92.4218 17.9918 93.1078 17.7073 93.9286 17.7073C94.7447 17.7073 95.4298 17.9927 95.9838 18.5627C96.5379 19.1326 96.8149 19.8252 96.8149 20.6413C96.8149 21.4621 96.5388 22.1565 95.9876 22.7237ZM92.4031 22.2529C92.8186 22.6741 93.3268 22.8837 93.9286 22.8837C94.5304 22.8837 95.0395 22.6731 95.4541 22.2529C95.8696 21.8318 96.0783 21.2946 96.0783 20.6413C96.0783 19.988 95.8696 19.4508 95.4541 19.0297C95.0395 18.6085 94.5304 18.3989 93.9286 18.3989C93.3268 18.3989 92.8186 18.6095 92.4031 19.0297C91.9885 19.4508 91.7798 19.988 91.7798 20.6413C91.7798 21.2946 91.9885 21.8318 92.4031 22.2529Z" stroke="#EBDCFF" stroke-width="0.187179" stroke-miterlimit="10"/>
<path d="M97.8275 23.449V17.8336H98.7054L101.434 22.2014H101.465L101.434 21.1195V17.8336H102.156V23.449H101.403L98.5473 18.8687H98.5164L98.5473 19.9506V23.449H97.8275Z" stroke="#EBDCFF" stroke-width="0.187179" stroke-miterlimit="10"/>
<path fill-rule="evenodd" clip-rule="evenodd" d="M36.6027 18.738C36.4923 18.9883 36.4313 19.295 36.4313 19.6516V40.3498C36.4313 40.7075 36.4924 41.0144 36.6032 41.2647L47.8655 30.0007L36.6027 18.738ZM37.2537 41.9377C37.6712 42.1162 38.2157 42.0595 38.8094 41.7228L52.0586 34.1939L48.5272 30.6625L37.2537 41.9377ZM52.9032 33.7149L57.0602 31.3531C58.3677 30.6091 58.3677 29.3933 57.0602 28.6502L52.9018 26.2873L49.189 30.0007L52.9032 33.7149ZM52.0578 25.8078L38.8094 18.2796C38.2154 17.9421 37.6707 17.8858 37.2532 18.0649L48.5272 29.3389L52.0578 25.8078Z" fill="#EBDCFF"/>
<rect x="0.467946" y="0.467946" width="181.064" height="58.0641" rx="4.21152" stroke="#EBDCFF" stroke-width="0.935893"/>
</svg>
