<svg width="203" height="46" viewBox="0 0 203 46" fill="none" xmlns="http://www.w3.org/2000/svg">
<path fill-rule="evenodd" clip-rule="evenodd" d="M6.17961 23.2331C6.17961 24.715 4.94787 25.925 3.40236 25.925C1.88218 25.925 0.675781 24.715 0.675781 23.2331C0.675781 21.7398 1.88218 20.5297 3.40236 20.5297C4.94787 20.5297 6.17961 21.7398 6.17961 23.2331Z" fill="#6E64AC"/>
<path fill-rule="evenodd" clip-rule="evenodd" d="M17.8134 23.2239C17.8134 25.3222 16.0789 27.0511 13.9175 27.0511C11.7931 27.0511 10.0216 25.3222 10.0216 23.2239C10.0216 21.114 11.7931 19.3966 13.9175 19.3966C16.0789 19.3966 17.8134 21.1121 17.8134 23.2239Z" fill="#6E64AC"/>
<path fill-rule="evenodd" clip-rule="evenodd" d="M29.2874 13.7499C27.3365 17.1138 24.3547 19.2295 21.1311 21.6495C24.2455 19.0188 25.1108 15.9555 26.3699 12.6337C28.1473 7.94877 31.0922 9.87675 29.4356 13.4321L29.2874 13.7499Z" fill="#6E64AC"/>
<path fill-rule="evenodd" clip-rule="evenodd" d="M29.2874 32.7946C27.3365 29.4307 24.3547 27.3151 21.1311 24.8951C24.2455 27.5257 25.1108 30.589 26.3699 33.9089C28.1473 38.5938 31.0922 36.6678 29.4356 33.1105L29.2874 32.7946Z" fill="#6E64AC"/>
<path fill-rule="evenodd" clip-rule="evenodd" d="M57.4239 20.2667C56.5001 21.402 55.1826 22.3287 53.4734 23.2266C55.1846 24.1245 56.5001 25.0512 57.4239 26.1865C58.4919 27.498 59.0259 29.0622 59.0259 31.1338C59.0259 33.4275 58.0768 35.5048 56.5449 37.0096C55.0111 38.5164 52.8945 39.4469 50.5617 39.4469C46.2077 39.4469 41.881 37.2107 37.568 33.9214C36.2603 32.9239 35.0909 31.9973 34.0131 31.1453C30.5382 28.396 28.0221 26.4067 22.7638 23.5808L22.0427 23.1921L22.7911 22.8571C27.6245 20.684 30.3842 18.3961 33.6214 15.71C34.7654 14.7603 35.9738 13.759 37.3497 12.6983C39.5306 11.0154 41.7193 9.59674 43.9099 8.59541C46.122 7.58643 48.3399 7.00248 50.5617 7.00248C52.8945 7.00248 55.0111 7.93297 56.543 9.43783C58.0768 10.9446 59.0259 13.0238 59.0259 15.3156C59.0259 17.3891 58.4919 18.9533 57.4239 20.2628V20.2667ZM50.663 22.8552C52.2085 22.1908 53.3642 21.5322 54.1185 20.7204C54.8435 19.9393 55.2079 18.9954 55.2079 17.7299C55.2079 16.3341 54.5453 15.0667 53.4773 14.1477C52.3937 13.2153 50.891 12.6371 49.2286 12.6371C44.0619 12.6371 39.8561 16.4069 34.9506 20.8008C34.0736 21.5858 33.1732 22.3918 32.2123 23.2266C33.1732 24.0594 34.0736 24.8674 34.9506 25.6524C39.8561 30.0482 44.0639 33.8161 49.2286 33.8161C50.891 33.8161 52.3937 33.2379 53.4773 32.3074C54.5453 31.3884 55.2079 30.121 55.2079 28.7253C55.2079 27.4597 54.8435 26.5158 54.1185 25.7347C53.3642 24.9229 52.2085 24.2643 50.663 23.5999L49.7996 23.2285L50.663 22.8552Z" fill="#6E64AC"/>
<path d="M73.4752 23.2323C76.1433 21.7907 77.1431 18.3291 74.7108 15.9704C74.0287 15.3098 73.1283 14.9078 72.1402 14.9078C68.289 14.9078 65.8821 20.1518 59.5597 23.2323C65.7203 25.8649 68.289 31.5569 72.1402 31.5569C73.0016 31.5569 73.7987 31.2506 74.4399 30.7336C77.0612 28.6219 76.3187 24.7678 73.4752 23.2323Z" fill="#6E64AC"/>
<path fill-rule="evenodd" clip-rule="evenodd" d="M195.482 23.2331C195.482 24.715 196.713 25.925 198.259 25.925C199.779 25.925 200.985 24.715 200.985 23.2331C200.985 21.7398 199.779 20.5297 198.259 20.5297C196.713 20.5297 195.482 21.7398 195.482 23.2331Z" fill="#6E64AC"/>
<path fill-rule="evenodd" clip-rule="evenodd" d="M172.38 13.7499C174.33 17.1138 177.312 19.2295 180.536 21.6495C177.422 19.0188 176.556 15.9555 175.297 12.6337C173.52 7.94877 170.575 9.87675 172.231 13.4321L172.38 13.7499Z" fill="#6E64AC"/>
<path fill-rule="evenodd" clip-rule="evenodd" d="M172.38 32.7946C174.33 29.4307 177.312 27.3151 180.536 24.8951C177.422 27.5257 176.556 30.589 175.297 33.9089C173.52 38.5938 170.575 36.6678 172.231 33.1105L172.38 32.7946Z" fill="#6E64AC"/>
<path fill-rule="evenodd" clip-rule="evenodd" d="M144.237 20.2667C145.161 21.402 146.478 22.3287 148.187 23.2266C146.476 24.1245 145.161 25.0512 144.237 26.1865C143.169 27.498 142.635 29.0622 142.635 31.1338C142.635 33.4275 143.584 35.5048 145.116 37.0096C146.65 38.5164 148.766 39.4469 151.099 39.4469C155.453 39.4469 159.78 37.2107 164.093 33.9214C165.4 32.9239 166.57 31.9973 167.647 31.1453C171.122 28.396 173.639 26.4067 178.897 23.5808L179.618 23.1921L178.87 22.8571C174.036 20.684 171.276 18.3961 168.039 15.71C166.895 14.7603 165.687 13.759 164.311 12.6983C162.13 11.0154 159.941 9.59674 157.751 8.59541C155.539 7.58643 153.321 7.00248 151.099 7.00248C148.766 7.00248 146.65 7.93297 145.118 9.43783C143.584 10.9446 142.635 13.0238 142.635 15.3156C142.635 17.3891 143.169 18.9533 144.237 20.2628V20.2667ZM150.998 22.8552C149.452 22.1908 148.296 21.5322 147.542 20.7204C146.817 19.9393 146.453 18.9954 146.453 17.7299C146.453 16.3341 147.115 15.0667 148.183 14.1477C149.267 13.2153 150.77 12.6371 152.432 12.6371C157.599 12.6371 161.805 16.4069 166.71 20.8008C167.587 21.5858 168.487 22.3918 169.448 23.2266C168.487 24.0594 167.587 24.8674 166.71 25.6524C161.805 30.0482 157.597 33.8161 152.432 33.8161C150.77 33.8161 149.267 33.2379 148.183 32.3074C147.115 31.3884 146.453 30.121 146.453 28.7253C146.453 27.4597 146.817 26.5158 147.542 25.7347C148.296 24.9229 149.452 24.2643 150.998 23.5999L151.861 23.2285L150.998 22.8552Z" fill="#6E64AC"/>
<path d="M128.178 23.2323C125.51 21.7907 124.51 18.3291 126.943 15.9704C127.625 15.3098 128.525 14.9078 129.513 14.9078C133.364 14.9078 135.771 20.1518 142.094 23.2323C135.933 25.8649 133.364 31.5569 129.513 31.5569C128.652 31.5569 127.855 31.2506 127.214 30.7336C124.592 28.6219 125.335 24.7678 128.178 23.2323Z" fill="#6E64AC"/>
<path d="M154.263 23.2397C152.566 22.3226 151.93 20.1209 153.478 18.6198C153.91 18.1986 154.483 17.944 155.113 17.944C157.563 17.944 158.432 21.0782 162.25 23.2397C158.604 25.52 157.563 28.5354 155.113 28.5354C154.565 28.5354 154.059 28.3401 153.651 28.0108C151.983 26.6668 152.453 24.2161 154.263 23.2397Z" fill="#6E64AC"/>
<path d="M47.7776 23.2397C49.4751 22.3226 50.1104 20.1209 48.563 18.6198C48.1303 18.1986 47.5573 17.944 46.9278 17.944C44.478 17.944 43.6088 21.0782 39.7908 23.2397C43.4373 25.52 44.478 28.5354 46.9278 28.5354C47.4755 28.5354 47.9822 28.3401 48.3915 28.0108C50.0598 26.6668 49.5862 24.2161 47.7776 23.2397Z" fill="#6E64AC"/>
<path d="M107.738 16.3743L123.647 23.2323L107.738 30.0903L100.757 45.719L93.7757 30.0903L77.8645 23.2323L93.7757 16.3743L100.757 0.743652L107.738 16.3743ZM100.757 13.1999L97.6424 20.1728L90.5463 23.2323L97.6424 26.2918L100.757 33.2646L103.871 26.2918L110.969 23.2323L103.871 20.1728L100.757 13.1999Z" fill="#6E64AC"/>
<path fill-rule="evenodd" clip-rule="evenodd" d="M110.141 4.07595L115.164 7.05503L120.184 4.07595L117.021 8.80303L120.184 13.5301L115.164 10.553L110.141 13.5301L113.304 8.80303L110.141 4.07595Z" fill="#6E64AC"/>
<path fill-rule="evenodd" clip-rule="evenodd" d="M110.245 33.1102L115.268 36.0874L120.288 33.1102L117.125 37.8373L120.288 42.5644L115.268 39.5853L110.245 42.5644L113.41 37.8373L110.245 33.1102Z" fill="#6E64AC"/>
<path fill-rule="evenodd" clip-rule="evenodd" d="M81.2178 4.07488L86.2402 7.05396L91.2607 4.07488L88.0976 8.80197L91.2607 13.5291L86.2402 10.5519L81.2178 13.5291L84.3829 8.80197L81.2178 4.07488Z" fill="#6E64AC"/>
<path fill-rule="evenodd" clip-rule="evenodd" d="M81.2178 32.8195L86.2402 35.7967L91.2607 32.8195L88.0976 37.5466L91.2607 42.2737L86.2402 39.2946L81.2178 42.2737L84.3829 37.5466L81.2178 32.8195Z" fill="#6E64AC"/>
<path fill-rule="evenodd" clip-rule="evenodd" d="M191.382 23.2239C191.382 25.3222 189.647 27.0511 187.486 27.0511C185.362 27.0511 183.59 25.3222 183.59 23.2239C183.59 21.114 185.362 19.3966 187.486 19.3966C189.647 19.3966 191.382 21.1121 191.382 23.2239Z" fill="#6E64AC"/>
</svg>
