<svg width="382" height="166" viewBox="0 0 382 166" fill="none" xmlns="http://www.w3.org/2000/svg">
<g clip-path="url(#clip0_52_4902)">
<g opacity="0.3" filter="url(#filter0_f_52_4902)">
<path d="M188.379 53.2809C192.317 46.9859 196.7 45.9795 200.97 45.9795C207.922 45.9795 213.6 51.6066 213.6 58.5415C213.6 71.1034 200.97 83.6654 188.379 96.2273C175.787 83.6654 163.157 71.1034 163.157 58.5415C163.157 51.6066 168.796 45.9795 175.787 45.9795C180.26 45.9795 184.599 47.1561 188.379 53.2809Z" fill="url(#paint0_linear_52_4902)"/>
</g>
<path d="M188.379 57.9796C190.926 52.9462 193.442 50.4453 198.505 50.4453C204.095 50.4453 208.661 54.9406 208.661 60.4805C208.661 70.5158 198.505 80.551 188.379 90.5862C178.253 80.551 168.097 70.5158 168.097 60.4805C168.097 54.9406 172.632 50.4453 178.253 50.4453C183.316 50.4453 185.832 52.9462 188.379 57.9796Z" fill="url(#paint1_radial_52_4902)"/>
<g filter="url(#filter1_f_52_4902)">
<path d="M188.379 57.9796C190.926 52.9462 193.442 50.4453 198.505 50.4453C204.095 50.4453 208.661 54.9406 208.661 60.4805C208.661 70.5158 198.505 80.551 188.379 90.5862C178.253 80.551 168.097 70.5158 168.097 60.4805C168.097 54.9406 172.632 50.4453 178.253 50.4453C183.316 50.4453 185.832 52.9462 188.379 57.9796Z" fill="url(#paint2_radial_52_4902)"/>
</g>
<g filter="url(#filter2_ddddii_52_4902)">
<mask id="path-4-outside-1_52_4902" maskUnits="userSpaceOnUse" x="34.1984" y="28" width="315" height="102" fill="black">
<rect fill="white" x="34.1984" y="28" width="315" height="102"/>
<path d="M345.849 33.6505C344.404 35.6628 343.366 37.7189 342.734 39.8187C342.192 41.9185 341.921 44.6308 341.921 47.9555V84.5709C341.921 86.4082 342.327 87.9393 343.14 89.1642L344.359 90.7391L343.14 92.0514H329.052L298.979 41.7873V74.8593C298.979 78.3589 299.25 81.1587 299.792 83.2585C300.424 85.2708 301.462 87.2394 302.907 89.1642L304.126 90.7391L302.907 92.0514H288.006L287.058 89.6891C289.406 89.0767 291.032 88.508 291.935 87.9831C292.928 87.4581 293.605 86.7144 293.967 85.752C294.328 84.7896 294.508 83.2585 294.508 81.1587V46.5118C294.508 42.6622 294.147 39.8625 293.425 38.1126C292.702 36.3628 291.122 34.4817 288.683 32.4694L289.767 30.7633H307.378L337.586 81.4212V41.656C337.586 39.0313 336.999 37.1939 335.825 36.144C334.741 35.0941 332.438 34.088 328.916 33.1256L329.729 30.7633H345.849L347.068 32.2069L345.849 33.6505Z"/>
<path d="M59.029 92.4618C56.2754 92.4618 53.5218 92.2178 50.803 91.7298C48.0842 91.2419 45.6443 90.5447 43.4833 89.6036C41.3222 88.6974 39.5794 87.5471 38.22 86.1877C36.8606 84.8632 36.1984 83.3296 36.1984 81.6565V71.13H39.2308C40.3114 77.3692 42.4724 81.7959 45.714 84.445C48.9556 87.094 53.3823 88.4185 59.029 88.4185C62.8283 88.4185 65.8956 87.6866 68.1961 86.1877C70.4966 84.7238 71.6817 82.5627 71.6817 79.6697C71.6817 77.1252 70.7406 74.9641 68.8932 73.2562C67.0459 71.5483 64.5014 69.8403 61.2598 68.0975L48.8162 61.44C44.2501 59.035 41.0085 56.5951 39.1263 54.0854C37.244 51.541 36.3029 48.6479 36.3029 45.3366C36.3029 40.6311 38.3246 36.8666 42.4027 34.113C46.4809 31.3594 51.9881 30 58.9244 30C61.7129 30 64.4317 30.2091 67.1853 30.6971C69.904 31.1851 72.344 31.8822 74.505 32.8233C76.6661 33.7296 78.4089 34.8798 79.7683 36.2392C81.0928 37.5637 81.7899 39.0974 81.7899 40.7705V51.297H78.7574C77.6072 45.0578 75.481 40.6311 72.344 37.982C69.1721 35.333 65.0591 34.0433 59.9701 34.0433C56.3451 34.0433 53.4869 34.8101 51.3955 36.3786C49.2693 37.9123 48.2237 40.0385 48.2237 42.7573C48.2237 44.0121 48.4676 45.1275 48.9905 46.1034C49.4785 47.1143 50.2104 48.0205 51.1167 48.8571C52.023 49.6936 53.1035 50.4953 54.3932 51.297C55.6828 52.0638 57.1119 52.8655 58.7501 53.702L71.1589 60.2549C75.7598 62.66 79.106 65.0302 81.2322 67.3307C83.3584 69.6312 84.4041 72.4197 84.4041 75.731C84.4041 80.8896 82.2082 84.9678 77.8512 87.9654C73.4593 90.963 67.1853 92.4618 59.029 92.4618ZM116.646 87.7911C120.166 87.7911 123.024 87.0591 125.186 85.6301C127.381 84.1661 129.368 82.4233 131.111 80.332L134.248 82.3885C133.516 83.3993 132.61 84.4798 131.564 85.5603C130.518 86.6757 129.229 87.6866 127.73 88.6277C126.196 89.5688 124.419 90.3356 122.362 90.9282C120.306 91.5207 117.901 91.8344 115.147 91.8344C111.557 91.8344 108.35 91.2767 105.492 90.1613C102.634 89.0459 100.194 87.5123 98.1722 85.5255C96.1506 83.5387 94.582 81.2382 93.5015 78.5543C92.421 75.9053 91.8981 72.9774 91.8981 69.8055C91.8981 66.2153 92.4558 63.0434 93.6061 60.2549C94.7563 57.5013 96.3248 55.2357 98.3116 53.3883C100.298 51.5758 102.634 50.1816 105.353 49.2056C108.036 48.2645 110.964 47.7765 114.136 47.7765C117.308 47.7765 120.236 48.2296 122.92 49.0662C125.604 49.9376 127.974 51.1575 129.961 52.7261C131.948 54.2946 133.516 56.1768 134.666 58.3727C135.782 60.6035 136.374 63.0434 136.374 65.7622C136.374 66.4244 136.339 67.0867 136.305 67.7838C136.27 68.4809 136.235 69.0735 136.165 69.6312C136.095 70.2934 136.026 70.886 135.956 71.4088H105.527C105.527 77.3343 106.572 81.5519 108.629 84.0615C110.685 86.5363 113.369 87.7911 116.646 87.7911ZM122.711 67.3655C122.711 64.3679 122.502 61.8932 122.049 59.9064C121.63 57.9196 121.038 56.3511 120.306 55.166C119.539 53.946 118.667 53.1095 117.622 52.5866C116.576 52.0638 115.426 51.8198 114.136 51.8198C112.986 51.8198 111.905 52.0638 110.86 52.5866C109.814 53.1095 108.873 53.946 108.106 55.166C107.339 56.3511 106.712 57.9196 106.259 59.9064C105.771 61.8932 105.527 64.3679 105.527 67.3655H122.711Z"/>
<path d="M263.877 87.7908C267.362 87.7908 270.221 87.0588 272.416 85.6297C274.577 84.1658 276.564 82.423 278.307 80.3316L281.444 82.3881C280.712 83.3989 279.806 84.4795 278.76 85.56C277.715 86.6754 276.46 87.6862 274.926 88.6273C273.427 89.5684 271.615 90.3353 269.558 90.9278C267.502 91.5204 265.097 91.8341 262.343 91.8341C258.788 91.8341 255.546 91.2764 252.688 90.161C249.83 89.0456 247.39 87.5119 245.368 85.5251C243.347 83.5384 241.778 81.2379 240.698 78.554C239.617 75.9049 239.094 72.977 239.094 69.8051C239.094 66.215 239.652 63.0431 240.802 60.2546C241.952 57.501 243.521 55.2353 245.508 53.388C247.494 51.5755 249.83 50.1812 252.549 49.2053C255.232 48.2642 258.16 47.7762 261.332 47.7762C264.504 47.7762 267.432 48.2293 270.116 49.0658C272.835 49.9372 275.17 51.1572 277.157 52.7257C279.144 54.2942 280.712 56.1764 281.862 58.3724C283.013 60.6032 283.57 63.0431 283.57 65.7618C283.57 66.4241 283.57 67.0864 283.535 67.7835C283.501 68.4806 283.431 69.0731 283.361 69.6308C283.291 70.2931 283.222 70.8857 283.152 71.4085H252.758C252.758 77.334 253.768 81.5516 255.825 84.0612C257.881 86.536 260.565 87.7908 263.877 87.7908ZM269.942 67.3652C269.942 64.3676 269.698 61.8928 269.279 59.906C268.826 57.9192 268.234 56.3507 267.502 55.1656C266.77 53.9457 265.863 53.1091 264.818 52.5863C263.772 52.0635 262.622 51.8195 261.332 51.8195C260.182 51.8195 259.101 52.0635 258.056 52.5863C257.01 53.1091 256.104 53.9457 255.302 55.1656C254.535 56.3507 253.908 57.9192 253.455 59.906C252.967 61.8928 252.758 64.3676 252.758 67.3652H269.942Z"/>
<path fill-rule="evenodd" clip-rule="evenodd" d="M188.38 127.806C165.689 103.616 142.998 79.4262 142.998 55.2013C142.998 41.8515 153.175 31.0113 165.689 31.0113C172.311 31.0113 177.017 33.0678 180.921 37.2505C177.714 35.0197 173.88 33.9043 168.895 33.9043C156.94 33.9043 147.25 43.2806 147.25 54.8527C147.25 75.0692 167.501 89.6041 188.38 109.855C209.259 89.6041 229.475 75.0692 229.475 54.8527C229.475 43.2806 219.785 33.9043 207.864 33.9043C202.88 33.9043 199.046 35.0197 195.839 37.2505C199.743 33.0678 204.414 31.0113 211.071 31.0113C223.584 31.0113 233.762 41.8515 233.762 55.2013C233.762 79.4262 211.071 103.616 188.38 127.806Z"/>
</mask>
<path d="M345.849 33.6505C344.404 35.6628 343.366 37.7189 342.734 39.8187C342.192 41.9185 341.921 44.6308 341.921 47.9555V84.5709C341.921 86.4082 342.327 87.9393 343.14 89.1642L344.359 90.7391L343.14 92.0514H329.052L298.979 41.7873V74.8593C298.979 78.3589 299.25 81.1587 299.792 83.2585C300.424 85.2708 301.462 87.2394 302.907 89.1642L304.126 90.7391L302.907 92.0514H288.006L287.058 89.6891C289.406 89.0767 291.032 88.508 291.935 87.9831C292.928 87.4581 293.605 86.7144 293.967 85.752C294.328 84.7896 294.508 83.2585 294.508 81.1587V46.5118C294.508 42.6622 294.147 39.8625 293.425 38.1126C292.702 36.3628 291.122 34.4817 288.683 32.4694L289.767 30.7633H307.378L337.586 81.4212V41.656C337.586 39.0313 336.999 37.1939 335.825 36.144C334.741 35.0941 332.438 34.088 328.916 33.1256L329.729 30.7633H345.849L347.068 32.2069L345.849 33.6505Z" fill="url(#paint3_linear_52_4902)"/>
<path d="M59.029 92.4618C56.2754 92.4618 53.5218 92.2178 50.803 91.7298C48.0842 91.2419 45.6443 90.5447 43.4833 89.6036C41.3222 88.6974 39.5794 87.5471 38.22 86.1877C36.8606 84.8632 36.1984 83.3296 36.1984 81.6565V71.13H39.2308C40.3114 77.3692 42.4724 81.7959 45.714 84.445C48.9556 87.094 53.3823 88.4185 59.029 88.4185C62.8283 88.4185 65.8956 87.6866 68.1961 86.1877C70.4966 84.7238 71.6817 82.5627 71.6817 79.6697C71.6817 77.1252 70.7406 74.9641 68.8932 73.2562C67.0459 71.5483 64.5014 69.8403 61.2598 68.0975L48.8162 61.44C44.2501 59.035 41.0085 56.5951 39.1263 54.0854C37.244 51.541 36.3029 48.6479 36.3029 45.3366C36.3029 40.6311 38.3246 36.8666 42.4027 34.113C46.4809 31.3594 51.9881 30 58.9244 30C61.7129 30 64.4317 30.2091 67.1853 30.6971C69.904 31.1851 72.344 31.8822 74.505 32.8233C76.6661 33.7296 78.4089 34.8798 79.7683 36.2392C81.0928 37.5637 81.7899 39.0974 81.7899 40.7705V51.297H78.7574C77.6072 45.0578 75.481 40.6311 72.344 37.982C69.1721 35.333 65.0591 34.0433 59.9701 34.0433C56.3451 34.0433 53.4869 34.8101 51.3955 36.3786C49.2693 37.9123 48.2237 40.0385 48.2237 42.7573C48.2237 44.0121 48.4676 45.1275 48.9905 46.1034C49.4785 47.1143 50.2104 48.0205 51.1167 48.8571C52.023 49.6936 53.1035 50.4953 54.3932 51.297C55.6828 52.0638 57.1119 52.8655 58.7501 53.702L71.1589 60.2549C75.7598 62.66 79.106 65.0302 81.2322 67.3307C83.3584 69.6312 84.4041 72.4197 84.4041 75.731C84.4041 80.8896 82.2082 84.9678 77.8512 87.9654C73.4593 90.963 67.1853 92.4618 59.029 92.4618ZM116.646 87.7911C120.166 87.7911 123.024 87.0591 125.186 85.6301C127.381 84.1661 129.368 82.4233 131.111 80.332L134.248 82.3885C133.516 83.3993 132.61 84.4798 131.564 85.5603C130.518 86.6757 129.229 87.6866 127.73 88.6277C126.196 89.5688 124.419 90.3356 122.362 90.9282C120.306 91.5207 117.901 91.8344 115.147 91.8344C111.557 91.8344 108.35 91.2767 105.492 90.1613C102.634 89.0459 100.194 87.5123 98.1722 85.5255C96.1506 83.5387 94.582 81.2382 93.5015 78.5543C92.421 75.9053 91.8981 72.9774 91.8981 69.8055C91.8981 66.2153 92.4558 63.0434 93.6061 60.2549C94.7563 57.5013 96.3248 55.2357 98.3116 53.3883C100.298 51.5758 102.634 50.1816 105.353 49.2056C108.036 48.2645 110.964 47.7765 114.136 47.7765C117.308 47.7765 120.236 48.2296 122.92 49.0662C125.604 49.9376 127.974 51.1575 129.961 52.7261C131.948 54.2946 133.516 56.1768 134.666 58.3727C135.782 60.6035 136.374 63.0434 136.374 65.7622C136.374 66.4244 136.339 67.0867 136.305 67.7838C136.27 68.4809 136.235 69.0735 136.165 69.6312C136.095 70.2934 136.026 70.886 135.956 71.4088H105.527C105.527 77.3343 106.572 81.5519 108.629 84.0615C110.685 86.5363 113.369 87.7911 116.646 87.7911ZM122.711 67.3655C122.711 64.3679 122.502 61.8932 122.049 59.9064C121.63 57.9196 121.038 56.3511 120.306 55.166C119.539 53.946 118.667 53.1095 117.622 52.5866C116.576 52.0638 115.426 51.8198 114.136 51.8198C112.986 51.8198 111.905 52.0638 110.86 52.5866C109.814 53.1095 108.873 53.946 108.106 55.166C107.339 56.3511 106.712 57.9196 106.259 59.9064C105.771 61.8932 105.527 64.3679 105.527 67.3655H122.711Z" fill="url(#paint4_linear_52_4902)"/>
<path d="M263.877 87.7908C267.362 87.7908 270.221 87.0588 272.416 85.6297C274.577 84.1658 276.564 82.423 278.307 80.3316L281.444 82.3881C280.712 83.3989 279.806 84.4795 278.76 85.56C277.715 86.6754 276.46 87.6862 274.926 88.6273C273.427 89.5684 271.615 90.3353 269.558 90.9278C267.502 91.5204 265.097 91.8341 262.343 91.8341C258.788 91.8341 255.546 91.2764 252.688 90.161C249.83 89.0456 247.39 87.5119 245.368 85.5251C243.347 83.5384 241.778 81.2379 240.698 78.554C239.617 75.9049 239.094 72.977 239.094 69.8051C239.094 66.215 239.652 63.0431 240.802 60.2546C241.952 57.501 243.521 55.2353 245.508 53.388C247.494 51.5755 249.83 50.1812 252.549 49.2053C255.232 48.2642 258.16 47.7762 261.332 47.7762C264.504 47.7762 267.432 48.2293 270.116 49.0658C272.835 49.9372 275.17 51.1572 277.157 52.7257C279.144 54.2942 280.712 56.1764 281.862 58.3724C283.013 60.6032 283.57 63.0431 283.57 65.7618C283.57 66.4241 283.57 67.0864 283.535 67.7835C283.501 68.4806 283.431 69.0731 283.361 69.6308C283.291 70.2931 283.222 70.8857 283.152 71.4085H252.758C252.758 77.334 253.768 81.5516 255.825 84.0612C257.881 86.536 260.565 87.7908 263.877 87.7908ZM269.942 67.3652C269.942 64.3676 269.698 61.8928 269.279 59.906C268.826 57.9192 268.234 56.3507 267.502 55.1656C266.77 53.9457 265.863 53.1091 264.818 52.5863C263.772 52.0635 262.622 51.8195 261.332 51.8195C260.182 51.8195 259.101 52.0635 258.056 52.5863C257.01 53.1091 256.104 53.9457 255.302 55.1656C254.535 56.3507 253.908 57.9192 253.455 59.906C252.967 61.8928 252.758 64.3676 252.758 67.3652H269.942Z" fill="url(#paint5_linear_52_4902)"/>
<path fill-rule="evenodd" clip-rule="evenodd" d="M188.38 127.806C165.689 103.616 142.998 79.4262 142.998 55.2013C142.998 41.8515 153.175 31.0113 165.689 31.0113C172.311 31.0113 177.017 33.0678 180.921 37.2505C177.714 35.0197 173.88 33.9043 168.895 33.9043C156.94 33.9043 147.25 43.2806 147.25 54.8527C147.25 75.0692 167.501 89.6041 188.38 109.855C209.259 89.6041 229.475 75.0692 229.475 54.8527C229.475 43.2806 219.785 33.9043 207.864 33.9043C202.88 33.9043 199.046 35.0197 195.839 37.2505C199.743 33.0678 204.414 31.0113 211.071 31.0113C223.584 31.0113 233.762 41.8515 233.762 55.2013C233.762 79.4262 211.071 103.616 188.38 127.806Z" fill="url(#paint6_linear_52_4902)"/>
<path d="M345.849 33.6505C344.404 35.6628 343.366 37.7189 342.734 39.8187C342.192 41.9185 341.921 44.6308 341.921 47.9555V84.5709C341.921 86.4082 342.327 87.9393 343.14 89.1642L344.359 90.7391L343.14 92.0514H329.052L298.979 41.7873V74.8593C298.979 78.3589 299.25 81.1587 299.792 83.2585C300.424 85.2708 301.462 87.2394 302.907 89.1642L304.126 90.7391L302.907 92.0514H288.006L287.058 89.6891C289.406 89.0767 291.032 88.508 291.935 87.9831C292.928 87.4581 293.605 86.7144 293.967 85.752C294.328 84.7896 294.508 83.2585 294.508 81.1587V46.5118C294.508 42.6622 294.147 39.8625 293.425 38.1126C292.702 36.3628 291.122 34.4817 288.683 32.4694L289.767 30.7633H307.378L337.586 81.4212V41.656C337.586 39.0313 336.999 37.1939 335.825 36.144C334.741 35.0941 332.438 34.088 328.916 33.1256L329.729 30.7633H345.849L347.068 32.2069L345.849 33.6505Z" stroke="url(#paint7_linear_52_4902)" stroke-width="3.29791" stroke-linejoin="round" mask="url(#path-4-outside-1_52_4902)"/>
<path d="M59.029 92.4618C56.2754 92.4618 53.5218 92.2178 50.803 91.7298C48.0842 91.2419 45.6443 90.5447 43.4833 89.6036C41.3222 88.6974 39.5794 87.5471 38.22 86.1877C36.8606 84.8632 36.1984 83.3296 36.1984 81.6565V71.13H39.2308C40.3114 77.3692 42.4724 81.7959 45.714 84.445C48.9556 87.094 53.3823 88.4185 59.029 88.4185C62.8283 88.4185 65.8956 87.6866 68.1961 86.1877C70.4966 84.7238 71.6817 82.5627 71.6817 79.6697C71.6817 77.1252 70.7406 74.9641 68.8932 73.2562C67.0459 71.5483 64.5014 69.8403 61.2598 68.0975L48.8162 61.44C44.2501 59.035 41.0085 56.5951 39.1263 54.0854C37.244 51.541 36.3029 48.6479 36.3029 45.3366C36.3029 40.6311 38.3246 36.8666 42.4027 34.113C46.4809 31.3594 51.9881 30 58.9244 30C61.7129 30 64.4317 30.2091 67.1853 30.6971C69.904 31.1851 72.344 31.8822 74.505 32.8233C76.6661 33.7296 78.4089 34.8798 79.7683 36.2392C81.0928 37.5637 81.7899 39.0974 81.7899 40.7705V51.297H78.7574C77.6072 45.0578 75.481 40.6311 72.344 37.982C69.1721 35.333 65.0591 34.0433 59.9701 34.0433C56.3451 34.0433 53.4869 34.8101 51.3955 36.3786C49.2693 37.9123 48.2237 40.0385 48.2237 42.7573C48.2237 44.0121 48.4676 45.1275 48.9905 46.1034C49.4785 47.1143 50.2104 48.0205 51.1167 48.8571C52.023 49.6936 53.1035 50.4953 54.3932 51.297C55.6828 52.0638 57.1119 52.8655 58.7501 53.702L71.1589 60.2549C75.7598 62.66 79.106 65.0302 81.2322 67.3307C83.3584 69.6312 84.4041 72.4197 84.4041 75.731C84.4041 80.8896 82.2082 84.9678 77.8512 87.9654C73.4593 90.963 67.1853 92.4618 59.029 92.4618ZM116.646 87.7911C120.166 87.7911 123.024 87.0591 125.186 85.6301C127.381 84.1661 129.368 82.4233 131.111 80.332L134.248 82.3885C133.516 83.3993 132.61 84.4798 131.564 85.5603C130.518 86.6757 129.229 87.6866 127.73 88.6277C126.196 89.5688 124.419 90.3356 122.362 90.9282C120.306 91.5207 117.901 91.8344 115.147 91.8344C111.557 91.8344 108.35 91.2767 105.492 90.1613C102.634 89.0459 100.194 87.5123 98.1722 85.5255C96.1506 83.5387 94.582 81.2382 93.5015 78.5543C92.421 75.9053 91.8981 72.9774 91.8981 69.8055C91.8981 66.2153 92.4558 63.0434 93.6061 60.2549C94.7563 57.5013 96.3248 55.2357 98.3116 53.3883C100.298 51.5758 102.634 50.1816 105.353 49.2056C108.036 48.2645 110.964 47.7765 114.136 47.7765C117.308 47.7765 120.236 48.2296 122.92 49.0662C125.604 49.9376 127.974 51.1575 129.961 52.7261C131.948 54.2946 133.516 56.1768 134.666 58.3727C135.782 60.6035 136.374 63.0434 136.374 65.7622C136.374 66.4244 136.339 67.0867 136.305 67.7838C136.27 68.4809 136.235 69.0735 136.165 69.6312C136.095 70.2934 136.026 70.886 135.956 71.4088H105.527C105.527 77.3343 106.572 81.5519 108.629 84.0615C110.685 86.5363 113.369 87.7911 116.646 87.7911ZM122.711 67.3655C122.711 64.3679 122.502 61.8932 122.049 59.9064C121.63 57.9196 121.038 56.3511 120.306 55.166C119.539 53.946 118.667 53.1095 117.622 52.5866C116.576 52.0638 115.426 51.8198 114.136 51.8198C112.986 51.8198 111.905 52.0638 110.86 52.5866C109.814 53.1095 108.873 53.946 108.106 55.166C107.339 56.3511 106.712 57.9196 106.259 59.9064C105.771 61.8932 105.527 64.3679 105.527 67.3655H122.711Z" stroke="url(#paint8_linear_52_4902)" stroke-width="3.29791" stroke-linejoin="round" mask="url(#path-4-outside-1_52_4902)"/>
<path d="M263.877 87.7908C267.362 87.7908 270.221 87.0588 272.416 85.6297C274.577 84.1658 276.564 82.423 278.307 80.3316L281.444 82.3881C280.712 83.3989 279.806 84.4795 278.76 85.56C277.715 86.6754 276.46 87.6862 274.926 88.6273C273.427 89.5684 271.615 90.3353 269.558 90.9278C267.502 91.5204 265.097 91.8341 262.343 91.8341C258.788 91.8341 255.546 91.2764 252.688 90.161C249.83 89.0456 247.39 87.5119 245.368 85.5251C243.347 83.5384 241.778 81.2379 240.698 78.554C239.617 75.9049 239.094 72.977 239.094 69.8051C239.094 66.215 239.652 63.0431 240.802 60.2546C241.952 57.501 243.521 55.2353 245.508 53.388C247.494 51.5755 249.83 50.1812 252.549 49.2053C255.232 48.2642 258.16 47.7762 261.332 47.7762C264.504 47.7762 267.432 48.2293 270.116 49.0658C272.835 49.9372 275.17 51.1572 277.157 52.7257C279.144 54.2942 280.712 56.1764 281.862 58.3724C283.013 60.6032 283.57 63.0431 283.57 65.7618C283.57 66.4241 283.57 67.0864 283.535 67.7835C283.501 68.4806 283.431 69.0731 283.361 69.6308C283.291 70.2931 283.222 70.8857 283.152 71.4085H252.758C252.758 77.334 253.768 81.5516 255.825 84.0612C257.881 86.536 260.565 87.7908 263.877 87.7908ZM269.942 67.3652C269.942 64.3676 269.698 61.8928 269.279 59.906C268.826 57.9192 268.234 56.3507 267.502 55.1656C266.77 53.9457 265.863 53.1091 264.818 52.5863C263.772 52.0635 262.622 51.8195 261.332 51.8195C260.182 51.8195 259.101 52.0635 258.056 52.5863C257.01 53.1091 256.104 53.9457 255.302 55.1656C254.535 56.3507 253.908 57.9192 253.455 59.906C252.967 61.8928 252.758 64.3676 252.758 67.3652H269.942Z" stroke="url(#paint9_linear_52_4902)" stroke-width="3.29791" stroke-linejoin="round" mask="url(#path-4-outside-1_52_4902)"/>
<path fill-rule="evenodd" clip-rule="evenodd" d="M188.38 127.806C165.689 103.616 142.998 79.4262 142.998 55.2013C142.998 41.8515 153.175 31.0113 165.689 31.0113C172.311 31.0113 177.017 33.0678 180.921 37.2505C177.714 35.0197 173.88 33.9043 168.895 33.9043C156.94 33.9043 147.25 43.2806 147.25 54.8527C147.25 75.0692 167.501 89.6041 188.38 109.855C209.259 89.6041 229.475 75.0692 229.475 54.8527C229.475 43.2806 219.785 33.9043 207.864 33.9043C202.88 33.9043 199.046 35.0197 195.839 37.2505C199.743 33.0678 204.414 31.0113 211.071 31.0113C223.584 31.0113 233.762 41.8515 233.762 55.2013C233.762 79.4262 211.071 103.616 188.38 127.806Z" stroke="url(#paint10_linear_52_4902)" stroke-width="3.29791" stroke-linejoin="round" mask="url(#path-4-outside-1_52_4902)"/>
</g>
<g filter="url(#filter3_ddii_52_4902)">
<path d="M233.926 129.568C232.873 129.568 231.858 129.427 230.88 129.145C229.902 128.882 229.103 128.496 228.482 127.989C227.862 127.462 227.551 126.86 227.551 126.183V122.883H228.341C228.623 124.801 229.216 126.183 230.118 127.03C231.021 127.876 232.281 128.299 233.898 128.299C234.989 128.299 235.854 128.064 236.493 127.594C237.133 127.124 237.452 126.447 237.452 125.563C237.452 124.811 237.217 124.171 236.747 123.645C236.277 123.118 235.544 122.545 234.547 121.924L231.077 119.837C229.817 119.103 228.915 118.342 228.369 117.552C227.843 116.762 227.58 115.841 227.58 114.787C227.58 113.302 228.144 112.126 229.272 111.261C230.419 110.396 231.961 109.964 233.898 109.964C234.951 109.964 235.967 110.105 236.945 110.387C237.922 110.65 238.722 111.045 239.342 111.572C239.963 112.079 240.273 112.672 240.273 113.349V116.649H239.483C239.164 114.731 238.571 113.349 237.706 112.503C236.841 111.656 235.675 111.233 234.208 111.233C233.193 111.233 232.384 111.478 231.783 111.967C231.2 112.456 230.908 113.123 230.908 113.969C230.908 114.703 231.134 115.314 231.585 115.803C232.055 116.273 232.807 116.809 233.842 117.411L237.311 119.47C238.628 120.241 239.568 120.993 240.132 121.727C240.715 122.441 241.007 123.306 241.007 124.322C241.007 125.958 240.386 127.246 239.145 128.186C237.922 129.108 236.183 129.568 233.926 129.568ZM249.992 111.741H247.989C246.936 111.741 246.128 112.004 245.563 112.531C245.018 113.057 244.745 113.922 244.745 115.126H243.899V112.728C243.899 111.224 244.698 110.472 246.297 110.472H259.555V111.741H253.659V129.089H249.992V111.741ZM270.306 129.653C268.482 129.653 266.856 129.221 265.426 128.355C264.016 127.49 262.925 126.306 262.154 124.801C261.383 123.297 260.998 121.623 260.998 119.78C260.998 117.937 261.383 116.264 262.154 114.759C262.925 113.255 264.016 112.07 265.426 111.205C266.856 110.34 268.482 109.907 270.306 109.907C272.13 109.907 273.748 110.34 275.158 111.205C276.568 112.07 277.659 113.255 278.43 114.759C279.201 116.264 279.587 117.937 279.587 119.78C279.587 121.623 279.201 123.297 278.43 124.801C277.659 126.306 276.568 127.49 275.158 128.355C273.748 129.221 272.13 129.653 270.306 129.653ZM270.306 128.384C272.018 128.384 273.343 127.641 274.284 126.155C275.224 124.651 275.694 122.526 275.694 119.78C275.694 117.035 275.224 114.919 274.284 113.433C273.343 111.929 272.018 111.177 270.306 111.177C268.595 111.177 267.269 111.929 266.329 113.433C265.408 114.919 264.947 117.035 264.947 119.78C264.947 122.526 265.408 124.651 266.329 126.155C267.269 127.641 268.595 128.384 270.306 128.384ZM297.683 129.371C296.649 129.371 295.709 129.07 294.862 128.468C294.016 127.848 293.132 126.785 292.211 125.281L289.39 120.57H288.262V129.089H284.567V114.139C284.567 113.18 284.435 112.474 284.172 112.023C283.908 111.553 283.382 111.318 282.592 111.318H282.31V110.472H290.095C292.051 110.472 293.809 110.829 295.37 111.544C296.931 112.258 297.711 113.631 297.711 115.662C297.711 118.013 296.188 119.573 293.142 120.344L296.104 125.281C297.213 127.143 298.379 128.177 299.601 128.384V129.089C299.451 129.164 299.178 129.23 298.783 129.286C298.388 129.343 298.022 129.371 297.683 129.371ZM289.954 119.442C291.007 119.442 291.901 119.131 292.634 118.511C293.386 117.871 293.762 116.875 293.762 115.521C293.762 114.186 293.396 113.198 292.662 112.559C291.929 111.92 291.073 111.6 290.095 111.6C289.55 111.6 289.127 111.638 288.826 111.713L288.262 111.797V119.442H289.954ZM305.446 129.089C304.769 129.089 304.252 128.985 303.895 128.779C303.538 128.553 303.284 128.186 303.133 127.678C302.983 127.152 302.908 126.4 302.908 125.422V110.472H306.575V125.422C306.575 126.381 306.706 127.096 306.97 127.566C307.233 128.017 307.759 128.243 308.549 128.243H308.831V129.089H305.446ZM313.336 114.139C313.336 113.18 313.205 112.474 312.942 112.023C312.678 111.553 312.152 111.318 311.362 111.318H311.08V110.472H323.52C325.118 110.472 325.917 111.224 325.917 112.728V115.126H325.071C325.071 113.96 324.77 113.104 324.168 112.559C323.585 112.014 322.711 111.741 321.545 111.741H317.004V118.793H324.338V120.062H317.004V127.82H321.827C322.899 127.82 323.792 127.584 324.507 127.114C325.221 126.625 325.814 125.789 326.284 124.604L327.046 124.886L326.228 127.114C325.983 127.791 325.692 128.29 325.353 128.609C325.015 128.929 324.488 129.089 323.773 129.089H313.336V114.139ZM336.682 129.568C335.629 129.568 334.613 129.427 333.635 129.145C332.657 128.882 331.858 128.496 331.238 127.989C330.617 127.462 330.307 126.86 330.307 126.183V122.883H331.096C331.379 124.801 331.971 126.183 332.874 127.03C333.776 127.876 335.036 128.299 336.653 128.299C337.744 128.299 338.609 128.064 339.249 127.594C339.888 127.124 340.208 126.447 340.208 125.563C340.208 124.811 339.973 124.171 339.502 123.645C339.032 123.118 338.299 122.545 337.302 121.924L333.833 119.837C332.573 119.103 331.67 118.342 331.125 117.552C330.598 116.762 330.335 115.841 330.335 114.787C330.335 113.302 330.899 112.126 332.027 111.261C333.174 110.396 334.716 109.964 336.653 109.964C337.707 109.964 338.722 110.105 339.7 110.387C340.678 110.65 341.477 111.045 342.098 111.572C342.718 112.079 343.028 112.672 343.028 113.349V116.649H342.239C341.919 114.731 341.327 113.349 340.462 112.503C339.596 111.656 338.431 111.233 336.964 111.233C335.948 111.233 335.14 111.478 334.538 111.967C333.955 112.456 333.663 113.123 333.663 113.969C333.663 114.703 333.889 115.314 334.34 115.803C334.811 116.273 335.563 116.809 336.597 117.411L340.067 119.47C341.383 120.241 342.323 120.993 342.887 121.727C343.47 122.441 343.762 123.306 343.762 124.322C343.762 125.958 343.141 127.246 341.9 128.186C340.678 129.108 338.938 129.568 336.682 129.568Z" fill="#DCCAFF"/>
</g>
<g filter="url(#filter4_ddii_52_4902)">
<path d="M37.6798 114.139C37.6798 113.18 37.5481 112.474 37.2848 112.023C37.0216 111.553 36.495 111.318 35.7052 111.318H35.4231V110.472H38.8081C39.4851 110.472 40.0022 110.584 40.3595 110.81C40.7168 111.036 40.9707 111.412 41.1211 111.938C41.2716 112.446 41.3468 113.18 41.3468 114.139V118.793H48.963V110.472H52.63V125.422C52.63 126.381 52.7616 127.096 53.0249 127.566C53.2882 128.017 53.8147 128.243 54.6045 128.243H54.8866V129.089H51.5017C50.8247 129.089 50.3075 128.985 49.9502 128.779C49.5929 128.553 49.3391 128.186 49.1886 127.678C49.0382 127.152 48.963 126.4 48.963 125.422V120.062H41.3468V129.089H37.6798V114.139ZM59.3922 114.139C59.3922 113.18 59.2606 112.474 58.9973 112.023C58.734 111.553 58.2075 111.318 57.4176 111.318H57.1356V110.472H69.5753C71.1737 110.472 71.973 111.224 71.973 112.728V115.126H71.1267C71.1267 113.96 70.8258 113.104 70.2241 112.559C69.6411 112.014 68.7666 111.741 67.6007 111.741H63.0592V118.793H70.3933V120.062H63.0592V127.82H67.8828C68.9547 127.82 69.848 127.584 70.5626 127.114C71.2772 126.625 71.8695 125.789 72.3397 124.604L73.1013 124.886L72.2832 127.114C72.0388 127.791 71.7473 128.29 71.4088 128.609C71.0703 128.929 70.5437 129.089 69.8291 129.089H59.3922V114.139ZM92.7512 129.202C91.5665 129.202 90.4946 128.957 89.5355 128.468C88.5764 127.961 87.796 126.983 87.1942 125.535L86.5455 123.955H79.0421L76.7291 129.089H75.2623L83.5836 110.472H84.853L91.1716 125.535C91.8862 127.284 92.864 128.224 94.1052 128.355V129.061C93.7667 129.155 93.3154 129.202 92.7512 129.202ZM79.6345 122.686H86.0095L82.9066 115.323L79.6345 122.686ZM110.507 129.371C109.473 129.371 108.532 129.07 107.686 128.468C106.84 127.848 105.956 126.785 105.035 125.281L102.214 120.57H101.086V129.089H97.3903V114.139C97.3903 113.18 97.2587 112.474 96.9954 112.023C96.7321 111.553 96.2056 111.318 95.4158 111.318H95.1337V110.472H102.919C104.875 110.472 106.633 110.829 108.194 111.544C109.755 112.258 110.535 113.631 110.535 115.662C110.535 118.013 109.012 119.573 105.966 120.344L108.927 125.281C110.037 127.143 111.203 128.177 112.425 128.384V129.089C112.275 129.164 112.002 129.23 111.607 129.286C111.212 129.343 110.846 129.371 110.507 129.371ZM102.778 119.442C103.831 119.442 104.724 119.131 105.458 118.511C106.21 117.871 106.586 116.875 106.586 115.521C106.586 114.186 106.219 113.198 105.486 112.559C104.753 111.92 103.897 111.6 102.919 111.6C102.374 111.6 101.951 111.638 101.65 111.713L101.086 111.797V119.442H102.778ZM120.047 111.741H118.045C116.991 111.741 116.183 112.004 115.619 112.531C115.073 113.057 114.801 113.922 114.801 115.126H113.954V112.728C113.954 111.224 114.754 110.472 116.352 110.472H129.61V111.741H123.714V129.089H120.047V111.741ZM138.839 129.568C137.786 129.568 136.771 129.427 135.793 129.145C134.815 128.882 134.016 128.496 133.395 127.989C132.775 127.462 132.464 126.86 132.464 126.183V122.883H133.254C133.536 124.801 134.129 126.183 135.031 127.03C135.934 127.876 137.194 128.299 138.811 128.299C139.902 128.299 140.767 128.064 141.406 127.594C142.046 127.124 142.365 126.447 142.365 125.563C142.365 124.811 142.13 124.171 141.66 123.645C141.19 123.118 140.457 122.545 139.46 121.924L135.99 119.837C134.73 119.103 133.828 118.342 133.282 117.552C132.756 116.762 132.493 115.841 132.493 114.787C132.493 113.302 133.057 112.126 134.185 111.261C135.332 110.396 136.874 109.964 138.811 109.964C139.864 109.964 140.88 110.105 141.858 110.387C142.835 110.65 143.635 111.045 144.255 111.572C144.876 112.079 145.186 112.672 145.186 113.349V116.649H144.396C144.077 114.731 143.484 113.349 142.619 112.503C141.754 111.656 140.588 111.233 139.121 111.233C138.106 111.233 137.297 111.478 136.696 111.967C136.113 112.456 135.821 113.123 135.821 113.969C135.821 114.703 136.047 115.314 136.498 115.803C136.968 116.273 137.72 116.809 138.755 117.411L142.224 119.47C143.541 120.241 144.481 120.993 145.045 121.727C145.628 122.441 145.92 123.306 145.92 124.322C145.92 125.958 145.299 127.246 144.058 128.186C142.835 129.108 141.096 129.568 138.839 129.568Z" fill="#DCCAFF"/>
</g>
</g>
<defs>
<filter id="filter0_f_52_4902" x="156.044" y="38.8658" width="64.6702" height="64.4751" filterUnits="userSpaceOnUse" color-interpolation-filters="sRGB">
<feFlood flood-opacity="0" result="BackgroundImageFix"/>
<feBlend mode="normal" in="SourceGraphic" in2="BackgroundImageFix" result="shape"/>
<feGaussianBlur stdDeviation="3.55683" result="effect1_foregroundBlur_52_4902"/>
</filter>
<filter id="filter1_f_52_4902" x="165.476" y="47.8245" width="45.806" height="45.3825" filterUnits="userSpaceOnUse" color-interpolation-filters="sRGB">
<feFlood flood-opacity="0" result="BackgroundImageFix"/>
<feBlend mode="normal" in="SourceGraphic" in2="BackgroundImageFix" result="shape"/>
<feGaussianBlur stdDeviation="1.31041" result="effect1_foregroundBlur_52_4902"/>
</filter>
<filter id="filter2_ddddii_52_4902" x="1.80865" y="9.2103" width="379.65" height="166.586" filterUnits="userSpaceOnUse" color-interpolation-filters="sRGB">
<feFlood flood-opacity="0" result="BackgroundImageFix"/>
<feColorMatrix in="SourceAlpha" type="matrix" values="0 0 0 0 0 0 0 0 0 0 0 0 0 0 0 0 0 0 127 0" result="hardAlpha"/>
<feOffset/>
<feGaussianBlur stdDeviation="5.18643"/>
<feComposite in2="hardAlpha" operator="out"/>
<feColorMatrix type="matrix" values="0 0 0 0 0.297539 0 0 0 0 0.156528 0 0 0 0 0.660139 0 0 0 0.37 0"/>
<feBlend mode="screen" in2="BackgroundImageFix" result="effect1_dropShadow_52_4902"/>
<feColorMatrix in="SourceAlpha" type="matrix" values="0 0 0 0 0 0 0 0 0 0 0 0 0 0 0 0 0 0 127 0" result="hardAlpha"/>
<feOffset dy="13.6"/>
<feGaussianBlur stdDeviation="16.3704"/>
<feComposite in2="hardAlpha" operator="out"/>
<feColorMatrix type="matrix" values="0 0 0 0 0.0901961 0 0 0 0 0.127843 0 0 0 0 0.388235 0 0 0 1 0"/>
<feBlend mode="normal" in2="effect1_dropShadow_52_4902" result="effect2_dropShadow_52_4902"/>
<feColorMatrix in="SourceAlpha" type="matrix" values="0 0 0 0 0 0 0 0 0 0 0 0 0 0 0 0 0 0 127 0" result="hardAlpha"/>
<feOffset dx="1.90347" dy="3.33107"/>
<feGaussianBlur stdDeviation="2.1414"/>
<feComposite in2="hardAlpha" operator="out"/>
<feColorMatrix type="matrix" values="0 0 0 0 0 0 0 0 0 0 0 0 0 0 0 0 0 0 0.37 0"/>
<feBlend mode="normal" in2="effect2_dropShadow_52_4902" result="effect3_dropShadow_52_4902"/>
<feColorMatrix in="SourceAlpha" type="matrix" values="0 0 0 0 0 0 0 0 0 0 0 0 0 0 0 0 0 0 127 0" result="hardAlpha"/>
<feOffset dy="-4.94686"/>
<feGaussianBlur stdDeviation="6.3897"/>
<feComposite in2="hardAlpha" operator="out"/>
<feColorMatrix type="matrix" values="0 0 0 0 0.125903 0 0 0 0 0.401618 0 0 0 0 0.816667 0 0 0 0.42 0"/>
<feBlend mode="normal" in2="effect3_dropShadow_52_4902" result="effect4_dropShadow_52_4902"/>
<feBlend mode="normal" in="SourceGraphic" in2="effect4_dropShadow_52_4902" result="shape"/>
<feColorMatrix in="SourceAlpha" type="matrix" values="0 0 0 0 0 0 0 0 0 0 0 0 0 0 0 0 0 0 127 0" result="hardAlpha"/>
<feOffset/>
<feGaussianBlur stdDeviation="0.755556"/>
<feComposite in2="hardAlpha" operator="arithmetic" k2="-1" k3="1"/>
<feColorMatrix type="matrix" values="0 0 0 0 0 0 0 0 0 0 0 0 0 0 0 0 0 0 0.3 0"/>
<feBlend mode="darken" in2="shape" result="effect5_innerShadow_52_4902"/>
<feColorMatrix in="SourceAlpha" type="matrix" values="0 0 0 0 0 0 0 0 0 0 0 0 0 0 0 0 0 0 127 0" result="hardAlpha"/>
<feOffset dy="3.02223"/>
<feGaussianBlur stdDeviation="1.51111"/>
<feComposite in2="hardAlpha" operator="arithmetic" k2="-1" k3="1"/>
<feColorMatrix type="matrix" values="0 0 0 0 1 0 0 0 0 1 0 0 0 0 1 0 0 0 0.51 0"/>
<feBlend mode="normal" in2="effect5_innerShadow_52_4902" result="effect6_innerShadow_52_4902"/>
</filter>
<filter id="filter3_ddii_52_4902" x="224.24" y="109.394" width="122.833" height="26.8816" filterUnits="userSpaceOnUse" color-interpolation-filters="sRGB">
<feFlood flood-opacity="0" result="BackgroundImageFix"/>
<feColorMatrix in="SourceAlpha" type="matrix" values="0 0 0 0 0 0 0 0 0 0 0 0 0 0 0 0 0 0 127 0" result="hardAlpha"/>
<feOffset dy="3.31104"/>
<feGaussianBlur stdDeviation="1.65552"/>
<feComposite in2="hardAlpha" operator="out"/>
<feColorMatrix type="matrix" values="0 0 0 0 0.112509 0 0 0 0 0.175924 0 0 0 0 0.332022 0 0 0 1 0"/>
<feBlend mode="normal" in2="BackgroundImageFix" result="effect1_dropShadow_52_4902"/>
<feColorMatrix in="SourceAlpha" type="matrix" values="0 0 0 0 0 0 0 0 0 0 0 0 0 0 0 0 0 0 127 0" result="hardAlpha"/>
<feOffset dy="1.27604"/>
<feGaussianBlur stdDeviation="0.638018"/>
<feComposite in2="hardAlpha" operator="out"/>
<feColorMatrix type="matrix" values="0 0 0 0 0.13 0 0 0 0 0.13 0 0 0 0 0.13 0 0 0 0.25 0"/>
<feBlend mode="normal" in2="effect1_dropShadow_52_4902" result="effect2_dropShadow_52_4902"/>
<feBlend mode="normal" in="SourceGraphic" in2="effect2_dropShadow_52_4902" result="shape"/>
<feColorMatrix in="SourceAlpha" type="matrix" values="0 0 0 0 0 0 0 0 0 0 0 0 0 0 0 0 0 0 127 0" result="hardAlpha"/>
<feOffset dx="0.342611" dy="-0.513916"/>
<feGaussianBlur stdDeviation="0.256958"/>
<feComposite in2="hardAlpha" operator="arithmetic" k2="-1" k3="1"/>
<feColorMatrix type="matrix" values="0 0 0 0 0.249557 0 0 0 0 0.213504 0 0 0 0 0.47259 0 0 0 0.42 0"/>
<feBlend mode="normal" in2="shape" result="effect3_innerShadow_52_4902"/>
<feColorMatrix in="SourceAlpha" type="matrix" values="0 0 0 0 0 0 0 0 0 0 0 0 0 0 0 0 0 0 127 0" result="hardAlpha"/>
<feOffset dx="-0.342611" dy="0.171305"/>
<feGaussianBlur stdDeviation="0.256958"/>
<feComposite in2="hardAlpha" operator="arithmetic" k2="-1" k3="1"/>
<feColorMatrix type="matrix" values="0 0 0 0 0.959761 0 0 0 0 0.953212 0 0 0 0 0.999287 0 0 0 1 0"/>
<feBlend mode="normal" in2="effect3_innerShadow_52_4902" result="effect4_innerShadow_52_4902"/>
</filter>
<filter id="filter4_ddii_52_4902" x="32.1121" y="109.45" width="117.119" height="26.7405" filterUnits="userSpaceOnUse" color-interpolation-filters="sRGB">
<feFlood flood-opacity="0" result="BackgroundImageFix"/>
<feColorMatrix in="SourceAlpha" type="matrix" values="0 0 0 0 0 0 0 0 0 0 0 0 0 0 0 0 0 0 127 0" result="hardAlpha"/>
<feOffset dy="3.31104"/>
<feGaussianBlur stdDeviation="1.65552"/>
<feComposite in2="hardAlpha" operator="out"/>
<feColorMatrix type="matrix" values="0 0 0 0 0.112509 0 0 0 0 0.175924 0 0 0 0 0.332022 0 0 0 1 0"/>
<feBlend mode="normal" in2="BackgroundImageFix" result="effect1_dropShadow_52_4902"/>
<feColorMatrix in="SourceAlpha" type="matrix" values="0 0 0 0 0 0 0 0 0 0 0 0 0 0 0 0 0 0 127 0" result="hardAlpha"/>
<feOffset dy="1.27604"/>
<feGaussianBlur stdDeviation="0.638018"/>
<feComposite in2="hardAlpha" operator="out"/>
<feColorMatrix type="matrix" values="0 0 0 0 0.13 0 0 0 0 0.13 0 0 0 0 0.13 0 0 0 0.25 0"/>
<feBlend mode="normal" in2="effect1_dropShadow_52_4902" result="effect2_dropShadow_52_4902"/>
<feBlend mode="normal" in="SourceGraphic" in2="effect2_dropShadow_52_4902" result="shape"/>
<feColorMatrix in="SourceAlpha" type="matrix" values="0 0 0 0 0 0 0 0 0 0 0 0 0 0 0 0 0 0 127 0" result="hardAlpha"/>
<feOffset dx="0.342611" dy="-0.513916"/>
<feGaussianBlur stdDeviation="0.256958"/>
<feComposite in2="hardAlpha" operator="arithmetic" k2="-1" k3="1"/>
<feColorMatrix type="matrix" values="0 0 0 0 0.249557 0 0 0 0 0.213504 0 0 0 0 0.47259 0 0 0 0.42 0"/>
<feBlend mode="normal" in2="shape" result="effect3_innerShadow_52_4902"/>
<feColorMatrix in="SourceAlpha" type="matrix" values="0 0 0 0 0 0 0 0 0 0 0 0 0 0 0 0 0 0 127 0" result="hardAlpha"/>
<feOffset dx="-0.342611" dy="0.171305"/>
<feGaussianBlur stdDeviation="0.256958"/>
<feComposite in2="hardAlpha" operator="arithmetic" k2="-1" k3="1"/>
<feColorMatrix type="matrix" values="0 0 0 0 0.959761 0 0 0 0 0.953212 0 0 0 0 0.999287 0 0 0 1 0"/>
<feBlend mode="normal" in2="effect3_innerShadow_52_4902" result="effect4_innerShadow_52_4902"/>
</filter>
<linearGradient id="paint0_linear_52_4902" x1="169.442" y1="49.5914" x2="188.592" y2="94.3736" gradientUnits="userSpaceOnUse">
<stop stop-color="white"/>
<stop offset="0.222925" stop-color="#F997FC"/>
<stop offset="0.378552" stop-color="#BB5AD2"/>
<stop offset="0.507052" stop-color="#9539B7"/>
<stop offset="0.683995" stop-color="#5E3095"/>
<stop offset="0.788045" stop-color="#473287"/>
<stop offset="0.896349" stop-color="#372897"/>
<stop offset="1" stop-color="#3028B8"/>
</linearGradient>
<radialGradient id="paint1_radial_52_4902" cx="0" cy="0" r="1" gradientUnits="userSpaceOnUse" gradientTransform="translate(177.528 55.4391) rotate(73.7203) scale(41.9748 64.2497)">
<stop offset="0.00404353" stop-color="#FEDEFF"/>
<stop offset="0.222925" stop-color="#F997FC"/>
<stop offset="0.378552" stop-color="#BB5AD2"/>
<stop offset="0.493758" stop-color="#9539B7"/>
<stop offset="0.609549" stop-color="#68399E"/>
<stop offset="0.718051" stop-color="#4B3296"/>
<stop offset="0.807153" stop-color="#3D2F99"/>
<stop offset="0.910811" stop-color="#3930B0"/>
<stop offset="1" stop-color="#1A4AA6"/>
</radialGradient>
<radialGradient id="paint2_radial_52_4902" cx="0" cy="0" r="1" gradientUnits="userSpaceOnUse" gradientTransform="translate(177.528 55.4391) rotate(66.1583) scale(58.2751 89.2002)">
<stop offset="0.00404353" stop-color="#FEDEFF"/>
<stop offset="0.222925" stop-color="#F997FC"/>
<stop offset="0.378552" stop-color="#BB5AD2"/>
<stop offset="0.493758" stop-color="#9539B7"/>
<stop offset="0.609549" stop-color="#68399E"/>
<stop offset="0.718051" stop-color="#4B3296"/>
<stop offset="0.807153" stop-color="#3D2F99"/>
<stop offset="0.910811" stop-color="#3930B0"/>
<stop offset="1" stop-color="#1A4AA6"/>
</radialGradient>
<linearGradient id="paint3_linear_52_4902" x1="191.633" y1="52.0489" x2="191.633" y2="119.785" gradientUnits="userSpaceOnUse">
<stop stop-color="#E6C8FC"/>
<stop offset="0.314655" stop-color="#D2A6F2"/>
<stop offset="0.609375" stop-color="#B46FE4"/>
<stop offset="0.723958" stop-color="#976AB8"/>
<stop offset="1" stop-color="#9062B2"/>
</linearGradient>
<linearGradient id="paint4_linear_52_4902" x1="191.633" y1="52.0489" x2="191.633" y2="119.785" gradientUnits="userSpaceOnUse">
<stop stop-color="#E6C8FC"/>
<stop offset="0.314655" stop-color="#D2A6F2"/>
<stop offset="0.609375" stop-color="#B46FE4"/>
<stop offset="0.723958" stop-color="#976AB8"/>
<stop offset="1" stop-color="#9062B2"/>
</linearGradient>
<linearGradient id="paint5_linear_52_4902" x1="191.633" y1="52.0489" x2="191.633" y2="119.785" gradientUnits="userSpaceOnUse">
<stop stop-color="#E6C8FC"/>
<stop offset="0.314655" stop-color="#D2A6F2"/>
<stop offset="0.609375" stop-color="#B46FE4"/>
<stop offset="0.723958" stop-color="#976AB8"/>
<stop offset="1" stop-color="#9062B2"/>
</linearGradient>
<linearGradient id="paint6_linear_52_4902" x1="191.633" y1="52.0489" x2="191.633" y2="119.785" gradientUnits="userSpaceOnUse">
<stop stop-color="#E6C8FC"/>
<stop offset="0.314655" stop-color="#D2A6F2"/>
<stop offset="0.609375" stop-color="#B46FE4"/>
<stop offset="0.723958" stop-color="#976AB8"/>
<stop offset="1" stop-color="#9062B2"/>
</linearGradient>
<linearGradient id="paint7_linear_52_4902" x1="158.973" y1="119.877" x2="158.973" y2="24.362" gradientUnits="userSpaceOnUse">
<stop stop-color="#503982"/>
<stop offset="0.526042" stop-color="#332491"/>
<stop offset="1" stop-color="#A5A3F0"/>
</linearGradient>
<linearGradient id="paint8_linear_52_4902" x1="158.973" y1="119.877" x2="158.973" y2="24.362" gradientUnits="userSpaceOnUse">
<stop stop-color="#503982"/>
<stop offset="0.526042" stop-color="#332491"/>
<stop offset="1" stop-color="#A5A3F0"/>
</linearGradient>
<linearGradient id="paint9_linear_52_4902" x1="158.973" y1="119.877" x2="158.973" y2="24.362" gradientUnits="userSpaceOnUse">
<stop stop-color="#503982"/>
<stop offset="0.526042" stop-color="#332491"/>
<stop offset="1" stop-color="#A5A3F0"/>
</linearGradient>
<linearGradient id="paint10_linear_52_4902" x1="158.973" y1="119.877" x2="158.973" y2="24.362" gradientUnits="userSpaceOnUse">
<stop stop-color="#503982"/>
<stop offset="0.526042" stop-color="#332491"/>
<stop offset="1" stop-color="#A5A3F0"/>
</linearGradient>
<clipPath id="clip0_52_4902">
<rect width="382" height="166" fill="white"/>
</clipPath>
</defs>
</svg>
