<svg width="56" height="55" viewBox="0 0 56 55" fill="none" xmlns="http://www.w3.org/2000/svg">
<path d="M28.1341 5.17324C35.4055 5.17324 36.2666 5.20512 39.1262 5.33264C41.7839 5.44953 43.219 5.89585 44.1758 6.26777C45.4409 6.75659 46.3551 7.35168 47.3012 8.29744C48.258 9.25383 48.8427 10.1571 49.3317 11.4216C49.7038 12.378 50.1503 13.8232 50.2672 16.4692C50.3948 19.3384 50.4266 20.1991 50.4266 27.4571C50.4266 34.7256 50.3948 35.5864 50.2672 38.4449C50.1503 41.1015 49.7038 42.5361 49.3317 43.4925C48.8427 44.757 48.2474 45.6709 47.3012 46.6167C46.3445 47.5731 45.4409 48.1575 44.1758 48.6464C43.219 49.0183 41.7733 49.4646 39.1262 49.5815C36.256 49.709 35.3949 49.7409 28.1341 49.7409C20.8627 49.7409 20.0017 49.709 17.142 49.5815C14.4843 49.4646 13.0492 49.0183 12.0924 48.6464C10.8274 48.1575 9.91314 47.5624 8.96701 46.6167C8.01025 45.6603 7.42556 44.757 6.93655 43.4925C6.56448 42.5361 6.11799 41.0909 6.00105 38.4449C5.87348 35.5757 5.84159 34.715 5.84159 27.4571C5.84159 20.1885 5.87348 19.3278 6.00105 16.4692C6.11799 13.8126 6.56448 12.378 6.93655 11.4216C7.42556 10.1571 8.02088 9.2432 8.96701 8.29744C9.92377 7.34105 10.8274 6.75659 12.0924 6.26777C13.0492 5.89585 14.495 5.44953 17.142 5.33264C20.0017 5.20512 20.8627 5.17324 28.1341 5.17324ZM28.1341 0.274414C20.7458 0.274414 19.8209 0.306294 16.9188 0.433812C14.0272 0.56133 12.0393 1.0289 10.3171 1.69837C8.52052 2.39972 7.00033 3.32423 5.49078 4.84382C3.97059 6.35279 3.04572 7.87238 2.3441 9.65763C1.67436 11.3898 1.20661 13.3663 1.07905 16.2567C0.951478 19.1684 0.919586 20.0929 0.919586 27.4783C0.919586 34.8637 0.951478 35.7883 1.07905 38.6893C1.20661 41.5797 1.67436 43.5669 2.3441 45.2884C3.04572 47.0843 3.97059 48.6038 5.49078 50.1128C7.00033 51.6218 8.52052 52.5569 10.3065 53.2476C12.0393 53.9171 14.0166 54.3847 16.9081 54.5122C19.8103 54.6397 20.7352 54.6716 28.1235 54.6716C35.5118 54.6716 36.4367 54.6397 39.3389 54.5122C42.2304 54.3847 44.2183 53.9171 45.9405 53.2476C47.7265 52.5569 49.2466 51.6218 50.7562 50.1128C52.2658 48.6038 53.2013 47.0843 53.8922 45.299C54.562 43.5669 55.0297 41.5903 55.1573 38.6999C55.2849 35.7989 55.3168 34.8744 55.3168 27.4889C55.3168 20.1035 55.2849 19.179 55.1573 16.278C55.0297 13.3875 54.562 11.4004 53.8922 9.67889C53.2225 7.87238 52.2976 6.35279 50.7775 4.84382C49.2679 3.33485 47.7477 2.39972 45.9618 1.70899C44.229 1.03952 42.2517 0.571957 39.3601 0.444438C36.4473 0.306294 35.5224 0.274414 28.1341 0.274414Z" fill="url(#paint0_linear_0_1376)"/>
<path d="M28.1345 13.5049C20.4166 13.5049 14.1552 19.7639 14.1552 27.4788C14.1552 35.1936 20.4166 41.4526 28.1345 41.4526C35.8524 41.4526 42.1138 35.1936 42.1138 27.4788C42.1138 19.7639 35.8524 13.5049 28.1345 13.5049ZM28.1345 36.5432C23.1274 36.5432 19.0665 32.4839 19.0665 27.4788C19.0665 22.4737 23.1274 18.4143 28.1345 18.4143C33.1415 18.4143 37.2025 22.4737 37.2025 27.4788C37.2025 32.4839 33.1415 36.5432 28.1345 36.5432Z" fill="url(#paint1_linear_0_1376)"/>
<path d="M45.9299 12.952C45.9299 14.7586 44.4629 16.2144 42.6663 16.2144C40.8591 16.2144 39.4027 14.7479 39.4027 12.952C39.4027 11.1455 40.8697 9.6897 42.6663 9.6897C44.4629 9.6897 45.9299 11.1562 45.9299 12.952Z" fill="url(#paint2_linear_0_1376)"/>
<defs>
<linearGradient id="paint0_linear_0_1376" x1="28.1182" y1="0.274414" x2="28.1182" y2="54.6716" gradientUnits="userSpaceOnUse">
<stop stop-color="#4868B9"/>
<stop offset="0.330722" stop-color="#9EB7F9"/>
<stop offset="0.705738" stop-color="#CDDBFF"/>
<stop offset="1" stop-color="#DBE5FF"/>
</linearGradient>
<linearGradient id="paint1_linear_0_1376" x1="28.1345" y1="13.5049" x2="28.1345" y2="41.4526" gradientUnits="userSpaceOnUse">
<stop stop-color="#4868B9"/>
<stop offset="0.330722" stop-color="#9EB7F9"/>
<stop offset="0.705738" stop-color="#CDDBFF"/>
<stop offset="1" stop-color="#DBE5FF"/>
</linearGradient>
<linearGradient id="paint2_linear_0_1376" x1="42.6663" y1="9.6897" x2="42.6663" y2="16.2144" gradientUnits="userSpaceOnUse">
<stop stop-color="#4868B9"/>
<stop offset="0.330722" stop-color="#9EB7F9"/>
<stop offset="0.705738" stop-color="#CDDBFF"/>
<stop offset="1" stop-color="#DBE5FF"/>
</linearGradient>
</defs>
</svg>
