<svg width="55" height="55" viewBox="0 0 55 55" fill="none" xmlns="http://www.w3.org/2000/svg">
<path fill-rule="evenodd" clip-rule="evenodd" d="M4.06014 4.09823C0.236328 7.92204 0.236328 14.0763 0.236328 26.3851V28.5609C0.236328 40.8697 0.236328 47.0239 4.06014 50.8478C7.88396 54.6716 14.0383 54.6716 26.347 54.6716H28.5229C40.8316 54.6716 46.9858 54.6716 50.8097 50.8478C54.6335 47.0239 54.6335 40.8697 54.6335 28.5609V26.3851C54.6335 14.0763 54.6335 7.92204 50.8097 4.09823C46.9858 0.274414 40.8316 0.274414 28.5229 0.274414H26.347C14.0383 0.274414 7.88396 0.274414 4.06014 4.09823ZM9.41599 16.8203C9.71064 30.9636 16.7822 39.4632 29.1803 39.4632H29.883V31.3716C34.4388 31.8249 37.8837 35.1567 39.2663 39.4632H45.7034C43.9355 33.0262 39.2889 29.4677 36.3877 28.1077C39.2889 26.4305 43.3686 22.3507 44.3433 16.8203H38.4954C37.2262 21.3081 33.4642 25.3879 29.883 25.7732V16.8203H24.0351V32.5049C20.4086 31.5982 15.8303 27.2011 15.6263 16.8203H9.41599Z" fill="url(#paint0_linear_0_1375)"/>
<defs>
<linearGradient id="paint0_linear_0_1375" x1="27.4349" y1="0.274414" x2="27.4349" y2="54.6716" gradientUnits="userSpaceOnUse">
<stop stop-color="#4868B9"/>
<stop offset="0.330722" stop-color="#9EB7F9"/>
<stop offset="0.705738" stop-color="#CDDBFF"/>
<stop offset="1" stop-color="#DBE5FF"/>
</linearGradient>
</defs>
</svg>
