<svg width="55" height="55" viewBox="0 0 55 55" fill="none" xmlns="http://www.w3.org/2000/svg">
<path fill-rule="evenodd" clip-rule="evenodd" d="M27.8014 54.6716C42.8228 54.6716 55 42.4944 55 27.473C55 12.4516 42.8228 0.274414 27.8014 0.274414C12.7801 0.274414 0.602844 12.4516 0.602844 27.473C0.602844 42.4944 12.7801 54.6716 27.8014 54.6716ZM34.0163 10.8235L34.8351 12.1146C35.9241 13.8529 39.2247 18.1902 42.5423 19.6585V25.4557C39.4864 24.7891 36.726 22.7048 34.5903 20.5699V34.0798C34.5903 39.9698 29.7955 44.7628 23.9032 44.7628C18.011 44.7628 13.2161 39.9698 13.2161 34.0798C13.2161 28.1898 18.011 23.3967 23.8948 23.3883C24.4772 23.3883 25.0428 23.4389 25.5915 23.5318V29.2024C25.0597 29.0167 24.4857 28.907 23.8948 28.907C21.0415 28.907 18.7285 31.2276 18.7285 34.0713C18.7285 36.9235 21.0415 39.2356 23.8948 39.2356C26.748 39.2356 29.061 36.9151 29.061 34.0713C29.061 33.9869 29.0526 33.8941 29.0441 33.8097L29.061 22.4516V10.8235H34.0163Z" fill="url(#paint0_linear_0_1380)"/>
<defs>
<linearGradient id="paint0_linear_0_1380" x1="27.8014" y1="0.274414" x2="27.8014" y2="54.6716" gradientUnits="userSpaceOnUse">
<stop stop-color="#4868B9"/>
<stop offset="0.330722" stop-color="#9EB7F9"/>
<stop offset="0.705738" stop-color="#CDDBFF"/>
<stop offset="1" stop-color="#DBE5FF"/>
</linearGradient>
</defs>
</svg>
