<svg width="96" height="100" viewBox="0 0 96 100" fill="none" xmlns="http://www.w3.org/2000/svg">
<g filter="url(#filter0_dd_0_1242)">
<path fill-rule="evenodd" clip-rule="evenodd" d="M48 93C72.3005 93 92 73.3005 92 49C92 24.6995 72.3005 5 48 5C23.6995 5 4 24.6995 4 49C4 73.3005 23.6995 93 48 93ZM66.1601 71V61.32H56.0001V25.32H45.0401C44.7734 25.8 44.1334 26.4667 43.1201 27.32C42.1601 28.12 40.9867 28.9467 39.6001 29.8C38.2667 30.6533 36.9067 31.4 35.5201 32.04C34.1867 32.6267 33.0401 32.92 32.0801 32.92V42.92C33.0934 42.92 34.2401 42.7333 35.5201 42.36C36.8001 41.9867 38.0801 41.5067 39.3601 40.92C40.6401 40.3333 41.7867 39.72 42.8001 39.08C43.8134 38.3867 44.5601 37.72 45.0401 37.08V61.32H33.6801V71H66.1601Z" fill="url(#paint0_linear_0_1242)"/>
</g>
<defs>
<filter id="filter0_dd_0_1242" x="0" y="0" width="96" height="100" filterUnits="userSpaceOnUse" color-interpolation-filters="sRGB">
<feFlood flood-opacity="0" result="BackgroundImageFix"/>
<feColorMatrix in="SourceAlpha" type="matrix" values="0 0 0 0 0 0 0 0 0 0 0 0 0 0 0 0 0 0 127 0" result="hardAlpha"/>
<feOffset dy="3"/>
<feGaussianBlur stdDeviation="2"/>
<feComposite in2="hardAlpha" operator="out"/>
<feColorMatrix type="matrix" values="0 0 0 0 0.0779167 0 0 0 0 0.0861333 0 0 0 0 0.283333 0 0 0 0.87 0"/>
<feBlend mode="normal" in2="BackgroundImageFix" result="effect1_dropShadow_0_1242"/>
<feColorMatrix in="SourceAlpha" type="matrix" values="0 0 0 0 0 0 0 0 0 0 0 0 0 0 0 0 0 0 127 0" result="hardAlpha"/>
<feOffset dy="-1"/>
<feGaussianBlur stdDeviation="2"/>
<feComposite in2="hardAlpha" operator="out"/>
<feColorMatrix type="matrix" values="0 0 0 0 0.520833 0 0 0 0 0.5975 0 0 0 0 1 0 0 0 0.46 0"/>
<feBlend mode="normal" in2="effect1_dropShadow_0_1242" result="effect2_dropShadow_0_1242"/>
<feBlend mode="normal" in="SourceGraphic" in2="effect2_dropShadow_0_1242" result="shape"/>
</filter>
<linearGradient id="paint0_linear_0_1242" x1="48" y1="5" x2="48" y2="93" gradientUnits="userSpaceOnUse">
<stop stop-color="#DBE5FF"/>
<stop offset="0.276042" stop-color="#CDDBFF"/>
<stop offset="0.598958" stop-color="#9EB7F9"/>
<stop offset="1" stop-color="#4868B9"/>
</linearGradient>
</defs>
</svg>
